<svg width="40" height="44" viewBox="0 0 40 44" fill="none" xmlns="http://www.w3.org/2000/svg">
<path d="M8.0876 1.1987L12.0405 5.15155C14.2414 3.57936 16.8786 2.7342 19.5835 2.7342C22.2883 2.7342 24.9255 3.57936 27.1265 5.15155L31.0793 1.1987C31.2797 0.991261 31.5193 0.825801 31.7843 0.711974C32.0493 0.598147 32.3343 0.538233 32.6227 0.535727C32.911 0.533221 33.197 0.588173 33.464 0.697378C33.7309 0.806583 33.9734 0.967853 34.1773 1.17178C34.3812 1.3757 34.5425 1.6182 34.6517 1.88512C34.7609 2.15204 34.8159 2.43803 34.8134 2.72642C34.8108 3.0148 34.7509 3.29979 34.6371 3.56478C34.5233 3.82976 34.3578 4.06941 34.1504 4.26976L30.1975 8.22262C31.7706 10.4231 32.6159 13.0606 32.6148 15.7656V17.9375H6.55207V15.7656C6.55104 13.0606 7.3963 10.4231 8.96939 8.22262L5.01654 4.26976C4.62091 3.86014 4.40199 3.31151 4.40694 2.74205C4.41189 2.17258 4.64031 1.62784 5.043 1.22516C5.44568 0.822469 5.99042 0.594053 6.55989 0.589104C7.12935 0.584156 7.67798 0.803071 8.0876 1.1987ZM21.7554 11.4218C21.7554 11.8514 21.8827 12.2713 22.1214 12.6285C22.36 12.9856 22.6992 13.264 23.0961 13.4284C23.493 13.5928 23.9297 13.6358 24.351 13.552C24.7723 13.4682 25.1593 13.2613 25.463 12.9576C25.7668 12.6538 25.9736 12.2668 26.0574 11.8455C26.1412 11.4242 26.0982 10.9875 25.9338 10.5907C25.7694 10.1938 25.4911 9.85461 25.1339 9.61596C24.7767 9.37731 24.3568 9.24993 23.9273 9.24993C23.3512 9.24993 22.7988 9.47875 22.3915 9.88606C21.9842 10.2934 21.7554 10.8458 21.7554 11.4218ZM13.0678 11.4218C13.0678 11.8514 13.1951 12.2713 13.4338 12.6285C13.6724 12.9856 14.0116 13.264 14.4085 13.4284C14.8054 13.5928 15.2421 13.6358 15.6634 13.552C16.0847 13.4682 16.4717 13.2613 16.7754 12.9576C17.0792 12.6538 17.286 12.2668 17.3698 11.8455C17.4536 11.4242 17.4106 10.9875 17.2462 10.5907C17.0818 10.1938 16.8035 9.85461 16.4463 9.61596C16.0891 9.37731 15.6692 9.24993 15.2397 9.24993C14.6636 9.24993 14.1112 9.47875 13.7039 9.88606C13.2966 10.2934 13.0678 10.8458 13.0678 11.4218Z" fill="white"/>
<path d="M23.9271 41.8282V35.3125H15.2395V41.8282C15.2395 42.4042 15.0106 42.9567 14.6033 43.364C14.196 43.7713 13.6436 44.0001 13.0676 44.0001C12.4916 44.0001 11.9391 43.7713 11.5318 43.364C11.1245 42.9567 10.8957 42.4042 10.8957 41.8282V35.3125H8.72378C8.14775 35.3125 7.59532 35.0837 7.18801 34.6764C6.7807 34.2691 6.55188 33.7166 6.55188 33.1406V22.2811H32.6147V33.1406C32.6147 33.7166 32.3858 34.2691 31.9785 34.6764C31.5712 35.0837 31.0188 35.3125 30.4428 35.3125H28.2709V41.8282C28.2709 42.4042 28.042 42.9567 27.6347 43.364C27.2274 43.7713 26.675 44.0001 26.099 44.0001C25.5229 44.0001 24.9705 43.7713 24.5632 43.364C24.1559 42.9567 23.9271 42.4042 23.9271 41.8282Z" fill="currentColor"/>
<path d="M36.9586 35.3125C37.5347 35.3125 38.0871 35.0837 38.4944 34.6764C38.9017 34.2691 39.1305 33.7166 39.1305 33.1406V24.453C39.1305 23.877 38.9017 23.3246 38.4944 22.9173C38.0871 22.51 37.5347 22.2811 36.9586 22.2811C36.3826 22.2811 35.8302 22.51 35.4229 22.9173C35.0156 23.3246 34.7867 23.877 34.7867 24.453V33.1406C34.7867 33.7166 35.0156 34.2691 35.4229 34.6764C35.8302 35.0837 36.3826 35.3125 36.9586 35.3125Z" fill="white"/>
<path d="M0.0362549 24.453V33.1406C0.0362549 33.7166 0.265079 34.2691 0.672389 34.6764C1.0797 35.0837 1.63213 35.3125 2.20815 35.3125C2.78418 35.3125 3.33661 35.0837 3.74392 34.6764C4.15123 34.2691 4.38005 33.7166 4.38005 33.1406V24.453C4.38005 23.877 4.15123 23.3246 3.74392 22.9173C3.33661 22.51 2.78418 22.2811 2.20815 22.2811C1.63213 22.2811 1.0797 22.51 0.672389 22.9173C0.265079 23.3246 0.0362549 23.877 0.0362549 24.453Z" fill="white"/>
</svg>

