<svg width="50" height="55" viewBox="0 0 50 55" fill="none" xmlns="http://www.w3.org/2000/svg">
<path d="M10.129 1.04046L15.102 6.01341C17.8709 4.0355 21.1887 2.97222 24.5916 2.97222C27.9944 2.97222 31.3122 4.0355 34.0811 6.01341L39.0541 1.04046C39.3061 0.779494 39.6076 0.571335 39.941 0.428133C40.2744 0.284931 40.6329 0.209555 40.9957 0.206402C41.3585 0.203249 41.7183 0.272383 42.0541 0.40977C42.3899 0.547157 42.695 0.750046 42.9515 1.0066C43.2081 1.26315 43.411 1.56822 43.5484 1.90402C43.6858 2.23983 43.7549 2.59963 43.7517 2.96243C43.7486 3.32523 43.6732 3.68378 43.53 4.01714C43.3868 4.3505 43.1787 4.65201 42.9177 4.90406L37.9447 9.87701C39.9238 12.6454 40.9872 15.9636 40.9859 19.3666V22.099H8.19723V19.3666C8.19593 15.9636 9.25932 12.6454 11.2384 9.87701L6.26543 4.90406C5.7677 4.38873 5.49229 3.69852 5.49852 2.9821C5.50474 2.26567 5.7921 1.58036 6.29871 1.07375C6.80532 0.567142 7.49064 0.27978 8.20706 0.273554C8.92348 0.267329 9.61369 0.542738 10.129 1.04046ZM27.3239 13.9018C27.3239 14.4422 27.4842 14.9705 27.7844 15.4198C28.0847 15.8692 28.5114 16.2194 29.0107 16.4262C29.51 16.633 30.0594 16.6871 30.5894 16.5817C31.1194 16.4763 31.6063 16.216 31.9884 15.8339C32.3706 15.4518 32.6308 14.9649 32.7362 14.4349C32.8416 13.9048 32.7875 13.3555 32.5807 12.8562C32.3739 12.3569 32.0237 11.9302 31.5744 11.6299C31.125 11.3297 30.5967 11.1694 30.0563 11.1694C29.3317 11.1694 28.6367 11.4573 28.1242 11.9697C27.6118 12.4821 27.3239 13.1771 27.3239 13.9018ZM16.3944 13.9018C16.3944 14.4422 16.5546 14.9705 16.8549 15.4198C17.1551 15.8692 17.5819 16.2194 18.0811 16.4262C18.5804 16.633 19.1298 16.6871 19.6598 16.5817C20.1899 16.4763 20.6767 16.216 21.0589 15.8339C21.441 15.4518 21.7012 14.9649 21.8067 14.4349C21.9121 13.9048 21.858 13.3555 21.6512 12.8562C21.4444 12.3569 21.0942 11.9302 20.6448 11.6299C20.1955 11.3297 19.6672 11.1694 19.1268 11.1694C18.4021 11.1694 17.7071 11.4573 17.1947 11.9697C16.6823 12.4821 16.3944 13.1771 16.3944 13.9018Z" fill="white"/>
<path d="M30.0562 52.1551V43.9579H19.1267V52.1551C19.1267 52.8798 18.8388 53.5748 18.3264 54.0872C17.814 54.5996 17.119 54.8875 16.3943 54.8875C15.6696 54.8875 14.9746 54.5996 14.4622 54.0872C13.9498 53.5748 13.6619 52.8798 13.6619 52.1551V43.9579H10.9295C10.2049 43.9579 9.50986 43.6701 8.99744 43.1576C8.48502 42.6452 8.19714 41.9502 8.19714 41.2255V27.5636H40.9858V41.2255C40.9858 41.9502 40.6979 42.6452 40.1855 43.1576C39.6731 43.6701 38.9781 43.9579 38.2534 43.9579H35.521V52.1551C35.521 52.8798 35.2331 53.5748 34.7207 54.0872C34.2083 54.5996 33.5133 54.8875 32.7886 54.8875C32.064 54.8875 31.369 54.5996 30.8565 54.0872C30.3441 53.5748 30.0562 52.8798 30.0562 52.1551Z" fill="white"/>
<path d="M46.4506 43.9579C47.1753 43.9579 47.8703 43.6701 48.3827 43.1576C48.8952 42.6452 49.183 41.9502 49.183 41.2255V30.296C49.183 29.5713 48.8952 28.8763 48.3827 28.3639C47.8703 27.8515 47.1753 27.5636 46.4506 27.5636C45.726 27.5636 45.031 27.8515 44.5186 28.3639C44.0061 28.8763 43.7183 29.5713 43.7183 30.296V41.2255C43.7183 41.9502 44.0061 42.6452 44.5186 43.1576C45.031 43.6701 45.726 43.9579 46.4506 43.9579Z" fill="white"/>
<path d="M0 30.296V41.2255C0 41.9502 0.287876 42.6452 0.800298 43.1576C1.31272 43.6701 2.00771 43.9579 2.73239 43.9579C3.45706 43.9579 4.15206 43.6701 4.66448 43.1576C5.1769 42.6452 5.46478 41.9502 5.46478 41.2255V30.296C5.46478 29.5713 5.1769 28.8763 4.66448 28.3639C4.15206 27.8515 3.45706 27.5636 2.73239 27.5636C2.00771 27.5636 1.31272 27.8515 0.800298 28.3639C0.287876 28.8763 0 29.5713 0 30.296Z" fill="white"/>
</svg>
