<svg width="193" height="75" viewBox="0 0 193 75" fill="none" xmlns="http://www.w3.org/2000/svg">
<path d="M1.06612 44.2296C1.06612 48.3661 0.919172 52.8111 0.768555 55.221H10.4779L10.9334 50.1H11.0804C13.6409 54.4643 17.8581 56.0586 22.1489 56.0586C30.5798 56.0586 38.9373 49.4204 38.9373 36.1697C39.0144 24.8734 32.615 17.574 23.802 17.574C18.6847 17.574 14.8421 19.6091 12.66 22.7684H12.5131V1.68564H1.06612V44.2259V44.2296ZM12.5131 34.1382C12.5096 33.428 12.5848 32.7196 12.7371 32.0259C13.4902 28.716 16.352 26.3833 19.4415 26.3833C24.7829 26.3833 27.3434 30.8981 27.3434 36.6179C27.3434 43.2451 24.331 47.0142 19.4415 47.0142C16.1279 47.0142 13.4902 44.6043 12.7371 41.592C12.5805 40.9251 12.5052 40.2417 12.5131 39.5568V34.1382ZM40.6234 55.221H52.0667V1.68564H40.6234V55.221ZM67.2975 55.221V18.4042H55.8579V55.221H67.2975ZM61.6548 2.4424C57.9628 2.4424 55.5566 4.92208 55.5566 8.1622C55.5566 11.3215 57.8894 13.882 61.5005 13.882C65.3431 13.882 67.6758 11.3215 67.6758 8.1622C67.6024 4.92208 65.3431 2.4424 61.6511 2.4424H61.6548ZM71.0115 55.221H82.4584V33.9876C82.414 33.0203 82.5409 32.0527 82.8331 31.1295C83.6597 29.0209 85.5442 26.8351 88.7072 26.8351C92.8474 26.8351 94.5041 30.0716 94.5041 34.8142V55.221H105.947V33.4586C105.947 22.6178 100.301 17.574 92.7702 17.574C86.5986 17.574 82.9103 21.1116 81.4004 23.5215H81.18L80.651 18.4042H70.7139C70.8609 21.7141 71.0115 25.5567 71.0115 30.145V55.221ZM144.52 29.3956C144.52 23.8999 144.675 20.8104 144.825 18.4042H134.884L134.506 22.8493H134.359C132.478 19.7634 129.312 17.574 124.271 17.574C115.161 17.574 107.556 25.1048 107.556 36.9963C107.556 47.5395 114.033 54.9161 123.14 54.9161C127.353 54.9161 130.899 53.1895 133.081 50.1772H133.228V52.5099C133.228 59.3722 129.087 62.2376 123.669 62.2376C119.927 62.2166 116.25 61.2566 112.975 59.4457L110.719 68.1852C114.029 69.9889 119.073 70.9697 123.97 70.9697C129.389 70.9697 134.884 69.9117 138.878 66.4512C143.091 62.7592 144.52 56.966 144.52 49.8723V29.3956ZM133.081 38.8074C133.108 39.849 132.981 40.889 132.702 41.8932C132.335 43.2243 131.538 44.3965 130.435 45.2271C129.332 46.0577 127.985 46.5001 126.604 46.4852C121.861 46.4852 119.15 42.1908 119.15 36.6951C119.15 29.9981 122.464 26.2326 126.681 26.2326C129.841 26.2326 132.03 28.2641 132.857 31.2765C133.004 31.9684 133.079 32.6739 133.081 33.3815V38.8074Z" fill="white"/>
<path d="M192.512 6.58254C188.679 10.359 184.66 15.7078 180.455 22.6288C176.278 29.4896 172.665 36.6794 169.655 44.1267C168.092 47.969 166.778 51.9079 165.721 55.919C164.023 55.7255 161.898 55.5418 159.343 55.368C157.039 55.2107 154.728 55.1996 152.422 55.3349C151.825 47.8334 152.488 39.0988 154.413 29.1311C155.525 23.3856 156.799 18.7446 158.234 15.2082C159.145 12.9526 160.063 11.3141 160.982 10.2635C156.871 9.29366 153.917 8.65078 152.092 8.35321C152.092 7.35032 152.595 5.6421 153.587 3.20283C153.879 2.45939 154.233 1.74174 154.645 1.05744C154.715 0.884783 154.895 0.859068 155.185 0.97295C155.229 0.987644 155.457 1.10153 155.835 1.28888C156.232 1.47991 156.515 1.61216 156.717 1.69298C160.353 3.16731 166.187 4.3943 174.218 5.37392C181.981 6.30457 188.002 6.57886 192.281 6.19681C192.355 6.22913 192.417 6.2835 192.459 6.35253C192.501 6.42155 192.521 6.50187 192.516 6.58254H192.512ZM164.648 71.5502C163.987 73.1776 161.577 74.1143 157.44 74.3825C153.897 74.5848 150.342 74.3105 146.871 73.567C145.627 73.3186 144.407 72.9583 143.227 72.4906C140.509 71.3934 138.565 69.8113 137.397 67.7443C136.236 65.6822 136.029 63.7303 136.776 61.8886C137.636 59.7653 140.314 58.766 144.807 58.9497C148.424 59.0911 151.991 59.849 155.354 61.1906C158.873 62.6233 161.485 64.3781 163.19 66.4549C164.762 68.3431 165.254 70.055 164.648 71.5502Z" fill="white"/>
</svg>
