<svg width="161" height="63" viewBox="0 0 161 63" fill="none" xmlns="http://www.w3.org/2000/svg">
<path d="M0.331022 37.096C0.331022 40.5505 0.208305 44.2627 0.0825195 46.2752H8.19106L8.57148 41.9985H8.6942C10.8325 45.6432 14.3545 46.9747 17.9379 46.9747C24.9788 46.9747 31.9583 41.431 31.9583 30.3649C32.0227 20.9311 26.6784 14.8351 19.3184 14.8351C15.0448 14.8351 11.8358 16.5347 10.0134 19.1731H9.89069V1.56628H0.331022V37.0929V37.096ZM9.89069 28.6684C9.88785 28.0753 9.95061 27.4836 10.0778 26.9043C10.7068 24.1401 13.0967 22.192 15.6768 22.192C20.1376 22.192 22.2759 25.9625 22.2759 30.7392C22.2759 36.2738 19.7602 39.4215 15.6768 39.4215C12.9095 39.4215 10.7068 37.4089 10.0778 34.8932C9.947 34.3363 9.88416 33.7656 9.89069 33.1936V28.6684ZM33.3665 46.2752H42.9231V1.56628H33.3665V46.2752ZM55.6427 46.2752V15.5284H46.0892V46.2752H55.6427ZM50.9304 2.19828C47.8471 2.19828 45.8376 4.26913 45.8376 6.97505C45.8376 9.61347 47.7858 11.7518 50.8015 11.7518C54.0106 11.7518 55.9587 9.61347 55.9587 6.97505C55.8974 4.26913 54.0106 2.19828 50.9273 2.19828H50.9304ZM58.7444 46.2752H68.3041V28.5426C68.267 27.7348 68.373 26.9267 68.617 26.1557C69.3073 24.3948 70.8811 22.5693 73.5226 22.5693C76.9802 22.5693 78.3638 25.2722 78.3638 29.2329V46.2752H87.9204V28.1008C87.9204 19.0474 83.205 14.8351 76.9158 14.8351C71.7616 14.8351 68.6814 17.7895 67.4205 19.8021H67.2364L66.7947 15.5284H58.4959C58.6186 18.2926 58.7444 21.5017 58.7444 25.3335V46.2752ZM120.134 24.7077C120.134 20.1181 120.263 17.5379 120.388 15.5284H112.087L111.771 19.2406H111.648C110.077 16.6636 107.432 14.8351 103.223 14.8351C95.6148 14.8351 89.2642 21.1243 89.2642 31.0552C89.2642 39.8602 94.6729 46.0206 102.278 46.0206C105.797 46.0206 108.758 44.5787 110.58 42.063H110.703V44.0111C110.703 49.742 107.245 52.135 102.72 52.135C99.595 52.1174 96.5242 51.3157 93.7894 49.8033L91.9057 57.102C94.6699 58.6083 98.8821 59.4274 102.972 59.4274C107.497 59.4274 112.087 58.5439 115.421 55.6539C118.94 52.5706 120.134 47.7325 120.134 41.8083V24.7077ZM110.58 32.5677C110.603 33.4377 110.497 34.3062 110.264 35.1448C109.957 36.2564 109.292 37.2353 108.37 37.929C107.449 38.6227 106.324 38.9921 105.171 38.9797C101.211 38.9797 98.9466 35.3933 98.9466 30.8037C98.9466 25.2108 101.714 22.0662 105.236 22.0662C107.874 22.0662 109.703 23.7628 110.393 26.2785C110.516 26.8563 110.579 27.4455 110.58 28.0364V32.5677Z" fill="white"/>
<path d="M160.213 5.65584C157.012 8.80967 153.656 13.2766 150.144 19.0566C146.655 24.7862 143.638 30.7906 141.124 37.0101C139.819 40.2189 138.722 43.5084 137.839 46.8582C136.421 46.6966 134.646 46.5432 132.513 46.398C130.589 46.2666 128.658 46.2574 126.733 46.3704C126.234 40.1056 126.788 32.8111 128.396 24.4868C129.324 19.6886 130.388 15.8127 131.586 12.8593C132.347 10.9756 133.114 9.60734 133.881 8.72991C130.448 7.91997 127.981 7.38309 126.457 7.13458C126.457 6.29704 126.877 4.87045 127.705 2.83334C127.949 2.21248 128.245 1.61315 128.589 1.04167C128.647 0.89748 128.797 0.876004 129.04 0.97111C129.077 0.983382 129.267 1.07849 129.583 1.23495C129.914 1.39448 130.15 1.50493 130.319 1.57242C133.356 2.80369 138.228 3.82838 144.935 4.64649C151.418 5.4237 156.447 5.65277 160.02 5.33371C160.082 5.3607 160.134 5.40611 160.169 5.46375C160.204 5.5214 160.22 5.58847 160.216 5.65584H160.213ZM136.943 59.9122C136.391 61.2713 134.378 62.0536 130.924 62.2776C127.964 62.4465 124.995 62.2175 122.097 61.5965C121.058 61.389 120.039 61.0882 119.054 60.6976C116.783 59.7813 115.16 58.46 114.185 56.7338C113.215 55.0117 113.043 53.3816 113.666 51.8435C114.384 50.0703 116.621 49.2358 120.373 49.3892C123.394 49.5073 126.373 50.1402 129.181 51.2606C132.12 52.4571 134.301 53.9226 135.725 55.657C137.038 57.2339 137.449 58.6636 136.943 59.9122Z" fill="white"/>
</svg>

