<svg width="83" height="83" viewBox="0 0 83 83" fill="none" xmlns="http://www.w3.org/2000/svg">
<circle cx="41.6706" cy="41.3288" r="33.6345" fill="#1CCA40"/>
<path fill-rule="evenodd" clip-rule="evenodd" d="M50.5273 45.1655C50.045 44.9255 47.6806 43.7691 47.2404 43.608C46.8002 43.4486 46.4797 43.3697 46.1577 43.8496C45.8372 44.3264 44.9164 45.4055 44.6364 45.7244C44.3548 46.0449 44.0748 46.0836 43.5942 45.8452C43.1135 45.6036 41.5631 45.0995 39.7262 43.4695C38.2972 42.2004 37.3311 40.6332 37.0511 40.1533C36.7711 39.6749 37.0203 39.4156 37.2615 39.1772C37.4783 38.963 37.7421 38.6183 37.9833 38.3397C38.2244 38.0594 38.3037 37.8597 38.4639 37.5392C38.6258 37.2203 38.5448 36.9417 38.4235 36.7017C38.3037 36.4617 37.3424 34.1054 36.941 33.147C36.551 32.2145 36.1545 32.3417 35.8599 32.3256C35.5784 32.3127 35.2579 32.3095 34.9375 32.3095C34.617 32.3095 34.0959 32.4287 33.6557 32.9087C33.2139 33.387 31.9726 34.5451 31.9726 36.9014C31.9726 39.2561 33.6946 41.5319 33.9357 41.8525C34.1768 42.1714 37.3262 47.0065 42.1506 49.0793C43.2996 49.5722 44.1946 49.8669 44.8921 50.086C46.0444 50.4516 47.0931 50.4 47.9217 50.276C48.8442 50.1391 50.7668 49.118 51.1682 48.0002C51.5679 46.8824 51.5679 45.9241 51.4482 45.7244C51.3284 45.5247 51.008 45.4055 50.5257 45.1655H50.5273ZM41.7525 57.089H41.746C38.8805 57.0895 36.0677 56.3229 33.6023 54.8695L33.0197 54.5248L26.9637 56.1065L28.5805 50.2309L28.2002 49.6286C26.5982 47.0908 25.7504 44.1537 25.7548 41.1567C25.758 32.3788 32.9339 25.2373 41.7589 25.2373C46.0314 25.2373 50.0483 26.8962 53.0682 29.9049C54.5577 31.3811 55.7383 33.1367 56.5416 35.07C57.345 37.0032 57.7552 39.0759 57.7485 41.1679C57.7453 49.9458 50.5694 57.089 41.7525 57.089ZM55.3662 27.6194C53.5831 25.8331 51.4615 24.4167 49.1243 23.4524C46.7871 22.488 44.2809 21.9949 41.7508 22.0015C31.144 22.0015 22.5083 30.5942 22.5051 41.1551C22.5002 44.516 23.3861 47.8188 25.0735 50.7302L22.3433 60.6565L32.5455 57.9925C35.3678 59.5228 38.5304 60.3246 41.7444 60.3247H41.7525C52.3593 60.3247 60.995 51.732 60.9982 41.1696C61.006 38.6526 60.5123 36.1591 59.5456 33.8332C58.5789 31.5074 57.1584 29.3954 55.3662 27.6194Z" fill="white"/>
</svg>
