<svg width="50" height="50" viewBox="0 0 50 50" fill="none" xmlns="http://www.w3.org/2000/svg">
<path d="M43.7181 0.526367H5.46476L1.8225 33.3149H47.3604L43.7181 0.526367ZM35.521 16.9207C35.521 19.8193 34.3695 22.5993 32.3198 24.649C30.2701 26.6987 27.4901 27.8502 24.5914 27.8502C21.6927 27.8502 18.9128 26.6987 16.8631 24.649C14.8134 22.5993 13.6619 19.8193 13.6619 16.9207V11.4559C13.6619 10.7312 13.9498 10.0362 14.4622 9.52381C14.9746 9.01139 15.6696 8.72351 16.3943 8.72351C17.119 8.72351 17.814 9.01139 18.3264 9.52381C18.8388 10.0362 19.1267 10.7312 19.1267 11.4559V16.9207C19.1267 18.37 19.7024 19.76 20.7273 20.7848C21.7521 21.8097 23.1421 22.3854 24.5914 22.3854C26.0408 22.3854 27.4308 21.8097 28.4556 20.7848C29.4804 19.76 30.0562 18.37 30.0562 16.9207V11.4559C30.0562 10.7312 30.3441 10.0362 30.8565 9.52381C31.3689 9.01139 32.0639 8.72351 32.7886 8.72351C33.5132 8.72351 34.2082 9.01139 34.7207 9.52381C35.2331 10.0362 35.521 10.7312 35.521 11.4559V16.9207ZM49.1829 49.7092H0L1.21318 38.7797H47.9697L49.1829 49.7092Z" fill="white"/>
</svg>
