<svg width="40" height="41" viewBox="0 0 40 41" fill="none" xmlns="http://www.w3.org/2000/svg">
<path d="M35.2225 0.943848H4.81595L1.92082 27.0066H38.1176L35.2225 0.943848ZM28.7068 13.9752C28.7068 16.2793 27.7915 18.489 26.1622 20.1182C24.533 21.7475 22.3233 22.6628 20.0192 22.6628C17.7151 22.6628 15.5054 21.7475 13.8762 20.1182C12.2469 18.489 11.3316 16.2793 11.3316 13.9752V9.63142C11.3316 9.0554 11.5605 8.50297 11.9678 8.09566C12.3751 7.68835 12.9275 7.45953 13.5035 7.45953C14.0795 7.45953 14.632 7.68835 15.0393 8.09566C15.4466 8.50297 15.6754 9.0554 15.6754 9.63142V13.9752C15.6754 15.1272 16.1331 16.2321 16.9477 17.0467C17.7623 17.8613 18.8672 18.319 20.0192 18.319C21.1712 18.319 22.2761 17.8613 23.0907 17.0467C23.9053 16.2321 24.363 15.1272 24.363 13.9752V9.63142C24.363 9.0554 24.5918 8.50297 24.9991 8.09566C25.4064 7.68835 25.9589 7.45953 26.5349 7.45953C27.1109 7.45953 27.6633 7.68835 28.0706 8.09566C28.4779 8.50297 28.7068 9.0554 28.7068 9.63142V13.9752ZM39.5662 40.0379H0.472168L1.43649 31.3503H38.6019L39.5662 40.0379Z" fill="white"/>
</svg>
