<svg width="25" height="19" viewBox="0 0 25 19" fill="none" xmlns="http://www.w3.org/2000/svg">
<path d="M22.8966 0.671852C22.7943 0.66114 22.6912 0.66114 22.589 0.671852H1.57956C1.44491 0.673961 1.31115 0.694483 1.18188 0.732865L12.0242 11.7076L22.8966 0.671852Z" fill="white"/>
<path d="M24.0071 1.73218L13.0822 12.7908C12.8011 13.0749 12.4207 13.2344 12.0243 13.2344C11.6278 13.2344 11.2475 13.0749 10.9663 12.7908L0.138949 1.81607C0.105664 1.94042 0.0880155 2.06855 0.0864258 2.1974V17.4507C0.0864258 17.8552 0.244532 18.2432 0.525962 18.5292C0.807393 18.8153 1.18909 18.976 1.5871 18.976H22.5965C22.9945 18.976 23.3762 18.8153 23.6576 18.5292C23.9391 18.2432 24.0972 17.8552 24.0972 17.4507V2.1974C24.0912 2.03851 24.0608 1.88153 24.0071 1.73218ZM2.61506 17.4507H1.57209V16.3601L7.02703 10.8613L8.085 11.9366L2.61506 17.4507ZM22.5815 17.4507H21.531L16.0611 11.9366L17.119 10.8613L22.574 16.3601L22.5815 17.4507Z" fill="white"/>
</svg>
