<svg width="768" height="704" viewBox="0 0 768 704" fill="none" xmlns="http://www.w3.org/2000/svg">
<g clip-path="url(#clip0_1919_546)">
<mask id="mask0_1919_546" style="mask-type:luminance" maskUnits="userSpaceOnUse" x="410" y="457" width="301" height="240">
<path d="M410.449 541.244L654.547 457.365L710.898 612.693L466.8 696.572L410.449 541.244Z" fill="white"/>
</mask>
<g mask="url(#mask0_1919_546)">
<path d="M588.849 654.632C656.255 631.47 698.283 577.922 682.722 535.029C667.161 492.137 599.904 476.142 532.498 499.305C465.092 522.467 423.063 576.015 438.624 618.908C454.185 661.8 521.443 677.795 588.849 654.632Z" fill="#FF9E68"/>
</g>
</g>
<g clip-path="url(#clip1_1919_546)">
<mask id="mask1_1919_546" style="mask-type:luminance" maskUnits="userSpaceOnUse" x="228" y="0" width="526" height="497">
<path d="M395.923 0.258789L753.813 193.6L586.134 496.678L228.245 303.337L395.923 0.258789Z" fill="white"/>
</mask>
<g mask="url(#mask1_1919_546)">
<path d="M305.535 165.404C359.87 85.3321 447.286 54.1433 550.961 88.3836C677.278 130.654 730.132 251.739 650.902 378.874C599.789 460.939 506.238 442.757 406.758 398.429C268.555 336.795 251.173 245.378 305.535 165.404Z" fill="#FF9E68"/>
</g>
</g>
<g clip-path="url(#clip2_1919_546)">
<mask id="mask2_1919_546" style="mask-type:luminance" maskUnits="userSpaceOnUse" x="0" y="474" width="424" height="230">
<path d="M0.233032 474.59H423.365V703.186H0.233032V474.59Z" fill="white"/>
</mask>
<g mask="url(#mask2_1919_546)">
<path d="M421.046 669.097C438.22 624.117 358.462 551.745 242.903 507.45C127.343 463.156 19.7423 463.711 2.56941 508.691C-14.6036 553.672 65.1542 626.043 180.714 670.339C296.273 714.633 403.874 714.077 421.046 669.097Z" fill="#FF9E68"/>
</g>
</g>
<g clip-path="url(#clip3_1919_546)">
<mask id="mask3_1919_546" style="mask-type:luminance" maskUnits="userSpaceOnUse" x="31" y="501" width="344" height="156">
<path d="M31.7991 501.224H374.054V656.471H31.7991V501.224Z" fill="white"/>
</mask>
<g mask="url(#mask3_1919_546)">
<path d="M372.203 643.567C380.826 621.041 312.03 573.807 218.545 538.066C125.06 502.325 42.2848 491.612 33.6623 514.138C25.0397 536.664 93.8347 583.899 187.32 619.64C280.805 655.381 363.581 666.094 372.203 643.567Z" fill="#1C1C1E"/>
<path d="M337.799 656.464C330.113 656.464 321.301 655.833 311.437 654.558C276.431 650.029 232.208 637.999 186.913 620.685C141.618 603.371 100.651 582.835 71.557 562.861C42.0631 542.613 28.2284 525.167 32.6021 513.739C36.9769 502.312 58.9277 498.545 94.415 503.137C129.421 507.665 173.644 519.695 218.939 537.009C264.234 554.324 305.201 574.86 334.295 594.833C363.789 615.081 377.623 632.527 373.248 643.955C370.09 652.207 357.764 656.464 337.799 656.464ZM68.0331 503.485C49.2619 503.485 37.4868 507.274 34.7045 514.543C30.7968 524.755 44.6934 541.69 72.8311 561.008C101.784 580.883 142.584 601.331 187.718 618.585C232.85 635.838 276.89 647.821 311.726 652.328C345.578 656.706 367.237 653.363 371.147 643.152C375.055 632.941 361.158 616.005 333.021 596.688C304.068 576.812 263.267 556.364 218.134 539.111C173.002 521.857 128.96 509.874 94.1257 505.368C84.3732 504.106 75.628 503.485 68.0331 503.485Z" fill="#1C1C1E"/>
</g>
</g>
<g clip-path="url(#clip4_1919_546)">
<mask id="mask4_1919_546" style="mask-type:luminance" maskUnits="userSpaceOnUse" x="471" y="463" width="179" height="173">
<path d="M471.75 463.246H649.405V635.007H471.75V463.246Z" fill="white"/>
</mask>
<g mask="url(#mask4_1919_546)">
<path d="M634.709 565.813L600.397 616.593C597.497 620.886 593.08 623.92 588.035 625.085L587.329 625.249L644.582 464.732C647.543 468.967 648.798 474.165 648.094 479.286L637.043 559.708C636.744 561.896 635.945 563.985 634.709 565.813Z" fill="#FF9E68"/>
<path d="M587.328 626.37C587.012 626.37 586.706 626.237 586.491 625.995C586.219 625.689 586.136 625.258 586.274 624.873L643.528 464.356C643.668 463.961 644.019 463.679 644.433 463.622C644.856 463.567 645.261 463.747 645.5 464.09C648.634 468.571 649.949 474.022 649.204 479.439L638.154 559.862C637.833 562.207 636.963 564.482 635.638 566.441L601.324 617.221C598.256 621.764 593.626 624.946 588.286 626.179L587.58 626.342C587.497 626.361 587.413 626.37 587.328 626.37ZM644.854 467.305L589.09 623.644C593.321 622.353 596.972 619.662 599.47 615.966L633.784 565.185C634.916 563.509 635.66 561.562 635.937 559.557L646.986 479.134C647.548 475.032 646.795 470.908 644.854 467.305Z" fill="#1C1C1E"/>
<path d="M483.862 633.888H576.286C581.551 633.888 586.23 632.424 586.938 625.983C580.674 625.983 472.87 625.983 472.87 625.983C472.87 625.983 474.502 633.888 483.862 633.888Z" fill="#FF9E68"/>
<path d="M576.287 635.009H483.861C473.709 635.009 471.791 626.298 471.772 626.209C471.703 625.88 471.787 625.535 472 625.274C472.212 625.013 472.532 624.861 472.868 624.861H586.938C587.256 624.861 587.559 624.996 587.772 625.234C587.984 625.472 588.086 625.788 588.051 626.105C587.075 635.009 578.956 635.009 576.287 635.009ZM474.428 627.104C475.326 629.144 477.775 632.767 483.861 632.767H576.287C581.885 632.767 584.752 631.057 585.624 627.104H474.428Z" fill="#1C1C1E"/>
<path d="M472.869 625.98H586.938L605.219 525.264H509.868L472.869 625.98Z" fill="white"/>
<path d="M586.938 627.102H472.868C472.502 627.102 472.159 626.922 471.95 626.622C471.741 626.321 471.691 625.937 471.818 625.594L508.818 524.878C508.98 524.436 509.4 524.144 509.868 524.144H605.218C605.551 524.144 605.865 524.29 606.078 524.546C606.291 524.802 606.381 525.138 606.32 525.464L588.041 626.18C587.943 626.714 587.479 627.102 586.938 627.102ZM474.473 624.86H586.003L603.877 526.385H510.649L474.473 624.86Z" fill="#1C1C1E"/>
<path d="M631.542 560.399L586.938 625.981L605.219 525.265L644.85 464.367L631.542 560.399Z" fill="#1C1C1E"/>
<path d="M586.938 627.102C586.796 627.102 586.651 627.075 586.513 627.018C586.023 626.818 585.742 626.302 585.836 625.781L604.116 525.065C604.143 524.918 604.199 524.778 604.279 524.653L643.911 463.755C644.197 463.315 644.753 463.134 645.241 463.317C645.733 463.501 646.031 464.001 645.959 464.521L632.651 560.552C632.628 560.723 632.565 560.886 632.468 561.029L587.864 626.611C587.65 626.926 587.3 627.102 586.938 627.102ZM606.279 525.688L588.984 620.982L630.469 559.984L643.051 469.184L606.279 525.688Z" fill="#1C1C1E"/>
<path d="M561.74 601.951L569.252 601.943C570.46 601.942 571.263 602.759 571.045 603.772L569.671 610.14C569.448 611.174 568.273 612.014 567.048 612.014H559.431C558.208 612.014 557.412 611.175 557.653 610.142L559.132 603.782C559.367 602.77 560.534 601.952 561.74 601.951ZM539.343 603.799L537.688 610.147C537.419 611.177 538.187 612.016 539.405 612.016H546.992C548.212 612.016 549.405 611.177 549.657 610.145L551.207 603.789C551.454 602.779 550.677 601.963 549.475 601.964L541.993 601.972C540.792 601.972 539.606 602.789 539.343 603.799ZM519.633 603.816L517.803 610.15C517.506 611.178 518.247 612.014 519.46 612.014H527.016C528.231 612.014 529.443 611.177 529.723 610.148L531.448 603.806C531.722 602.797 530.972 601.983 529.774 601.984L522.322 601.992C521.129 601.993 519.924 602.808 519.633 603.816ZM500.004 603.832L498.002 610.154C497.677 611.18 498.392 612.014 499.599 612.014H507.123C508.333 612.014 509.564 611.179 509.873 610.151L511.772 603.821C512.074 602.815 511.35 602.002 510.157 602.003L502.737 602.011C501.545 602.013 500.322 602.827 500.004 603.832ZM562.423 589.631L561.003 595.737C560.773 596.728 561.557 597.533 562.755 597.531L570.22 597.519C571.42 597.517 572.568 596.71 572.782 595.717L574.1 589.603C574.309 588.631 573.519 587.848 572.335 587.85L564.971 587.868C563.791 587.873 562.65 588.659 562.423 589.631ZM543.025 589.676L541.436 595.771C541.178 596.759 541.935 597.562 543.129 597.561L550.563 597.55C551.759 597.547 552.925 596.741 553.166 595.752L554.654 589.65C554.89 588.68 554.125 587.898 552.946 587.901L545.613 587.918C544.436 587.921 543.278 588.707 543.025 589.676ZM523.703 589.721L521.947 595.803C521.662 596.791 522.394 597.591 523.582 597.59L530.988 597.579C532.178 597.577 533.363 596.772 533.632 595.784L535.288 589.695C535.551 588.727 534.812 587.947 533.637 587.949L526.333 587.967C525.159 587.969 523.982 588.754 523.703 589.721ZM504.459 589.765L502.536 595.836C502.224 596.821 502.931 597.62 504.114 597.619L511.489 597.608C512.675 597.606 513.878 596.803 514.174 595.817L515.997 589.739C516.287 588.773 515.572 587.994 514.402 587.996L507.126 588.014C505.959 588.017 504.765 588.8 504.459 589.765ZM565.586 576.039L564.221 581.906C563.999 582.857 564.772 583.629 565.946 583.625L573.265 583.604C574.442 583.601 575.563 582.823 575.769 581.87L577.036 575.996C577.237 575.062 576.459 574.31 575.298 574.315L568.077 574.343C566.917 574.347 565.803 575.105 565.586 576.039ZM546.562 576.109L545.036 581.965C544.788 582.916 545.535 583.685 546.705 583.681L553.996 583.66C555.168 583.657 556.307 582.881 556.539 581.929L557.969 576.067C558.196 575.134 557.442 574.384 556.286 574.389L549.093 574.417C547.937 574.421 546.805 575.178 546.562 576.109ZM527.614 576.18L525.926 582.025C525.652 582.973 526.374 583.741 527.54 583.737L534.801 583.716C535.969 583.713 537.124 582.938 537.383 581.989L538.974 576.137C539.227 575.207 538.498 574.458 537.346 574.462L530.181 574.491C529.031 574.495 527.881 575.249 527.614 576.18ZM508.739 576.249L506.891 582.083C506.591 583.03 507.289 583.796 508.45 583.792L515.682 583.771C516.844 583.768 518.019 582.994 518.303 582.047L520.055 576.207C520.334 575.277 519.628 574.53 518.48 574.534L511.344 574.562C510.199 574.568 509.032 575.322 508.739 576.249ZM568.625 562.972L567.312 568.612C567.1 569.528 567.86 570.267 569.012 570.262L576.19 570.231C577.345 570.226 578.441 569.478 578.638 568.561L579.857 562.913C580.05 562.015 579.283 561.294 578.144 561.299L571.062 561.336C569.924 561.344 568.833 562.075 568.625 562.972ZM549.963 563.067L548.495 568.697C548.256 569.611 548.993 570.35 550.141 570.344L557.291 570.313C558.441 570.308 559.554 569.561 559.777 568.646L561.152 563.009C561.371 562.112 560.628 561.391 559.493 561.398L552.437 561.435C551.303 561.442 550.196 562.17 549.963 563.067ZM531.373 563.161L529.75 568.782C529.487 569.694 530.199 570.43 531.343 570.426L538.465 570.396C539.61 570.391 540.74 569.645 540.989 568.732L542.52 563.105C542.763 562.209 542.044 561.491 540.913 561.496L533.884 561.533C532.755 561.538 531.632 562.267 531.373 563.161ZM512.854 563.254L511.077 568.864C510.789 569.775 511.478 570.51 512.617 570.506L519.711 570.475C520.852 570.471 521.999 569.725 522.272 568.814L523.956 563.197C524.224 562.304 523.529 561.585 522.402 561.592L515.4 561.629C514.277 561.635 513.137 562.362 512.854 563.254ZM571.549 550.401L570.286 555.829C570.081 556.71 570.831 557.42 571.961 557.414L579.002 557.375C580.134 557.368 581.207 556.647 581.398 555.765L582.57 550.332C582.757 549.468 582.001 548.774 580.884 548.782L573.933 548.826C572.816 548.833 571.75 549.537 571.549 550.401ZM553.235 550.518L551.822 555.937C551.592 556.815 552.319 557.525 553.446 557.518L560.46 557.479C561.588 557.472 562.678 556.753 562.891 555.873L564.214 550.448C564.424 549.585 563.692 548.894 562.578 548.9L555.653 548.945C554.543 548.952 553.46 549.656 553.235 550.518ZM534.99 550.633L533.428 556.043C533.175 556.921 533.878 557.628 535 557.622L541.989 557.583C543.112 557.576 544.217 556.858 544.457 555.979L545.929 550.564C546.163 549.702 545.454 549.011 544.345 549.018L537.446 549.063C536.337 549.071 535.238 549.774 534.99 550.633ZM516.814 550.75L515.104 556.15C514.826 557.025 515.507 557.732 516.625 557.726L523.587 557.686C524.707 557.68 525.828 556.962 526.091 556.086L527.712 550.68C527.97 549.821 527.283 549.13 526.178 549.138L519.305 549.183C518.2 549.19 517.086 549.89 516.814 550.75ZM574.364 538.298L573.148 543.525C572.951 544.373 573.69 545.055 574.8 545.048L581.711 544.999C582.822 544.992 583.872 544.295 584.055 543.447L585.184 538.214C585.363 537.381 584.619 536.716 583.522 536.723L576.698 536.776C575.601 536.787 574.558 537.467 574.364 538.298ZM556.385 538.435L555.025 543.653C554.804 544.499 555.521 545.181 556.626 545.173L563.512 545.126C564.619 545.118 565.684 544.423 565.891 543.577L567.166 538.353C567.368 537.522 566.646 536.857 565.553 536.865L558.755 536.917C557.662 536.926 556.601 537.606 556.385 538.435ZM538.474 538.572L536.97 543.781C536.726 544.626 537.42 545.307 538.521 545.299L545.381 545.252C546.484 545.244 547.565 544.551 547.795 543.705L549.214 538.49C549.44 537.661 548.739 536.996 547.649 537.004L540.876 537.056C539.787 537.065 538.712 537.742 538.474 538.572ZM520.627 538.708L518.98 543.909C518.712 544.753 519.385 545.432 520.481 545.424L527.316 545.377C528.414 545.369 529.512 544.678 529.765 543.833L531.326 538.627C531.574 537.798 530.896 537.135 529.811 537.144L523.063 537.197C521.98 537.203 520.889 537.88 520.627 538.708Z" fill="#FF9E68"/>
</g>
</g>
<g clip-path="url(#clip5_1919_546)">
<mask id="mask5_1919_546" style="mask-type:luminance" maskUnits="userSpaceOnUse" x="487" y="237" width="171" height="154">
<path d="M487.532 237.845H657.2V390.25H487.532V237.845Z" fill="white"/>
</mask>
<g mask="url(#mask5_1919_546)">
<path d="M563.324 314.048H638.318C638.318 355.411 604.464 389.448 563.324 389.448C522.184 389.448 488.33 355.411 488.33 314.048C488.33 272.684 522.184 238.647 563.324 238.647C576.488 238.648 589.42 242.132 600.821 248.749L563.324 314.048Z" fill="white"/>
<path d="M563.324 390.25C548.333 390.279 533.671 385.829 521.2 377.465C508.728 369.101 499.01 357.199 493.279 343.272C487.548 329.345 486.062 314.019 489.009 299.241C491.957 284.462 499.206 270.898 509.835 260.269C521.586 248.369 536.925 240.717 553.458 238.507C569.991 236.297 586.786 239.655 601.22 248.055C601.403 248.161 601.537 248.336 601.592 248.542C601.647 248.747 601.618 248.966 601.512 249.151L564.707 313.245H638.318C638.53 313.245 638.732 313.33 638.882 313.481C639.032 313.631 639.116 313.835 639.116 314.047C639.022 334.228 631.006 353.556 616.813 367.826C602.619 382.096 583.396 390.155 563.324 390.25ZM563.324 239.45C522.412 239.45 489.128 272.914 489.128 314.047C489.128 355.181 522.412 388.645 563.324 388.645C603.969 388.645 637.085 355.614 637.516 314.85H563.324C563.184 314.85 563.047 314.813 562.925 314.743C562.803 314.672 562.703 314.571 562.633 314.449C562.563 314.327 562.526 314.189 562.526 314.048C562.526 313.907 562.563 313.768 562.633 313.646L599.729 249.048C588.614 242.761 576.077 239.455 563.324 239.45Z" fill="#1C1C1E"/>
<path d="M647.045 265.929C640.389 254.347 630.823 244.729 619.304 238.036C619.213 237.984 619.113 237.949 619.009 237.936C618.905 237.922 618.8 237.929 618.698 237.956C618.597 237.983 618.502 238.03 618.419 238.095C618.336 238.159 618.266 238.239 618.213 238.33L580.717 303.629C580.646 303.751 580.61 303.889 580.61 304.03C580.61 304.17 580.646 304.309 580.717 304.431C580.787 304.553 580.887 304.654 581.009 304.724C581.13 304.795 581.268 304.832 581.408 304.832H656.402C656.614 304.832 656.816 304.747 656.966 304.597C657.116 304.446 657.2 304.242 657.2 304.03C657.195 290.654 653.693 277.514 647.045 265.929Z" fill="#1C1C1E"/>
</g>
</g>
<g clip-path="url(#clip6_1919_546)">
<mask id="mask6_1919_546" style="mask-type:luminance" maskUnits="userSpaceOnUse" x="10" y="250" width="512" height="405">
<path d="M10.0975 250.669H521.324V654.688H10.0975V250.669Z" fill="white"/>
</mask>
<g mask="url(#mask6_1919_546)">
<path d="M428.698 474.695C428.698 474.695 432.828 467.356 433.299 462.295C433.77 457.233 437.632 457.942 437.926 461.808C438.221 465.676 437.1 470.916 437.1 470.916" fill="#FF9E68"/>
<path d="M428.695 475.737C428.522 475.737 428.347 475.694 428.185 475.604C427.683 475.321 427.504 474.685 427.787 474.182C427.827 474.111 431.813 466.975 432.258 462.197C432.57 458.849 434.203 457.658 435.637 457.658H435.659C437.149 457.671 438.764 459.073 438.966 461.729C439.269 465.701 438.168 470.915 438.12 471.135C438.001 471.699 437.445 472.052 436.881 471.938C436.317 471.818 435.958 471.262 436.078 470.699C436.089 470.648 437.163 465.556 436.883 461.888C436.772 460.433 436.076 459.75 435.64 459.747C435.639 459.747 435.638 459.747 435.637 459.747C435.212 459.747 434.517 460.449 434.336 462.392C433.85 467.615 429.778 474.9 429.604 475.207C429.414 475.545 429.061 475.737 428.695 475.737Z" fill="#1C1C1E"/>
<path d="M474.316 466.415C465.328 466.405 452.977 472.123 452.977 472.123C452.977 472.123 457.383 465.321 469.466 459.832C474.251 457.659 472.498 454.056 467.325 455.713C459.265 458.295 449.935 466.432 448.852 467.901C448.852 467.901 453.982 458.484 461.685 452.222C464.832 449.664 463.438 445.578 458.489 449.365C446.717 458.372 435.448 471.846 408.675 489.128C408.046 489.534 407.216 490.055 406.221 490.667L424.545 508.249C428.402 503.818 430.535 501.175 430.574 501.146C437.035 494.59 450.348 480.641 470.351 481.681C475.541 482.414 476.345 478.733 472.48 477.623C464.992 475.474 456.658 477.179 456.658 477.179C456.658 477.179 461.051 472.336 474.59 471.137C479.237 470.726 479.218 466.42 474.316 466.415Z" fill="#FF9E68"/>
<path d="M424.546 509.294C424.277 509.294 424.018 509.19 423.824 509.004L405.499 491.422C405.266 491.198 405.15 490.878 405.184 490.557C405.219 490.237 405.399 489.949 405.675 489.78C406.662 489.173 407.484 488.656 408.11 488.253C426.081 476.652 437.058 466.757 445.879 458.806C450.228 454.886 453.984 451.5 457.857 448.538C461.733 445.571 463.449 447.136 463.883 447.685C464.988 449.085 464.313 451.435 462.345 453.033C458.967 455.78 456.077 459.174 453.924 462.073C457.652 459.261 462.553 456.149 467.008 454.722C470.466 453.613 472.588 454.607 473.157 456.081C473.646 457.347 473.085 459.338 469.898 460.785C463.458 463.71 459.239 467.034 456.752 469.425C461.209 467.713 468.387 465.372 474.297 465.372H474.319C477.51 465.376 479.008 466.976 479.078 468.561C479.144 470.109 477.799 471.902 474.683 472.179C467.996 472.771 463.608 474.279 460.932 475.596C464.106 475.373 468.542 475.408 472.771 476.622C475.321 477.353 476.177 479.026 475.892 480.36C475.591 481.775 473.918 483.238 470.206 482.716C451.145 481.741 438.014 495.079 431.7 501.493L431.335 501.863C431.292 501.914 431.194 502.032 431.044 502.214C430.304 503.108 428.337 505.484 425.333 508.935C425.145 509.151 424.878 509.28 424.593 509.293C424.577 509.293 424.56 509.294 424.546 509.294ZM407.915 490.847L424.476 506.738C427.059 503.754 428.76 501.699 429.434 500.884C429.717 500.543 429.805 500.437 429.869 500.376L430.211 500.03C436.738 493.397 450.333 479.593 470.405 480.64C472.819 480.976 473.771 480.288 473.849 479.925C473.915 479.613 473.436 478.985 472.194 478.628C465.033 476.572 456.95 478.186 456.867 478.202C456.427 478.295 455.975 478.088 455.752 477.697C455.528 477.305 455.583 476.813 455.885 476.479C456.076 476.269 460.711 471.32 474.498 470.099C476.254 469.944 477.012 469.159 476.991 468.651C476.966 468.074 476.019 467.461 474.316 467.459C474.31 467.459 474.301 467.459 474.295 467.459C465.638 467.459 453.536 473.015 453.415 473.07C452.996 473.265 452.493 473.16 452.188 472.807C451.883 472.457 451.848 471.946 452.1 471.556C452.287 471.268 456.813 464.433 469.033 458.882C470.817 458.072 471.329 457.146 471.207 456.83C471.056 456.438 469.857 456 467.643 456.707C459.765 459.231 450.646 467.228 449.691 468.52C449.365 468.96 448.753 469.075 448.29 468.78C447.828 468.485 447.671 467.882 447.934 467.4C448.147 467.009 453.253 457.73 461.027 451.412C462.264 450.407 462.479 449.274 462.242 448.976C462.09 448.781 461.066 448.708 459.123 450.194C455.317 453.106 451.591 456.465 447.276 460.355C438.399 468.356 427.353 478.313 409.24 490.005C408.867 490.248 408.422 490.529 407.915 490.847Z" fill="#1C1C1E"/>
<path d="M517.443 555.484C509.205 551.21 508.825 543.398 502.912 538.871C502.912 538.871 508.389 540.466 512.782 540.845C516.396 541.156 517.886 537.567 512.48 536.257C502.957 533.95 500.297 530.883 485.34 525.393C473.868 521.182 456.349 524.402 456.349 524.402C456.349 524.402 453.447 524.935 451.82 525.284C445.004 526.75 438.308 528.031 431.728 528.961L436.614 556.248C443.165 553.079 449.79 549.405 456.478 545.18L456.477 545.244C456.477 545.244 457.16 544.763 458.228 544.051C459.084 543.499 459.938 542.965 460.796 542.395C460.826 542.375 460.855 542.354 460.884 542.334C463.667 540.589 467.195 538.561 469.723 537.752C476.368 535.627 481.031 549.267 484.018 557.063C487.003 564.859 491.273 561.032 490.973 557.605C490.672 554.178 490.562 555.028 488.719 547.133C496.175 553.387 503.563 558.482 514.029 560.803C520.557 562.247 522.432 557.913 517.443 555.484Z" fill="#FF9E68"/>
<path d="M488.107 562.672C486.724 562.672 484.704 561.775 483.041 557.433L482.455 555.892C479.787 548.847 475.323 537.053 470.038 538.742C468.079 539.37 465.104 540.916 461.436 543.215C460.795 543.644 460.22 544.012 459.645 544.378L458.792 544.925C457.755 545.617 457.081 546.091 457.075 546.095C456.966 546.171 456.847 546.224 456.724 546.254C450.247 550.331 443.636 554.008 437.066 557.186C436.771 557.327 436.427 557.322 436.137 557.176C435.846 557.027 435.64 556.751 435.584 556.43L430.698 529.143C430.648 528.863 430.714 528.577 430.881 528.347C431.047 528.117 431.298 527.965 431.58 527.925C437.498 527.089 443.859 525.924 451.598 524.262C453.222 523.913 456.039 523.395 456.158 523.373C456.884 523.239 474.09 520.151 485.697 524.41C492.573 526.934 496.916 528.973 500.407 530.61C504.613 532.585 507.653 534.011 512.724 535.24C516.259 536.096 517.269 537.924 517.038 539.349C516.766 541.009 514.947 542.08 512.69 541.882C510.578 541.7 508.249 541.251 506.362 540.823C507.544 542.29 508.491 543.879 509.42 545.437C511.416 548.785 513.48 552.247 517.911 554.55C521.086 556.1 521.647 558.27 521.163 559.659C520.596 561.282 518.327 562.821 513.8 561.816C504.478 559.75 497.537 555.571 490.453 549.903C490.738 551.066 490.96 551.929 491.137 552.615C491.68 554.732 491.811 555.235 492.009 557.51C492.215 559.858 490.792 562.137 488.837 562.587C488.624 562.637 488.378 562.672 488.107 562.672ZM471.121 536.478C477.337 536.478 481.544 547.59 484.408 555.155L484.991 556.688C486.197 559.835 487.524 560.754 488.37 560.555C489.283 560.345 490.042 558.954 489.931 557.694C489.746 555.59 489.65 555.215 489.117 553.136C488.811 551.949 488.37 550.231 487.701 547.367C487.599 546.93 487.788 546.476 488.171 546.24C488.553 546.005 489.045 546.042 489.388 546.33C497.109 552.806 504.293 557.572 514.254 559.78C517.403 560.476 518.954 559.655 519.192 558.972C519.404 558.364 518.804 557.308 516.986 556.422C516.977 556.418 516.969 556.414 516.962 556.41C511.995 553.833 509.775 550.109 507.629 546.508C506.1 543.943 504.654 541.519 502.276 539.698C501.877 539.394 501.753 538.847 501.98 538.398C502.207 537.95 502.722 537.727 503.203 537.868C503.257 537.883 508.635 539.438 512.872 539.804C514.143 539.914 514.914 539.415 514.98 539.014C515.046 538.612 514.358 537.784 512.235 537.27C506.959 535.991 503.678 534.452 499.523 532.501C496.069 530.881 491.77 528.863 484.98 526.371C473.903 522.305 456.71 525.395 456.537 525.427C456.534 525.427 453.654 525.956 452.039 526.303C444.714 527.878 438.612 529.008 432.946 529.839L437.398 554.703C443.593 551.649 449.817 548.152 455.92 544.297C456.001 544.245 456.088 544.206 456.177 544.179C456.479 543.97 456.992 543.618 457.649 543.18L458.524 542.619C459.087 542.259 459.651 541.899 460.217 541.524C460.225 541.518 460.321 541.453 460.329 541.447C464.197 539.022 467.251 537.444 469.403 536.754C469.992 536.566 470.564 536.478 471.121 536.478Z" fill="#1C1C1E"/>
<path d="M447.462 526.193C395.079 536.874 345.638 534.61 305.935 439.517L235.088 502.311C257.402 538.907 347.785 612.034 454.29 546.517C445.019 543.344 446.431 531.237 447.462 526.193Z" fill="white"/>
<path d="M367.443 573.905C355.669 573.905 343.873 572.489 332.07 569.653C279.11 556.926 244.891 520.393 234.197 502.855C233.934 502.424 234.017 501.865 234.395 501.53L305.243 438.737C305.494 438.514 305.837 438.425 306.169 438.501C306.496 438.576 306.769 438.806 306.898 439.115C347.613 536.632 398.558 535.099 447.253 525.172C447.599 525.105 447.953 525.209 448.2 525.457C448.447 525.705 448.555 526.061 448.484 526.404C447.505 531.187 446.143 542.628 454.627 545.53C455.009 545.661 455.282 546.001 455.327 546.402C455.372 546.802 455.18 547.195 454.836 547.406C426.163 565.044 396.887 573.905 367.443 573.905ZM236.439 502.508C247.472 520.06 281.001 555.233 332.558 567.623C372.737 577.279 412.923 570.228 452.037 546.667C444.837 542.746 445.26 532.999 446.157 527.521C423.069 532.127 396.329 535.027 371.503 523.466C345.338 511.279 323.751 484.383 305.537 441.263L236.439 502.508Z" fill="#1C1C1E"/>
<path d="M191.13 620.524C249.069 642.681 302.551 654.458 334.058 653.602C336.505 537.962 315.906 357.684 222.835 375.615C125.958 414.622 126.753 573.3 126.147 591.616C145.43 601.591 167.42 611.457 191.13 620.524Z" fill="white"/>
<path d="M151.988 451.591C138.397 505.549 155.586 525.933 140.395 550.715C137.22 555.895 137.78 568.435 141.995 579.092C146.525 590.55 155.586 598.544 173.709 613.199C144.927 600.676 126.146 591.616 126.146 591.616C126.146 591.616 126.003 507.947 151.988 451.591Z" fill="#FF9E68"/>
<path d="M226.742 386.706C209.153 385.107 185.167 400.295 162.514 430.405C165.153 425.13 168.599 419.823 172.43 414.789C184.463 398.974 200.286 385.851 206.754 384.841C215.282 383.509 226.742 386.706 226.742 386.706Z" fill="#FF9E68"/>
<path d="M166.843 463.598C165.174 463.598 163.491 463.442 161.813 463.127C157.172 462.256 152.854 460.191 149.325 457.158C148.889 456.782 148.838 456.122 149.215 455.686C149.591 455.249 150.25 455.201 150.687 455.575C153.936 458.37 157.917 460.272 162.198 461.076C168.493 462.259 174.848 461.012 180.096 457.568C185.334 454.132 188.841 448.917 189.975 442.886C192.196 431.062 184.454 419.352 172.347 416.226C171.789 416.082 171.454 415.512 171.598 414.955C171.742 414.397 172.311 414.061 172.869 414.206C186.035 417.605 194.45 430.373 192.026 443.272C190.787 449.867 186.958 455.563 181.241 459.314C176.941 462.134 171.96 463.598 166.843 463.598Z" fill="#FF9E68"/>
<path d="M217.148 377.914C229.865 370.379 240.524 375.492 268.566 399.319C269 392.058 267.91 385.733 263.243 381.327C258.576 376.919 238.577 362.927 217.148 377.914Z" fill="#FF9E68"/>
<path d="M210.587 628.7C210.561 628.7 210.533 628.699 210.507 628.697C209.932 628.654 209.502 628.152 209.545 627.577C210.088 620.512 207.847 613.66 203.235 608.281C198.622 602.902 192.191 599.64 185.125 599.098C176.283 598.418 167.736 602.173 162.241 609.142C161.885 609.595 161.229 609.673 160.775 609.315C160.322 608.958 160.245 608.302 160.602 607.85C166.528 600.334 175.766 596.286 185.284 597.018C192.906 597.603 199.843 601.121 204.819 606.923C209.795 612.724 212.211 620.117 211.626 627.737C211.585 628.284 211.128 628.7 210.587 628.7Z" fill="#FF9E68"/>
<path d="M315.487 465.979C325.88 490.761 334.276 515.141 339.873 525.933C348.337 542.256 359.461 549.116 373.052 557.509C386.644 565.903 403.433 553.512 436.613 556.246C397.838 571.498 368.655 577.493 330.678 569.099C329.879 550.314 322.283 484.365 315.487 465.979Z" fill="#1C1C1E"/>
<path d="M330.805 654.688C297.854 654.688 244.707 642.13 190.756 621.498C167.558 612.628 145.659 602.885 125.665 592.542C125.308 592.357 125.087 591.982 125.102 591.58C125.127 590.789 125.151 589.735 125.18 588.439C127.726 474.801 162.268 398.874 222.444 374.645C222.506 374.62 222.571 374.601 222.637 374.589C245.56 370.174 265.537 377.415 282.026 396.107C296.288 412.273 307.992 437.06 316.813 469.779C335.372 538.618 335.785 621.279 335.101 653.624C335.089 654.18 334.643 654.63 334.085 654.646C333.016 654.675 331.921 654.688 330.805 654.688ZM191.502 619.549C246.476 640.572 300.558 653.165 333.033 652.581C333.686 619.653 333.099 538.206 314.797 470.323C306.06 437.917 294.507 413.411 280.46 397.488C264.515 379.415 245.23 372.393 223.129 376.62C143.125 408.912 128.729 523.211 127.266 588.486C127.244 589.459 127.226 590.296 127.206 590.989C146.975 601.185 168.603 610.792 191.502 619.549Z" fill="#1C1C1E"/>
<path d="M154.618 470.606C154.592 497.052 165.724 535.651 184.536 566.12C193.615 580.824 204.482 593.635 216.746 602.273C297.522 659.159 417.292 518.071 430.572 501.144C431.351 500.354 432.232 499.454 433.21 498.488C429.56 489.213 422.34 485.287 416.877 483.62C414.31 485.411 411.588 487.245 408.673 489.126C397.819 496.132 329.811 535.88 300.657 532.61C282.368 530.558 272.846 506.187 262.719 470.773" fill="white"/>
<path d="M281.374 612.377C267.279 612.377 255.812 600.912 255.812 586.819C255.812 572.727 267.279 561.262 281.374 561.262C295.47 561.262 306.936 572.727 306.936 586.819C306.936 600.912 295.47 612.377 281.374 612.377ZM281.374 563.349C268.431 563.349 257.9 573.878 257.9 586.819C257.9 599.761 268.431 610.29 281.374 610.29C294.318 610.29 304.849 599.761 304.849 586.819C304.849 573.878 294.319 563.349 281.374 563.349Z" fill="#FF9E68"/>
<path d="M259.084 442.588C257.263 442.588 255.387 442.351 253.489 441.872C247.352 440.323 241.7 436.413 237.578 430.864C233.455 425.316 231.343 418.778 231.632 412.454C231.923 406.051 234.633 400.632 239.261 397.194C243.89 393.756 249.859 392.727 256.077 394.297C262.214 395.847 267.866 399.756 271.988 405.305C276.111 410.853 278.223 417.393 277.934 423.715C277.643 430.118 274.933 435.537 270.305 438.975C267.09 441.363 263.227 442.588 259.084 442.588ZM250.491 395.67C246.789 395.67 243.353 396.756 240.506 398.87C236.391 401.927 233.979 406.785 233.717 412.549C233.451 418.394 235.418 424.456 239.255 429.619C243.092 434.782 248.328 438.416 254.002 439.848C259.595 441.261 264.945 440.355 269.061 437.299C273.177 434.242 275.588 429.384 275.85 423.62C276.116 417.776 274.149 411.713 270.312 406.549C266.475 401.385 261.239 397.753 255.565 396.321C253.841 395.885 252.14 395.67 250.491 395.67Z" fill="#FF9E68"/>
<path d="M516.689 556.325C516.612 556.325 516.535 556.317 516.457 556.299C507.603 554.295 498.184 547.18 497.787 546.877C497.329 546.529 497.24 545.874 497.589 545.415C497.939 544.956 498.593 544.866 499.051 545.217C499.145 545.288 508.511 552.362 516.917 554.264C517.48 554.391 517.833 554.95 517.705 555.512C517.596 555.997 517.166 556.325 516.689 556.325Z" fill="#1C1C1E"/>
<path d="M500.924 542.55C500.924 542.55 506.453 545.343 510.158 548.696L500.924 542.55Z" fill="#FF9E68"/>
<path d="M510.158 549.74C509.908 549.74 509.658 549.651 509.457 549.47C505.903 546.252 500.506 543.508 500.452 543.481C499.938 543.221 499.732 542.593 499.992 542.079C500.252 541.565 500.882 541.359 501.395 541.618C501.625 541.735 507.092 544.513 510.858 547.923C511.286 548.31 511.318 548.97 510.931 549.398C510.725 549.624 510.443 549.74 510.158 549.74Z" fill="#1C1C1E"/>
<path d="M361.259 571.343C361 571.343 360.742 571.248 360.54 571.056C355.563 566.325 352.822 559.939 352.822 553.074C352.822 539.394 363.953 528.265 377.634 528.265C385.429 528.265 392.618 531.821 397.358 538.019C397.708 538.477 397.62 539.131 397.162 539.482C396.704 539.832 396.049 539.745 395.7 539.287C391.357 533.608 384.773 530.352 377.633 530.352C365.102 530.352 354.908 540.545 354.908 553.074C354.908 559.361 357.419 565.21 361.977 569.544C362.394 569.941 362.411 570.601 362.014 571.02C361.81 571.235 361.535 571.343 361.259 571.343Z" fill="#FF9E68"/>
<path d="M277.111 514.341C281.05 551.571 288.049 544.676 297.683 539.732C305.659 535.64 305.3 543.347 312.144 543.428C316.97 543.484 321.432 537.488 325.74 535.157C330.049 532.825 332.707 538.306 342.52 530.368C346.89 526.832 353.961 524.837 357.671 524.445C361.381 524.053 366.453 520.499 370.328 517.111C376.951 511.32 411.98 487.787 411.98 487.787C411.98 487.787 362.237 516.627 339.42 523.864C326.049 528.104 293.901 544.719 277.111 514.341Z" fill="#FF9E68"/>
<path d="M181.516 562.447C181.205 562.447 180.897 562.31 180.692 562.044C180.338 561.589 180.419 560.934 180.874 560.58C186.877 555.906 190.321 548.865 190.321 541.266C190.321 527.773 179.343 516.797 165.85 516.797C164.736 516.797 163.615 516.873 162.518 517.022C161.948 517.101 161.42 516.699 161.342 516.129C161.265 515.558 161.666 515.032 162.236 514.954C163.427 514.793 164.643 514.71 165.85 514.71C180.494 514.71 192.408 526.623 192.408 541.266C192.408 549.514 188.671 557.153 182.157 562.227C181.965 562.376 181.74 562.447 181.516 562.447Z" fill="#FF9E68"/>
<path d="M280.31 406.966C276.909 406.966 270.75 402.06 267.986 399.702C267.742 399.493 267.607 399.183 267.621 398.863C267.848 393.605 266.425 388.223 263.268 382.408C263.045 381.996 263.123 381.485 263.46 381.16C263.797 380.833 264.309 380.772 264.715 381.009C265.214 381.303 276.979 388.321 281.734 400.683C282.494 402.66 283.315 405.421 281.668 406.585C281.297 406.848 280.838 406.966 280.31 406.966ZM269.724 398.438C274.897 402.785 279.628 405.413 280.463 404.882C280.463 404.881 280.878 404.277 279.785 401.434C276.796 393.659 270.68 388.007 266.897 385.081C268.901 389.692 269.831 394.095 269.724 398.438Z" fill="#1C1C1E"/>
<path d="M267.939 402.852L268.054 406.454C268.054 406.454 270.583 407.837 272.305 406.884L274.849 403.852L269.469 399.708L267.939 402.852Z" fill="#1C1C1E"/>
<path d="M270.87 408.264C269.254 408.264 267.774 407.489 267.552 407.369C267.227 407.191 267.021 406.855 267.01 406.486L266.895 402.884C266.889 402.715 266.924 402.547 266.999 402.395L268.53 399.251C268.667 398.968 268.924 398.764 269.23 398.692C269.533 398.62 269.856 398.69 270.106 398.881L275.486 403.024C275.711 403.198 275.855 403.456 275.887 403.739C275.917 404.022 275.831 404.305 275.649 404.522L273.105 407.553C273.022 407.651 272.922 407.734 272.81 407.795C272.191 408.139 271.519 408.264 270.87 408.264ZM269.076 405.774C269.782 406.054 270.887 406.352 271.649 406.041L273.349 404.013L269.847 401.316L268.991 403.076L269.076 405.774Z" fill="#1C1C1E"/>
<path d="M306.943 466.18C306.943 466.18 289.832 463.468 283.476 440.501C277.852 420.175 273.799 408.452 269.626 401.918C283.772 410.804 289.372 423.858 293.244 433.856C297.115 443.857 297.81 458.322 306.943 466.18Z" fill="#1C1C1E"/>
<path d="M280.336 453.977C280.336 453.977 265.456 453.937 267.948 430.238C269.488 415.606 271.701 408.513 269.634 401.041C278.222 412.086 277.939 421.365 277.797 429.312C277.603 440.035 277.803 444.149 280.336 453.977Z" fill="#1C1C1E"/>
<path d="M443.48 553.709C443.337 553.709 443.192 553.678 443.053 553.616C431.94 548.612 435.264 534.851 435.299 534.712C435.439 534.154 436 533.814 436.565 533.956C437.123 534.095 437.462 534.662 437.324 535.22C437.2 535.717 434.399 547.43 443.91 551.712C444.436 551.949 444.671 552.567 444.434 553.092C444.259 553.48 443.879 553.709 443.48 553.709Z" fill="#1C1C1E"/>
<path d="M425.008 507.758C424.592 507.758 424.199 507.507 424.036 507.096C420.977 499.333 412.483 494.416 412.398 494.367C411.898 494.081 411.723 493.443 412.009 492.943C412.294 492.443 412.93 492.269 413.433 492.554C413.807 492.768 422.653 497.891 425.98 506.331C426.19 506.867 425.927 507.474 425.391 507.685C425.265 507.735 425.135 507.758 425.008 507.758Z" fill="#1C1C1E"/>
<path d="M300.324 485.975C302.095 485.752 303.207 483.001 302.807 479.83C302.407 476.66 300.646 474.271 298.875 474.495C297.102 474.718 295.991 477.469 296.39 480.64C296.79 483.81 298.551 486.198 300.324 485.975Z" fill="#FF9E68"/>
<path d="M300.111 487.035C297.868 487.035 295.824 484.381 295.368 480.773C294.888 476.973 296.378 473.762 298.757 473.461C301.15 473.167 303.377 475.902 303.856 479.701C304.072 481.409 303.895 483.076 303.361 484.4C302.743 485.927 301.716 486.854 300.468 487.012C300.348 487.028 300.229 487.035 300.111 487.035ZM299.119 475.526C299.085 475.526 299.051 475.528 299.017 475.532C297.992 475.661 297.098 477.819 297.437 480.511C297.778 483.205 299.179 485.061 300.205 484.941C300.662 484.884 301.106 484.401 301.424 483.618C301.821 482.635 301.952 481.302 301.783 479.963C301.456 477.358 300.134 475.526 299.119 475.526Z" fill="#1C1C1E"/>
<path d="M305.343 520.508C307.124 520.378 308.379 517.689 308.147 514.502C307.914 511.315 306.281 508.838 304.501 508.967C302.719 509.097 301.464 511.786 301.697 514.973C301.93 518.159 303.562 520.638 305.343 520.508Z" fill="#FF9E68"/>
<path d="M305.222 521.563C304.048 521.563 302.941 520.86 302.088 519.564C301.302 518.372 300.801 516.771 300.676 515.055C300.396 511.235 302.051 508.107 304.443 507.932C306.864 507.743 308.928 510.613 309.207 514.431C309.486 518.251 307.83 521.38 305.437 521.554C305.368 521.561 305.294 521.563 305.222 521.563ZM304.655 510.012C304.635 510.012 304.616 510.013 304.595 510.014C303.566 510.089 302.561 512.195 302.757 514.902C302.856 516.249 303.246 517.529 303.83 518.415C304.294 519.122 304.842 519.514 305.286 519.472C306.317 519.397 307.323 517.291 307.126 514.584C306.932 511.929 305.675 510.012 304.655 510.012Z" fill="#1C1C1E"/>
<path d="M315.734 627.087C317.515 626.958 318.771 624.268 318.538 621.082C318.305 617.895 316.673 615.417 314.892 615.547C313.11 615.677 311.855 618.365 312.088 621.553C312.321 624.739 313.953 627.218 315.734 627.087Z" fill="#FF9E68"/>
<path d="M315.625 628.147C313.321 628.147 311.341 625.348 311.07 621.64C310.79 617.819 312.446 614.691 314.839 614.516C316.062 614.428 317.285 615.13 318.19 616.507C318.976 617.699 319.477 619.3 319.602 621.016C319.882 624.836 318.226 627.964 315.835 628.139C315.764 628.143 315.694 628.147 315.625 628.147ZM315.047 616.596C315.027 616.596 315.009 616.596 314.99 616.598C313.959 616.673 312.954 618.78 313.15 621.487C313.348 624.193 314.609 626.118 315.68 626.056C316.71 625.981 317.716 623.875 317.519 621.168C317.42 619.82 317.03 618.541 316.446 617.655C316.001 616.978 315.493 616.596 315.047 616.596Z" fill="#1C1C1E"/>
<path d="M360.676 569.595C360.676 569.595 337.526 584.959 318.115 587.152C298.705 589.347 303.903 596.601 296.299 599.609C288.695 602.617 274.121 601.347 262.563 596.453C251.005 591.56 236.191 592.985 232.737 596.679C229.284 600.372 229.129 608.819 241.932 613.066C254.734 617.313 277.279 615.599 303.895 605.072C330.51 594.546 348.355 579.641 360.676 569.595Z" fill="#1C1C1E"/>
<path d="M260.093 616.135C247.789 616.135 236.225 613.606 225.497 608.547C209.637 601.068 195.373 587.238 183.102 567.438C174.211 553.092 166.693 535.955 161.361 517.879C159.752 512.423 158.359 506.931 157.22 501.555C154.827 490.266 153.567 479.564 153.576 470.606C153.245 457.268 157.215 445.884 165.063 437.711C172.798 429.653 183.91 425.106 196.349 424.906H196.366C196.934 424.906 197.4 425.362 197.409 425.933C197.419 426.509 196.959 426.984 196.382 426.994C184.505 427.185 173.917 431.503 166.57 439.156C159.117 446.919 155.346 457.785 155.664 470.581C155.656 479.422 156.901 489.974 159.263 501.123C160.391 506.447 161.771 511.885 163.364 517.289C168.645 535.189 176.084 552.15 184.876 566.339C196.932 585.791 210.899 599.356 226.39 606.66C262.047 623.471 306.046 611.931 357.167 572.356C393.621 544.135 421.674 510.555 429.403 500.934C429.715 500.546 429.804 500.434 429.874 500.37L430.175 500.065C430.73 499.5 431.334 498.888 431.984 498.239C428.518 490.058 422.081 486.402 417.055 484.77C414.446 486.583 411.885 488.298 409.241 490.004C408.533 490.461 338.485 533.846 304.35 533.85C303.023 533.85 301.756 533.784 300.544 533.648C279.729 531.314 269.005 503.533 260.518 473.859C260.361 473.305 260.681 472.728 261.235 472.569C261.796 472.41 262.368 472.732 262.527 473.286C273.858 512.911 284.941 529.798 300.777 531.575C329.077 534.749 396.09 496.009 408.111 488.251C410.875 486.467 413.549 484.672 416.284 482.766C416.547 482.583 416.879 482.53 417.186 482.624C422.839 484.349 430.379 488.435 434.185 498.107C434.338 498.496 434.245 498.938 433.947 499.232C433.113 500.056 432.351 500.83 431.662 501.529L431.34 501.856C431.293 501.912 431.189 502.043 431.03 502.241C423.265 511.906 395.079 545.645 358.444 574.006C335.682 591.627 313.874 603.889 293.621 610.454C281.934 614.242 270.736 616.135 260.093 616.135Z" fill="#1C1C1E"/>
<path d="M260.121 471.775C260.121 471.775 258.109 460.731 261.12 459.584C265.317 457.985 274.113 461.984 271.714 477.971C269.315 493.959 271.913 491.827 274.579 511.013C265.784 497.156 262.786 482.7 260.121 471.775Z" fill="#1C1C1E"/>
<path d="M240.867 535.104C226.772 535.104 215.305 523.638 215.305 509.545C215.305 495.453 226.772 483.988 240.867 483.988C254.963 483.988 266.429 495.453 266.429 509.545C266.429 523.638 254.963 535.104 240.867 535.104ZM240.867 486.075C227.924 486.075 217.393 496.604 217.393 509.545C217.393 522.486 227.924 533.016 240.867 533.016C253.81 533.016 264.341 522.486 264.341 509.545C264.341 496.604 253.81 486.075 240.867 486.075Z" fill="#FF9E68"/>
<path d="M231.071 437.539C225.196 433.103 218.722 429.948 212.102 428.06L231.071 437.539Z" fill="white"/>
<path d="M231.071 438.582C230.852 438.582 230.631 438.513 230.443 438.371C224.802 434.11 218.536 430.979 211.817 429.063C211.263 428.905 210.941 428.327 211.099 427.773C211.258 427.218 211.839 426.898 212.389 427.056C219.357 429.043 225.852 432.29 231.7 436.706C232.159 437.054 232.251 437.708 231.903 438.169C231.701 438.439 231.388 438.582 231.071 438.582Z" fill="#1C1C1E"/>
<path d="M322.241 320.316C324.929 312.566 324.057 305.226 320.292 303.92C316.527 302.615 311.296 307.839 308.608 315.588C305.92 323.337 306.792 330.677 310.557 331.983C314.321 333.288 319.553 328.065 322.241 320.316Z" fill="white"/>
<path d="M311.765 333.231C311.23 333.231 310.71 333.145 310.209 332.972C307.99 332.202 306.537 329.843 306.12 326.328C305.734 323.078 306.265 319.143 307.617 315.249C310.536 306.829 316.252 301.418 320.628 302.938C325.004 304.455 326.142 312.24 323.221 320.66C321.87 324.554 319.85 327.972 317.535 330.285C315.595 332.222 313.598 333.231 311.765 333.231ZM319.082 304.77C316.221 304.77 312.035 308.877 309.586 315.933C308.338 319.535 307.842 323.138 308.192 326.081C308.506 328.721 309.489 330.513 310.891 330.999C312.296 331.482 314.176 330.687 316.057 328.808C318.155 326.714 319.997 323.578 321.248 319.976C323.954 312.173 322.757 305.886 319.942 304.909C319.674 304.816 319.385 304.77 319.082 304.77Z" fill="#1C1C1E"/>
<path d="M222.212 374.85C222.212 374.85 246.931 359.861 254.326 326.888C259.704 302.91 278.554 336.755 278.554 336.755L261.782 386.862C248.158 379.589 236.869 371.652 222.212 374.85Z" fill="#FF9E68"/>
<path d="M262.987 384.686C262.878 384.686 262.767 384.669 262.658 384.634C262.112 384.452 261.815 383.861 261.996 383.315L277.411 336.885C274.262 331.818 265.738 320.197 260.002 321.078C257.585 321.451 255.748 324.161 254.541 329.131C246.13 363.768 215.536 379.882 215.228 380.041C214.716 380.304 214.086 380.104 213.822 379.592C213.558 379.079 213.759 378.45 214.272 378.186C214.572 378.032 244.333 362.326 252.513 328.639C253.938 322.767 256.351 319.529 259.684 319.014C267.991 317.733 278.3 334.317 279.449 336.211C279.606 336.472 279.643 336.791 279.547 337.081L263.98 383.972C263.832 384.409 263.424 384.686 262.987 384.686Z" fill="#1C1C1E"/>
<path d="M268.817 343.474C270.316 345.173 274.014 349.769 284.841 351.667C296.741 353.754 300.279 335.721 305.261 332.199C310.032 331.68 313.056 328.406 310.737 323.693C306.361 314.804 309.908 312.105 311.98 305.61C319.935 280.667 273.696 254.809 252.901 287.73L248.53 321.091" fill="#FF9E68"/>
<path d="M286.767 352.885C286.092 352.885 285.393 352.824 284.66 352.696C273.844 350.799 269.885 346.278 268.194 344.347L268.034 344.164C267.653 343.732 267.694 343.072 268.126 342.69C268.559 342.31 269.217 342.35 269.6 342.782L269.765 342.971C271.311 344.736 274.93 348.87 285.021 350.639C292.304 351.917 296.175 344.83 299.59 338.576C301.331 335.388 302.835 332.635 304.659 331.346C304.804 331.244 304.972 331.18 305.148 331.16C307.484 330.907 309.27 329.947 310.05 328.529C310.708 327.333 310.621 325.821 309.799 324.153C306.205 316.848 307.729 313.278 309.493 309.146C310.002 307.951 310.53 306.716 310.984 305.291C314.8 293.326 305.453 281.781 294.248 276.561C282.508 271.092 264.927 270.853 253.906 288.092L249.565 321.224C249.491 321.795 248.967 322.189 248.395 322.123C247.823 322.048 247.42 321.524 247.496 320.952L251.868 287.591C251.888 287.441 251.939 287.297 252.02 287.17C263.757 268.588 282.579 268.82 295.132 274.668C307.165 280.273 317.159 292.81 312.977 305.924C312.491 307.443 311.945 308.725 311.416 309.964C309.725 313.923 308.504 316.785 311.676 323.23C313.11 326.142 312.58 328.265 311.883 329.533C310.807 331.49 308.552 332.816 305.669 333.198C304.303 334.306 302.904 336.869 301.425 339.575C298.153 345.561 294.151 352.885 286.767 352.885Z" fill="#1C1C1E"/>
<path d="M270.815 307.002C269.716 303.305 266.636 297.395 259.522 301.506C254.637 304.331 255.924 311.699 257.923 316.695C261.419 325.432 271.056 352.066 215.548 362.659C160.31 373.202 145.955 438.821 97.4865 437.069C59.5993 435.699 37.9956 424.449 23.3979 404.027C0.86829 372.508 9.53922 336.88 48.2186 332.081C65.1827 329.976 77.6311 330.484 102.017 304.505C115.375 290.273 144.813 292.737 163.58 294.913C191.164 298.11 194.433 289.441 217.947 272.53C240.733 256.143 258.722 248.548 285.106 252.945C333.282 260.973 330.754 289.94 312.384 295.562C293.336 301.392 282.932 287.695 276.745 306.054C274.296 313.32 271.715 310.5 270.815 307.002Z" fill="#1C1C1E"/>
<path d="M302.512 318.76C305.294 310.74 304.391 303.143 300.496 301.792C296.599 300.441 291.186 305.847 288.403 313.868C285.621 321.888 286.524 329.485 290.42 330.836C294.315 332.187 299.73 326.781 302.512 318.76Z" fill="white"/>
<path d="M291.672 332.09C291.123 332.09 290.588 332.002 290.073 331.824C287.791 331.033 286.297 328.601 285.866 324.977C285.467 321.619 286.016 317.552 287.413 313.528C288.808 309.502 290.895 305.97 293.288 303.579C295.871 301 298.548 300.015 300.833 300.808C305.341 302.372 306.509 310.408 303.494 319.104C302.098 323.129 300.01 326.662 297.618 329.052C295.617 331.049 293.559 332.09 291.672 332.09ZM299.248 302.634C297.926 302.634 296.344 303.479 294.764 305.056C292.59 307.228 290.68 310.479 289.384 314.212C288.09 317.945 287.577 321.68 287.939 324.732C288.265 327.478 289.293 329.344 290.757 329.852C292.225 330.359 294.185 329.531 296.141 327.576C298.315 325.404 300.225 322.153 301.521 318.421C304.329 310.325 303.077 303.798 300.147 302.781C299.864 302.682 299.564 302.634 299.248 302.634Z" fill="#1C1C1E"/>
<path d="M297.038 318.053C293.679 318.053 291.884 315.804 291.795 315.688C291.441 315.232 291.523 314.577 291.979 314.223C292.434 313.869 293.085 313.952 293.439 314.401C293.525 314.508 295.363 316.725 298.886 315.679C299.439 315.512 300.02 315.83 300.185 316.382C300.349 316.934 300.033 317.515 299.481 317.68C298.593 317.945 297.777 318.053 297.038 318.053Z" fill="#1C1C1E"/>
<path d="M298.071 319.262C298.63 318.064 298.272 316.714 297.271 316.248C296.271 315.781 295.007 316.375 294.447 317.573C293.889 318.772 294.247 320.121 295.248 320.588C296.249 321.054 297.513 320.461 298.071 319.262Z" fill="#1C1C1E"/>
<path d="M294.683 343.828C291.037 343.828 287.926 341.873 287.742 341.754C287.257 341.444 287.116 340.799 287.426 340.315C287.736 339.83 288.379 339.687 288.866 339.996C288.918 340.03 294.28 343.376 298.39 340.671C298.871 340.352 299.518 340.487 299.836 340.968C300.153 341.449 300.02 342.097 299.538 342.413C297.949 343.459 296.266 343.828 294.683 343.828Z" fill="#1C1C1E"/>
<path d="M101.484 305.171C101.484 305.171 85.4943 328.354 59.1098 331.018C30.0335 333.954 23.399 341.676 16.4691 351.269C34.0584 337.146 44.0143 339.042 63.1076 335.547C82.0298 332.083 96.1547 321.958 101.484 305.171Z" fill="#FF9E68"/>
<path d="M262.321 305.803C262.321 305.803 265.319 308.202 266.718 314.197L262.321 305.803Z" fill="#1C1C1E"/>
<path d="M266.717 315.239C266.243 315.239 265.814 314.914 265.701 314.433C264.415 308.917 261.692 306.636 261.665 306.614C261.22 306.249 261.151 305.594 261.512 305.147C261.876 304.7 262.526 304.63 262.974 304.988C263.107 305.095 266.27 307.683 267.734 313.959C267.866 314.52 267.516 315.082 266.956 315.212C266.874 315.231 266.795 315.239 266.717 315.239Z" fill="#1C1C1E"/>
<path d="M261.621 312.798C261.621 312.798 262.22 309.9 264.319 308.801L261.621 312.798Z" fill="#1C1C1E"/>
<path d="M261.622 313.84C261.551 313.84 261.478 313.833 261.407 313.818C260.844 313.701 260.482 313.151 260.599 312.587C260.628 312.449 261.329 309.191 263.836 307.877C264.345 307.61 264.978 307.807 265.245 308.316C265.514 308.827 265.315 309.458 264.805 309.725C263.18 310.577 262.649 312.988 262.644 313.012C262.538 313.503 262.105 313.84 261.622 313.84Z" fill="#1C1C1E"/>
<path d="M275.274 405.793C275.274 405.793 284.366 422.215 288.179 433.358C291.783 443.891 297.124 455.35 300.937 457.696C297.271 448.752 294.925 437.609 292.578 432.185C290.232 426.76 284.073 411.365 275.274 405.793Z" fill="#FF9E68"/>
<path d="M271.248 251.344C271.248 251.344 250.461 250.012 220.879 271.329C191.297 292.646 189.431 297.176 174.24 295.843C195.028 301.705 214.216 283.053 218.48 279.056C222.744 275.06 242.998 257.206 271.248 251.344Z" fill="#FF9E68"/>
<path d="M289.104 312.344C288.992 312.344 288.877 312.325 288.765 312.288L273.975 307.225C273.43 307.038 273.139 306.444 273.325 305.899C273.513 305.355 274.105 305.065 274.652 305.249L289.443 310.312C289.988 310.499 290.279 311.092 290.092 311.637C289.942 312.07 289.538 312.344 289.104 312.344Z" fill="#1C1C1E"/>
<path d="M303.893 315.805C303.332 315.805 302.868 315.357 302.851 314.791C302.834 314.215 303.288 313.734 303.864 313.718L308.395 313.584C308.93 313.562 309.453 314.019 309.469 314.596C309.486 315.172 309.032 315.654 308.456 315.67L303.925 315.804C303.914 315.805 303.904 315.805 303.893 315.805Z" fill="#1C1C1E"/>
<path d="M99.3875 438.147C98.7477 438.147 98.1026 438.135 97.4502 438.111C61.2644 436.802 38.1638 426.478 22.5495 404.633C10.3192 387.524 6.85057 368.576 13.269 353.947C18.8293 341.274 31.1964 333.141 48.0915 331.044C49.4005 330.881 50.6833 330.734 51.9463 330.589C67.067 328.857 79.0102 327.488 101.255 303.788C115.778 288.317 149.361 292.212 163.7 293.874C185.405 296.387 191.668 291.485 205.39 280.739C208.804 278.065 212.673 275.035 217.336 271.68C239.563 255.694 257.81 247.336 285.276 251.913C321.413 257.935 325.277 274.382 325.6 279.278C326.117 287.091 320.927 294.036 312.689 296.557C304.961 298.923 298.594 298.158 293.476 297.544C285.566 296.596 281.207 296.072 277.732 306.384C276.542 309.917 275.149 311.635 273.476 311.635C273.447 311.635 273.416 311.635 273.386 311.634C271.837 311.578 270.5 309.951 269.808 307.28C269.281 305.512 268.036 302.423 265.601 301.454C264.067 300.842 262.195 301.164 260.043 302.409C254.855 305.408 258.173 314.512 258.892 316.306C260.468 320.245 264.654 330.711 258.991 341.057C253.161 351.706 238.61 359.319 215.744 363.684C189.157 368.758 172.301 386.6 156 403.854C139.353 421.477 123.603 438.147 99.3875 438.147ZM139.675 294.273C125.951 294.273 110.993 296.468 102.779 305.218C80.0102 329.478 67.115 330.954 52.1843 332.665C50.9276 332.809 49.651 332.955 48.3483 333.117C32.212 335.117 20.4326 342.813 15.1802 354.786C9.06032 368.734 12.4496 386.915 24.2478 403.421C39.4488 424.687 62.0494 434.743 97.5254 436.026C121.89 436.919 137.73 420.156 154.483 402.422C171.012 384.926 188.105 366.836 215.353 361.634C237.578 357.393 251.644 350.132 257.161 340.056C261.762 331.652 259.468 323.364 256.954 317.083C254.551 311.077 253.827 303.594 258.999 300.603C261.736 299.021 264.217 298.658 266.375 299.516C269.636 300.814 271.182 304.577 271.816 306.704C271.819 306.717 271.823 306.728 271.827 306.742C272.331 308.703 273.142 309.539 273.463 309.55C273.488 309.55 274.478 309.512 275.755 305.719C279.772 293.802 285.927 294.54 293.726 295.474C298.648 296.064 304.771 296.799 312.078 294.563C319.372 292.33 323.97 286.244 323.519 279.416C322.905 270.122 312.446 258.557 284.935 253.972C258.177 249.512 240.336 257.712 218.557 273.376C213.926 276.705 210.076 279.721 206.678 282.382C192.922 293.156 186.017 298.563 163.46 295.947C157.781 295.289 149.013 294.273 139.675 294.273Z" fill="#1C1C1E"/>
<path d="M202.755 386.442C202.755 386.442 222.607 374.855 245.051 401.981C266.742 428.197 268.564 399.319 268.564 399.319C234.869 363.393 216.91 374.085 202.755 386.442Z" fill="white"/>
<path d="M260.062 414.035C255.767 414.035 250.564 410.282 244.248 402.647C222.679 376.579 204.061 386.893 203.28 387.345C202.816 387.614 202.221 387.485 201.908 387.048C201.595 386.612 201.665 386.009 202.07 385.656C216.73 372.858 235.226 362.248 269.328 398.606C269.524 398.816 269.626 399.099 269.609 399.386C269.577 399.883 268.765 411.571 262.214 413.699C261.523 413.922 260.806 414.035 260.062 414.035ZM213.675 383.011C221.855 383.011 233.552 386.445 245.857 401.317C252.467 409.306 257.899 412.903 261.566 411.713C265.689 410.376 267.193 402.973 267.49 399.698C238.072 368.49 221.438 373.118 207.809 383.619C209.461 383.269 211.437 383.011 213.675 383.011Z" fill="#1C1C1E"/>
<path d="M271.315 344.771C271.315 344.771 269.179 341.255 267.118 341.873C265.119 342.472 266.419 350.267 272.315 355.163L274.814 348.968C274.813 348.969 272.814 347.969 271.315 344.771Z" fill="#1C1C1E"/>
<path d="M306.944 467.223C306.889 467.223 306.835 467.218 306.781 467.21C306.055 467.095 288.931 464.125 282.472 440.779C276.642 419.709 272.665 408.613 268.748 402.479C268.485 402.067 268.543 401.529 268.886 401.182C269.231 400.835 269.772 400.775 270.183 401.034C284.174 409.823 289.927 422.39 294.219 433.48C295.399 436.527 296.268 439.9 297.188 443.47C299.295 451.643 301.472 460.094 307.625 465.388C307.979 465.693 308.088 466.194 307.892 466.617C307.718 466.991 307.345 467.223 306.944 467.223ZM272.721 405.325C276.078 412.105 279.664 422.808 284.483 440.223C288.836 455.954 298.191 461.878 303.414 464.016C298.873 458.377 296.921 450.802 295.166 443.992C294.263 440.482 293.407 437.168 292.272 434.233C288.499 424.488 283.576 413.573 272.721 405.325Z" fill="#1C1C1E"/>
<path d="M274.394 409.02C274.394 409.02 273.514 422.216 272.928 428.813C272.358 435.23 275.861 444.355 279.381 448.607C277.621 440.397 277.034 435.705 277.914 428.373C278.794 421.042 277.034 412.832 274.394 409.02Z" fill="#FF9E68"/>
<path d="M280.337 455.022C280.336 455.022 280.335 455.022 280.334 455.022C280.128 455.022 275.237 454.959 271.317 450.594C267.422 446.256 265.94 439.371 266.911 430.131C267.35 425.958 267.842 422.408 268.277 419.275C269.344 411.56 270.051 406.464 268.628 401.321C268.496 400.841 268.721 400.334 269.167 400.11C269.611 399.888 270.152 400.009 270.458 400.402C279.163 411.595 278.987 421.26 278.845 429.024L278.84 429.333C278.653 439.684 278.808 443.859 281.347 453.718C281.428 454.031 281.359 454.364 281.16 454.618C280.963 454.874 280.659 455.022 280.337 455.022ZM271.443 405.445C271.739 409.495 271.139 413.829 270.344 419.562C269.913 422.679 269.423 426.212 268.988 430.349C268.08 438.977 269.386 445.32 272.872 449.2C274.993 451.563 277.451 452.431 278.95 452.749C276.706 443.679 276.573 439.327 276.753 429.295L276.76 428.986C276.884 422.106 277.024 414.417 271.443 405.445Z" fill="#1C1C1E"/>
</g>
</g>
<g clip-path="url(#clip7_1919_546)">
<mask id="mask7_1919_546" style="mask-type:luminance" maskUnits="userSpaceOnUse" x="351" y="140" width="193" height="132">
<path d="M351.404 140.188H543.096V271.617H351.404V140.188Z" fill="white"/>
</mask>
<g mask="url(#mask7_1919_546)">
<path d="M537.999 268.647H356.16C355.767 268.647 355.39 268.491 355.113 268.211C354.835 267.932 354.679 267.554 354.679 267.159V142.94C354.679 142.545 354.835 142.167 355.113 141.888C355.39 141.609 355.767 141.452 356.16 141.452C356.553 141.452 356.93 141.609 357.208 141.888C357.486 142.167 357.642 142.545 357.642 142.94V265.701H537.999C538.392 265.701 538.769 265.858 539.047 266.137C539.325 266.416 539.481 266.795 539.481 267.189C539.481 267.584 539.325 267.962 539.047 268.241C538.769 268.521 538.392 268.677 537.999 268.677V268.647Z" fill="#1C1C1E"/>
<path d="M356.064 140.188L351.404 156.407H360.723L356.064 140.188Z" fill="#1C1C1E"/>
<path d="M543.095 266.938L526.954 262.25V271.618L543.095 266.938Z" fill="#1C1C1E"/>
<path d="M362.731 261.036C362.536 261.055 362.34 261.035 362.153 260.978C361.966 260.92 361.793 260.826 361.642 260.701C361.338 260.448 361.146 260.085 361.109 259.69C361.071 259.295 361.192 258.902 361.443 258.596C361.694 258.291 362.057 258.098 362.449 258.06C362.768 257.993 394.836 251.439 401.414 227.787C404.97 215.005 412.022 206.694 420.771 204.998C427.49 203.696 434.305 206.583 439.002 212.728C444.758 220.257 451.328 224.029 457.025 223.092C463.529 222.013 469.196 214.863 473.418 202.416C484.145 170.796 514.62 164.941 525.465 165.372C525.858 165.387 526.229 165.558 526.497 165.847C526.764 166.137 526.906 166.521 526.891 166.916C526.877 167.311 526.706 167.683 526.418 167.952C526.13 168.22 525.747 168.363 525.354 168.348C515.117 167.984 486.367 173.504 476.226 203.428C471.559 217.177 465.262 224.796 457.506 226.075C450.699 227.206 443.098 223.018 436.653 214.595C432.653 209.388 426.92 206.88 421.334 207.974C413.734 209.462 407.511 216.984 404.296 228.635C397.199 254.02 364.405 260.716 363.012 261.007C362.92 261.027 362.826 261.038 362.731 261.036Z" fill="white"/>
<path d="M372.635 247.555C366.812 247.555 362.908 247.205 362.368 247.153C362.173 247.135 361.984 247.078 361.811 246.986C361.639 246.894 361.486 246.769 361.361 246.618C361.237 246.467 361.143 246.292 361.086 246.104C361.028 245.917 361.008 245.72 361.027 245.524C361.045 245.328 361.102 245.139 361.193 244.965C361.285 244.792 361.41 244.639 361.56 244.514C361.711 244.388 361.885 244.294 362.071 244.237C362.258 244.179 362.455 244.159 362.649 244.177C363.108 244.222 408.97 248.321 429.171 226.73C449.372 205.139 492.478 194.775 526.265 194.031C526.658 194.031 527.035 194.188 527.313 194.467C527.59 194.746 527.747 195.125 527.747 195.519C527.747 195.914 527.59 196.292 527.313 196.571C527.035 196.851 526.658 197.007 526.265 197.007C493.1 197.751 450.861 207.833 431.268 228.769C416.007 245.159 387.813 247.555 372.635 247.555Z" fill="#1C1C1E"/>
</g>
</g>
<g clip-path="url(#clip8_1919_546)">
<path d="M898.382 265.89C903.587 281.714 906.119 303.623 886.8 321.275C858.404 347.214 865.309 371.639 880.869 395.387C884.174 400.45 886.841 406.028 888.682 412.06C898.862 445.322 881.648 505.978 836.103 525.845C791.898 545.128 763.517 546.486 734.918 542.309C699.57 537.151 650.285 520.971 640.923 489.41C635.107 469.761 640.7 452.373 649.699 436.077C668.51 402.042 669.342 386.589 656.1 348.797C655.818 347.974 655.528 347.131 655.284 346.291C645.105 313.029 664.204 272.199 694.734 258.244C727.715 243.171 764.813 216.96 801.548 213.046C839.638 208.99 887.515 232.88 898.382 265.89Z" fill="#FF9E68"/>
<path d="M576.834 374.221C571.226 393.295 585.009 420.302 604.033 426.715C623.056 433.129 640.451 417.05 646.05 397.956C651.657 378.882 646.338 353.86 627.315 347.446C608.273 341.041 582.441 355.147 576.834 374.221Z" fill="#FF9E68"/>
<path d="M598.457 447.478C594.134 454.828 597.224 467.505 604.617 472.18C612.029 476.847 621.037 471.995 625.36 464.646C629.683 457.296 629.983 446.333 622.572 441.666C615.17 436.971 602.78 440.129 598.457 447.478Z" fill="#FF9E68"/>
</g>
<defs>
<clipPath id="clip0_1919_546">
<rect width="258.506" height="165.359" fill="white" transform="matrix(0.945059 -0.324747 0.34078 0.939334 410.449 541.244)"/>
</clipPath>
<clipPath id="clip1_1919_546">
<rect width="407.603" height="347.426" fill="white" transform="matrix(0.878344 0.474503 -0.483249 0.87347 395.924 0.259033)"/>
</clipPath>
<clipPath id="clip2_1919_546">
<rect width="423.181" height="228.853" fill="white" transform="translate(0.233032 474.59)"/>
</clipPath>
<clipPath id="clip3_1919_546">
<rect width="343.28" height="156.35" fill="white" transform="translate(31.7991 501.224)"/>
</clipPath>
<clipPath id="clip4_1919_546">
<rect width="178.052" height="172.626" fill="white" transform="translate(471.75 463.246)"/>
</clipPath>
<clipPath id="clip5_1919_546">
<rect width="169.667" height="152.404" fill="white" transform="translate(487.532 237.845)"/>
</clipPath>
<clipPath id="clip6_1919_546">
<rect width="511.467" height="404.932" fill="white" transform="translate(10.0975 250.669)"/>
</clipPath>
<clipPath id="clip7_1919_546">
<rect width="191.862" height="131.689" fill="white" transform="translate(351.404 140.188)"/>
</clipPath>
<clipPath id="clip8_1919_546">
<rect width="41.2046" height="35.3193" fill="white" transform="matrix(-0.412511 -0.909612 -0.915542 0.399367 638.542 467.092)"/>
</clipPath>
</defs>
</svg>

