<svg width="924" height="862" viewBox="0 0 924 862" fill="none" xmlns="http://www.w3.org/2000/svg">
<g clip-path="url(#clip0_1718_192)">
<mask id="mask0_1718_192" style="mask-type:luminance" maskUnits="userSpaceOnUse" x="503" y="560" width="369" height="294">
<path d="M503.17 667.102L805.459 560.37L871.241 746.681L568.952 853.413L503.17 667.102Z" fill="white"/>
</mask>
<g mask="url(#mask0_1718_192)">
<path d="M720.097 800.047C803.571 770.574 856.515 704.974 838.35 653.526C820.184 602.077 737.789 584.263 654.314 613.736C570.84 643.209 517.896 708.809 536.061 760.257C554.227 811.706 636.622 829.52 720.097 800.047Z" fill="#FF9E68"/>
</g>
</g>
<g clip-path="url(#clip1_1718_192)">
<mask id="mask1_1718_192" style="mask-type:luminance" maskUnits="userSpaceOnUse" x="279" y="0" width="645" height="609">
<path d="M479.688 0.376221L923.817 243.181L724.08 608.533L279.95 365.728L479.688 0.376221Z" fill="white"/>
</mask>
<g mask="url(#mask1_1718_192)">
<path d="M372.055 199.475C437.163 103.161 543.981 67.0332 672.177 110.878C828.382 164.969 895.933 313.445 801.214 466.516C740.11 565.323 624.702 541.236 501.45 485.201C330.221 407.293 306.912 295.669 372.055 199.475Z" fill="#FF9E68"/>
</g>
</g>
<g clip-path="url(#clip2_1718_192)">
<mask id="mask2_1718_192" style="mask-type:luminance" maskUnits="userSpaceOnUse" x="0" y="581" width="519" height="281">
<path d="M0.624268 581.469H518.993V861.516H0.624268V581.469Z" fill="white"/>
</mask>
<g mask="url(#mask2_1718_192)">
<path d="M516.153 819.755C537.192 764.651 439.482 675.99 297.913 621.726C156.343 567.461 24.5246 568.142 3.48643 623.246C-17.5518 678.35 80.1577 767.011 221.727 821.276C363.296 875.54 495.115 874.859 516.153 819.755Z" fill="#FF9E68"/>
</g>
</g>
<g clip-path="url(#clip3_1718_192)">
<mask id="mask3_1718_192" style="mask-type:luminance" maskUnits="userSpaceOnUse" x="39" y="614" width="420" height="191">
<path d="M39.2952 614.097H458.583V804.286H39.2952V614.097Z" fill="white"/>
</mask>
<g mask="url(#mask3_1718_192)">
<path d="M456.316 788.478C466.88 760.883 382.6 703.017 268.074 659.232C153.547 615.446 52.1411 602.322 41.5778 629.918C31.0146 657.514 115.294 715.38 229.821 759.166C344.347 802.951 445.753 816.075 456.316 788.478Z" fill="#1C1C1E"/>
<path d="M414.17 804.278C404.754 804.278 393.957 803.505 381.873 801.943C338.989 796.395 284.812 781.657 229.322 760.446C173.832 739.235 123.645 714.077 88.002 689.607C51.8697 664.802 34.9211 643.43 40.2792 629.429C45.6388 615.43 72.5301 610.815 116.005 616.44C158.889 621.988 213.067 636.726 268.556 657.937C324.046 679.149 374.234 704.307 409.876 728.776C446.008 753.581 462.957 774.953 457.597 788.954C453.728 799.063 438.627 804.278 414.17 804.278ZM83.6849 616.867C60.6887 616.867 46.2634 621.508 42.8549 630.414C38.0676 642.924 55.092 663.671 89.5629 687.337C125.032 711.686 175.016 736.736 230.308 757.873C285.599 779.01 339.551 793.69 382.228 799.211C423.699 804.575 450.233 800.479 455.023 787.97C459.81 775.46 442.786 754.713 408.315 731.048C372.846 706.699 322.862 681.648 267.571 660.511C212.279 639.374 158.325 624.694 115.65 619.174C103.703 617.628 92.9893 616.867 83.6849 616.867Z" fill="#1C1C1E"/>
</g>
</g>
<g clip-path="url(#clip4_1718_192)">
<mask id="mask4_1718_192" style="mask-type:luminance" maskUnits="userSpaceOnUse" x="578" y="567" width="218" height="211">
<path d="M578.269 567.572H795.91V777.992H578.269V567.572Z" fill="white"/>
</mask>
<g mask="url(#mask4_1718_192)">
<path d="M777.907 693.224L735.872 755.433C732.319 760.693 726.908 764.409 720.728 765.837L719.862 766.038L790.002 569.392C793.629 574.58 795.167 580.948 794.304 587.221L780.766 685.745C780.4 688.426 779.42 690.984 777.907 693.224Z" fill="#FF9E68"/>
<path d="M719.861 767.411C719.474 767.411 719.099 767.248 718.836 766.951C718.503 766.576 718.401 766.049 718.57 765.576L788.711 568.931C788.882 568.447 789.312 568.101 789.819 568.031C790.338 567.964 790.833 568.185 791.127 568.605C794.965 574.094 796.577 580.772 795.663 587.409L782.127 685.933C781.733 688.806 780.667 691.594 779.044 693.993L737.008 756.202C733.249 761.768 727.576 765.666 721.035 767.176L720.169 767.377C720.068 767.4 719.965 767.411 719.861 767.411ZM790.335 572.544L722.02 764.071C727.203 762.489 731.675 759.193 734.736 754.664L776.773 692.455C778.16 690.402 779.072 688.016 779.411 685.56L792.947 587.036C793.636 582.01 792.712 576.957 790.335 572.544Z" fill="#1C1C1E"/>
<path d="M593.107 776.621H706.334C712.783 776.621 718.516 774.828 719.383 766.937C711.709 766.937 579.641 766.937 579.641 766.937C579.641 766.937 581.641 776.621 593.107 776.621Z" fill="#FF9E68"/>
<path d="M706.335 777.994H593.106C580.669 777.994 578.319 767.322 578.295 767.214C578.212 766.81 578.315 766.388 578.575 766.069C578.834 765.749 579.227 765.562 579.638 765.562H719.383C719.772 765.562 720.144 765.728 720.405 766.019C720.664 766.31 720.789 766.697 720.746 767.086C719.55 777.994 709.604 777.994 706.335 777.994ZM581.549 768.31C582.65 770.809 585.65 775.247 593.106 775.247H706.335C713.193 775.247 716.705 773.153 717.774 768.31H581.549Z" fill="#1C1C1E"/>
<path d="M579.639 766.934H719.383L741.779 643.549H624.966L579.639 766.934Z" fill="white"/>
<path d="M719.384 768.307H579.64C579.191 768.307 578.772 768.087 578.515 767.719C578.258 767.351 578.198 766.88 578.353 766.46L623.681 643.075C623.88 642.534 624.394 642.175 624.968 642.175H741.779C742.186 642.175 742.572 642.355 742.832 642.668C743.093 642.981 743.203 643.393 743.129 643.793L720.736 767.178C720.615 767.832 720.047 768.307 719.384 768.307ZM581.606 765.56H718.239L740.135 644.922H625.924L581.606 765.56Z" fill="#1C1C1E"/>
<path d="M774.027 686.591L719.383 766.935L741.779 643.549L790.331 568.945L774.027 686.591Z" fill="#1C1C1E"/>
<path d="M719.384 768.308C719.21 768.308 719.033 768.275 718.864 768.205C718.263 767.959 717.919 767.328 718.034 766.689L740.429 643.304C740.462 643.124 740.53 642.952 740.629 642.8L789.181 568.195C789.531 567.656 790.212 567.435 790.811 567.658C791.413 567.884 791.778 568.496 791.69 569.133L775.387 686.778C775.358 686.988 775.281 687.188 775.162 687.363L720.519 767.707C720.257 768.092 719.827 768.308 719.384 768.308ZM743.079 644.067L721.891 760.81L772.713 686.083L788.127 574.846L743.079 644.067Z" fill="#1C1C1E"/>
<path d="M688.515 737.495L697.717 737.485C699.197 737.484 700.181 738.485 699.914 739.727L698.23 747.528C697.957 748.794 696.518 749.824 695.017 749.824H685.686C684.188 749.824 683.212 748.795 683.507 747.531L685.32 739.739C685.608 738.499 687.037 737.496 688.515 737.495ZM661.076 739.759L659.048 747.536C658.719 748.798 659.66 749.825 661.153 749.825H670.447C671.941 749.825 673.404 748.798 673.712 747.533L675.611 739.747C675.913 738.51 674.962 737.51 673.489 737.511L664.323 737.521C662.851 737.521 661.398 738.522 661.076 739.759ZM636.93 739.78L634.688 747.54C634.325 748.8 635.233 749.824 636.718 749.824H645.974C647.463 749.824 648.949 748.798 649.292 747.538L651.404 739.768C651.74 738.532 650.821 737.535 649.353 737.536L640.225 737.546C638.763 737.547 637.286 738.546 636.93 739.78ZM612.884 739.799L610.431 747.544C610.033 748.802 610.908 749.824 612.387 749.824H621.605C623.086 749.824 624.595 748.801 624.974 747.542L627.299 739.787C627.67 738.554 626.783 737.558 625.321 737.56L616.231 737.569C614.771 737.572 613.273 738.569 612.884 739.799ZM689.352 722.403L687.612 729.883C687.329 731.097 688.29 732.083 689.758 732.08L698.903 732.067C700.373 732.064 701.779 731.075 702.041 729.858L703.656 722.369C703.913 721.178 702.944 720.218 701.494 720.221L692.473 720.243C691.027 720.248 689.629 721.212 689.352 722.403ZM665.587 722.458L663.64 729.924C663.324 731.135 664.252 732.119 665.714 732.117L674.822 732.104C676.287 732.101 677.715 731.113 678.01 729.901L679.834 722.426C680.123 721.237 679.186 720.28 677.741 720.283L668.757 720.305C667.315 720.307 665.897 721.27 665.587 722.458ZM641.916 722.513L639.765 729.964C639.416 731.174 640.313 732.154 641.768 732.153L650.84 732.139C652.299 732.137 653.75 731.151 654.079 729.941L656.108 722.481C656.431 721.295 655.525 720.339 654.086 720.342L645.138 720.364C643.7 720.366 642.258 721.328 641.916 722.513ZM618.341 722.566L615.985 730.004C615.603 731.211 616.468 732.19 617.918 732.189L626.953 732.175C628.406 732.172 629.88 731.189 630.242 729.981L632.475 722.535C632.831 721.351 631.955 720.397 630.522 720.399L621.609 720.421C620.178 720.425 618.715 721.384 618.341 722.566ZM693.226 705.751L691.553 712.939C691.282 714.104 692.228 715.049 693.667 715.045L702.634 715.019C704.076 715.015 705.449 714.062 705.702 712.895L707.253 705.699C707.5 704.555 706.547 703.633 705.124 703.639L696.278 703.673C694.857 703.679 693.492 704.607 693.226 705.751ZM669.92 705.837L668.051 713.011C667.747 714.176 668.662 715.118 670.096 715.114L679.027 715.088C680.463 715.084 681.858 714.133 682.142 712.967L683.894 705.785C684.173 704.643 683.249 703.724 681.832 703.729L673.021 703.764C671.605 703.769 670.218 704.696 669.92 705.837ZM646.707 705.924L644.64 713.084C644.304 714.246 645.188 715.187 646.616 715.182L655.512 715.156C656.943 715.152 658.358 714.203 658.675 713.04L660.625 705.872C660.935 704.732 660.042 703.814 658.63 703.82L649.853 703.854C648.444 703.86 647.035 704.784 646.707 705.924ZM623.584 706.009L621.321 713.155C620.953 714.316 621.808 715.254 623.23 715.25L632.09 715.224C633.514 715.219 634.953 714.272 635.301 713.112L637.447 705.957C637.789 704.818 636.924 703.902 635.518 703.908L626.775 703.942C625.373 703.949 623.944 704.873 623.584 706.009ZM696.949 689.743L695.341 696.653C695.08 697.775 696.012 698.68 697.424 698.674L706.217 698.636C707.632 698.63 708.975 697.713 709.216 696.59L710.709 689.671C710.946 688.571 710.006 687.687 708.611 687.694L699.934 687.739C698.54 687.749 697.204 688.644 696.949 689.743ZM674.087 689.86L672.288 696.757C671.996 697.877 672.899 698.782 674.305 698.775L683.064 698.736C684.473 698.731 685.837 697.815 686.11 696.694L687.794 689.788C688.062 688.69 687.152 687.807 685.761 687.815L677.117 687.86C675.729 687.868 674.372 688.761 674.087 689.86ZM651.312 689.975L649.325 696.86C649.002 697.978 649.875 698.88 651.275 698.875L660 698.838C661.404 698.832 662.788 697.918 663.093 696.8L664.968 689.906C665.266 688.809 664.385 687.929 662.999 687.936L654.388 687.981C653.005 687.986 651.629 688.879 651.312 689.975ZM628.626 690.089L626.449 696.962C626.096 698.077 626.94 698.978 628.335 698.972L637.026 698.935C638.424 698.93 639.828 698.017 640.163 696.9L642.226 690.019C642.554 688.924 641.702 688.044 640.322 688.052L631.744 688.098C630.368 688.106 628.971 688.996 628.626 690.089ZM700.531 674.343L698.983 680.992C698.732 682.072 699.652 682.941 701.036 682.934L709.662 682.886C711.049 682.878 712.363 681.995 712.597 680.914L714.033 674.258C714.262 673.199 713.336 672.349 711.967 672.359L703.452 672.414C702.084 672.422 700.778 673.284 700.531 674.343ZM678.095 674.486L676.364 681.124C676.083 682.201 676.973 683.07 678.353 683.062L686.947 683.014C688.328 683.006 689.663 682.124 689.925 681.046L691.545 674.401C691.803 673.343 690.906 672.496 689.541 672.504L681.057 672.559C679.698 672.568 678.371 673.43 678.095 674.486ZM655.744 674.627L653.83 681.255C653.52 682.33 654.381 683.197 655.756 683.19L664.318 683.142C665.694 683.133 667.048 682.253 667.341 681.176L669.145 674.542C669.432 673.486 668.562 672.64 667.204 672.649L658.752 672.704C657.394 672.713 656.048 673.574 655.744 674.627ZM633.477 674.77L631.382 681.385C631.042 682.458 631.876 683.324 633.245 683.316L641.774 683.268C643.146 683.26 644.519 682.381 644.841 681.307L646.828 674.685C647.143 673.632 646.302 672.786 644.948 672.796L636.528 672.85C635.175 672.859 633.81 673.717 633.477 674.77ZM703.98 659.516L702.49 665.92C702.249 666.958 703.154 667.794 704.513 667.785L712.981 667.725C714.342 667.716 715.628 666.863 715.852 665.824L717.235 659.413C717.454 658.393 716.543 657.577 715.199 657.587L706.839 657.651C705.496 657.665 704.217 658.497 703.98 659.516ZM681.954 659.684L680.288 666.076C680.017 667.113 680.895 667.948 682.249 667.938L690.685 667.881C692.042 667.871 693.346 667.02 693.6 665.983L695.161 659.583C695.41 658.565 694.525 657.75 693.186 657.76L684.857 657.824C683.518 657.835 682.219 658.668 681.954 659.684ZM660.011 659.851L658.169 666.233C657.87 667.268 658.72 668.102 660.069 668.092L668.473 668.034C669.824 668.025 671.15 667.176 671.431 666.139L673.169 659.751C673.446 658.735 672.587 657.92 671.252 657.93L662.954 657.995C661.621 658.006 660.304 658.835 660.011 659.851ZM638.148 660.017L636.13 666.389C635.802 667.423 636.627 668.256 637.97 668.246L646.342 668.188C647.688 668.179 649.032 667.331 649.342 666.296L651.255 659.919C651.559 658.904 650.728 658.091 649.399 658.102L641.132 658.166C639.805 658.175 638.469 659.004 638.148 660.017Z" fill="#FF9E68"/>
</g>
</g>
<g clip-path="url(#clip5_1718_192)">
<mask id="mask5_1718_192" style="mask-type:luminance" maskUnits="userSpaceOnUse" x="597" y="291" width="209" height="188">
<path d="M597.604 291.438H805.459V478.145H597.604V291.438Z" fill="white"/>
</mask>
<g mask="url(#mask5_1718_192)">
<path d="M690.454 384.792H782.328C782.328 435.465 740.854 477.163 690.454 477.163C640.054 477.163 598.581 435.465 598.581 384.792C598.581 334.119 640.054 292.421 690.454 292.421C706.582 292.421 722.424 296.689 736.391 304.796L690.454 384.792Z" fill="white"/>
<path d="M690.454 478.145C672.089 478.181 654.127 472.73 638.849 462.483C623.57 452.236 611.665 437.656 604.644 420.594C597.622 403.532 595.802 384.756 599.413 366.652C603.024 348.547 611.905 331.93 624.927 318.909C639.322 304.331 658.114 294.956 678.368 292.249C698.621 289.542 719.196 293.655 736.88 303.946C737.104 304.076 737.268 304.291 737.335 304.542C737.402 304.794 737.367 305.062 737.238 305.288L692.149 383.809H782.328C782.587 383.809 782.835 383.912 783.019 384.097C783.202 384.281 783.305 384.532 783.305 384.792C783.19 409.515 773.37 433.193 755.982 450.674C738.594 468.157 715.045 478.029 690.454 478.145ZM690.454 293.404C640.334 293.404 599.558 334.4 599.558 384.792C599.558 435.184 640.334 476.18 690.454 476.18C740.247 476.18 780.817 435.714 781.345 385.774H690.454C690.283 385.775 690.114 385.729 689.966 385.643C689.817 385.557 689.693 385.433 689.607 385.284C689.521 385.134 689.476 384.965 689.476 384.792C689.476 384.619 689.521 384.45 689.607 384.3L735.053 305.163C721.437 297.46 706.078 293.41 690.454 293.404Z" fill="#1C1C1E"/>
<path d="M793.019 325.842C784.865 311.655 773.145 299.871 759.033 291.672C758.922 291.608 758.799 291.566 758.672 291.549C758.545 291.532 758.416 291.541 758.291 291.574C758.167 291.607 758.051 291.665 757.949 291.744C757.847 291.822 757.761 291.92 757.698 292.032L711.761 372.028C711.675 372.178 711.63 372.347 711.63 372.52C711.63 372.692 711.675 372.862 711.761 373.011C711.847 373.16 711.97 373.284 712.119 373.371C712.268 373.457 712.437 373.502 712.608 373.502H804.481C804.741 373.502 804.989 373.399 805.173 373.214C805.356 373.03 805.459 372.78 805.459 372.52C805.453 356.133 801.163 340.036 793.019 325.842Z" fill="#1C1C1E"/>
</g>
</g>
<g clip-path="url(#clip6_1718_192)">
<mask id="mask6_1718_192" style="mask-type:luminance" maskUnits="userSpaceOnUse" x="12" y="307" width="628" height="496">
<path d="M12.7089 307.148H639V802.103H12.7089V307.148Z" fill="white"/>
</mask>
<g mask="url(#mask6_1718_192)">
<path d="M525.526 581.597C525.526 581.597 530.586 572.607 531.163 566.406C531.74 560.205 536.471 561.073 536.832 565.81C537.194 570.548 535.82 576.968 535.82 576.968" fill="#FF9E68"/>
<path d="M525.524 582.874C525.311 582.874 525.097 582.821 524.898 582.711C524.283 582.364 524.065 581.586 524.411 580.969C524.46 580.882 529.343 572.14 529.888 566.287C530.27 562.185 532.272 560.726 534.027 560.726H534.054C535.88 560.742 537.858 562.459 538.107 565.713C538.477 570.579 537.128 576.966 537.07 577.236C536.924 577.926 536.242 578.36 535.552 578.219C534.861 578.072 534.421 577.392 534.568 576.702C534.581 576.639 535.897 570.401 535.554 565.908C535.419 564.126 534.566 563.289 534.031 563.285C534.03 563.285 534.029 563.285 534.027 563.285C533.507 563.285 532.655 564.145 532.434 566.526C531.838 572.924 526.85 581.849 526.637 582.225C526.405 582.639 525.971 582.874 525.524 582.874Z" fill="#1C1C1E"/>
<path d="M581.413 571.453C570.402 571.442 555.27 578.447 555.27 578.447C555.27 578.447 560.668 570.113 575.471 563.389C581.332 560.727 579.185 556.313 572.848 558.343C562.973 561.506 551.544 571.475 550.216 573.274C550.216 573.274 556.502 561.737 565.939 554.066C569.794 550.933 568.086 545.927 562.023 550.566C547.601 561.601 533.796 578.107 500.997 599.279C500.226 599.777 499.21 600.415 497.991 601.164L520.44 622.703C525.165 617.275 527.777 614.037 527.826 614.002C535.74 605.97 552.05 588.882 576.555 590.156C582.913 591.053 583.897 586.544 579.164 585.185C569.99 582.552 559.78 584.64 559.78 584.64C559.78 584.64 565.161 578.708 581.748 577.238C587.441 576.735 587.418 571.459 581.413 571.453Z" fill="#FF9E68"/>
<path d="M520.44 623.983C520.11 623.983 519.793 623.856 519.555 623.628L497.106 602.088C496.82 601.815 496.678 601.422 496.72 601.03C496.762 600.637 496.984 600.284 497.321 600.077C498.531 599.333 499.537 598.7 500.304 598.207C522.321 583.995 535.768 571.873 546.575 562.132C551.902 557.329 556.504 553.182 561.248 549.553C565.996 545.918 568.099 547.835 568.631 548.507C569.985 550.223 569.157 553.101 566.747 555.06C562.608 558.425 559.068 562.583 556.43 566.135C560.998 562.689 567.001 558.876 572.459 557.129C576.696 555.77 579.295 556.988 579.992 558.793C580.591 560.344 579.904 562.784 576 564.556C568.11 568.139 562.941 572.212 559.894 575.141C565.354 573.044 574.148 570.176 581.389 570.176H581.415C585.325 570.18 587.16 572.141 587.245 574.082C587.327 575.979 585.679 578.176 581.862 578.515C573.669 579.24 568.294 581.087 565.015 582.701C568.904 582.427 574.339 582.471 579.519 583.958C582.643 584.854 583.692 586.903 583.343 588.537C582.974 590.271 580.924 592.063 576.377 591.423C553.026 590.229 536.939 606.569 529.204 614.426L528.757 614.88C528.704 614.943 528.584 615.087 528.4 615.31C527.493 616.406 525.084 619.316 521.404 623.544C521.174 623.808 520.846 623.967 520.497 623.982C520.478 623.982 520.458 623.983 520.44 623.983ZM500.065 601.384L520.354 620.852C523.519 617.197 525.602 614.68 526.428 613.681C526.775 613.263 526.882 613.133 526.961 613.058L527.379 612.634C535.375 604.509 552.031 587.598 576.62 588.88C579.578 589.292 580.744 588.449 580.84 588.004C580.921 587.622 580.334 586.852 578.812 586.415C570.04 583.896 560.137 585.874 560.036 585.893C559.496 586.007 558.943 585.754 558.669 585.274C558.395 584.795 558.462 584.192 558.833 583.782C559.067 583.525 564.744 577.463 581.635 575.967C583.786 575.776 584.715 574.815 584.689 574.193C584.658 573.486 583.499 572.735 581.412 572.732C581.404 572.732 581.394 572.732 581.386 572.732C570.78 572.732 555.954 579.539 555.806 579.607C555.293 579.846 554.677 579.717 554.303 579.284C553.93 578.855 553.887 578.23 554.196 577.751C554.425 577.399 559.97 569.025 574.94 562.225C577.125 561.233 577.753 560.099 577.604 559.711C577.418 559.231 575.949 558.695 573.237 559.56C563.586 562.652 552.415 572.449 551.245 574.032C550.844 574.572 550.095 574.712 549.529 574.351C548.962 573.989 548.77 573.251 549.093 572.66C549.353 572.181 555.608 560.813 565.132 553.073C566.647 551.842 566.911 550.455 566.62 550.089C566.434 549.85 565.179 549.76 562.799 551.581C558.137 555.149 553.572 559.264 548.286 564.029C537.411 573.832 523.878 586.03 501.689 600.354C501.232 600.65 500.687 600.995 500.065 601.384Z" fill="#1C1C1E"/>
<path d="M634.246 680.57C624.154 675.333 623.688 665.764 616.444 660.217C616.444 660.217 623.154 662.172 628.536 662.636C632.963 663.017 634.789 658.62 628.167 657.016C616.499 654.189 613.241 650.431 594.918 643.706C580.863 638.547 559.402 642.492 559.402 642.492C559.402 642.492 555.846 643.145 553.853 643.573C545.503 645.368 537.3 646.938 529.239 648.078L535.225 681.506C543.25 677.623 551.366 673.123 559.559 667.947L559.558 668.025C559.558 668.025 560.395 667.436 561.704 666.564C562.752 665.888 563.798 665.233 564.849 664.535C564.886 664.511 564.921 664.485 564.957 664.461C568.366 662.323 572.688 659.838 575.785 658.847C583.926 656.244 589.639 672.954 593.298 682.505C596.955 692.055 602.186 687.367 601.818 683.168C601.45 678.97 601.315 680.012 599.057 670.339C608.191 678 617.242 684.242 630.064 687.086C638.062 688.855 640.358 683.546 634.246 680.57Z" fill="#FF9E68"/>
<path d="M598.308 689.376C596.613 689.376 594.138 688.277 592.101 682.957L591.383 681.07C588.115 672.439 582.646 657.99 576.171 660.06C573.771 660.828 570.127 662.723 565.633 665.54C564.848 666.065 564.143 666.515 563.439 666.964L562.394 667.634C561.123 668.482 560.298 669.062 560.291 669.067C560.158 669.161 560.012 669.226 559.861 669.263C551.926 674.257 543.827 678.761 535.778 682.654C535.416 682.828 534.996 682.822 534.64 682.643C534.283 682.46 534.032 682.122 533.962 681.729L527.977 648.3C527.915 647.957 527.996 647.607 528.2 647.324C528.404 647.043 528.712 646.856 529.057 646.808C536.308 645.784 544.1 644.357 553.581 642.32C555.571 641.893 559.021 641.258 559.167 641.231C560.057 641.067 581.136 637.284 595.355 642.502C603.778 645.593 609.099 648.091 613.375 650.097C618.529 652.516 622.252 654.264 628.465 655.769C632.796 656.818 634.034 659.058 633.75 660.803C633.417 662.837 631.188 664.149 628.424 663.906C625.835 663.683 622.983 663.133 620.671 662.609C622.119 664.406 623.279 666.353 624.417 668.262C626.862 672.363 629.392 676.604 634.82 679.426C638.709 681.325 639.397 683.983 638.803 685.684C638.109 687.673 635.329 689.558 629.783 688.327C618.362 685.796 609.86 680.676 601.181 673.733C601.53 675.157 601.803 676.214 602.019 677.056C602.685 679.648 602.845 680.265 603.088 683.052C603.34 685.929 601.597 688.72 599.202 689.272C598.941 689.333 598.639 689.376 598.308 689.376ZM577.497 657.285C585.114 657.285 590.267 670.899 593.776 680.166L594.489 682.044C595.968 685.9 597.593 687.026 598.629 686.783C599.748 686.524 600.677 684.821 600.542 683.277C600.315 680.699 600.198 680.24 599.544 677.694C599.17 676.239 598.629 674.134 597.81 670.626C597.685 670.09 597.917 669.534 598.386 669.245C598.854 668.957 599.456 669.002 599.877 669.355C609.336 677.289 618.136 683.127 630.339 685.833C634.197 686.685 636.097 685.679 636.389 684.843C636.649 684.098 635.913 682.804 633.686 681.718C633.675 681.715 633.665 681.709 633.656 681.704C627.572 678.548 624.852 673.984 622.223 669.573C620.35 666.431 618.579 663.462 615.666 661.231C615.177 660.858 615.025 660.188 615.302 659.638C615.581 659.089 616.212 658.816 616.801 658.988C616.868 659.008 623.456 660.913 628.646 661.36C630.204 661.496 631.147 660.885 631.229 660.392C631.31 659.9 630.467 658.886 627.866 658.256C621.402 656.69 617.383 654.804 612.292 652.414C608.061 650.429 602.795 647.957 594.477 644.904C580.907 639.923 559.843 643.709 559.632 643.747C559.628 643.747 556.1 644.395 554.121 644.821C545.148 646.75 537.672 648.135 530.731 649.153L536.185 679.613C543.774 675.872 551.399 671.587 558.875 666.864C558.975 666.802 559.081 666.753 559.191 666.72C559.56 666.464 560.188 666.033 560.994 665.496L562.066 664.81C562.756 664.369 563.447 663.927 564.14 663.467C564.15 663.461 564.268 663.38 564.277 663.374C569.016 660.403 572.757 658.469 575.394 657.624C576.115 657.394 576.816 657.285 577.497 657.285Z" fill="#1C1C1E"/>
<path d="M548.514 644.687C484.34 657.771 423.771 654.998 375.133 538.501L288.339 615.429C315.676 660.262 426.402 749.848 556.879 669.585C545.521 665.698 547.251 650.866 548.514 644.687Z" fill="white"/>
<path d="M450.486 703.136C436.061 703.136 421.61 701.403 407.15 697.928C342.27 682.336 300.349 637.581 287.248 616.095C286.926 615.567 287.028 614.883 287.491 614.472L374.285 537.545C374.593 537.273 375.012 537.163 375.419 537.256C375.821 537.348 376.154 537.63 376.313 538.009C426.192 657.475 488.604 655.597 548.259 643.435C548.682 643.353 549.115 643.481 549.419 643.784C549.722 644.088 549.853 644.524 549.766 644.945C548.567 650.805 546.898 664.82 557.292 668.376C557.76 668.535 558.095 668.952 558.15 669.443C558.205 669.934 557.97 670.415 557.549 670.673C522.422 692.282 486.556 703.136 450.486 703.136ZM289.995 615.67C303.511 637.173 344.587 680.262 407.748 695.441C456.97 707.27 506.202 698.632 554.119 669.768C545.298 664.964 545.816 653.024 546.916 646.313C518.631 651.955 485.872 655.508 455.459 641.345C423.404 626.415 396.958 593.466 374.646 540.641L289.995 615.67Z" fill="#1C1C1E"/>
<path d="M234.488 760.249C305.468 787.393 370.987 801.82 409.586 800.772C412.584 659.103 387.349 438.25 273.329 460.216C154.647 508.003 155.621 702.396 154.879 724.834C178.502 737.055 205.442 749.141 234.488 760.249Z" fill="white"/>
<path d="M186.535 553.293C169.885 619.396 190.943 644.368 172.334 674.727C168.444 681.074 169.129 696.435 174.293 709.492C179.842 723.529 190.943 733.321 213.145 751.276C177.885 735.933 154.877 724.834 154.877 724.834C154.877 724.834 154.702 622.334 186.535 553.293Z" fill="#FF9E68"/>
<path d="M278.115 473.804C256.567 471.845 227.183 490.452 199.431 527.339C202.664 520.876 206.885 514.374 211.578 508.208C226.32 488.833 245.704 472.757 253.629 471.519C264.076 469.888 278.115 473.804 278.115 473.804Z" fill="#FF9E68"/>
<path d="M204.734 568.002C202.69 568.002 200.628 567.812 198.572 567.426C192.887 566.358 187.596 563.829 183.273 560.112C182.739 559.652 182.677 558.844 183.139 558.31C183.599 557.774 184.406 557.715 184.942 558.174C188.923 561.598 193.8 563.928 199.044 564.913C206.756 566.362 214.541 564.834 220.971 560.615C227.387 556.406 231.684 550.017 233.073 542.628C235.794 528.144 226.309 513.797 211.477 509.968C210.793 509.792 210.382 509.094 210.559 508.411C210.735 507.727 211.432 507.316 212.116 507.493C228.245 511.657 238.555 527.299 235.585 543.101C234.067 551.181 229.377 558.159 222.373 562.754C217.105 566.208 211.003 568.002 204.734 568.002Z" fill="#FF9E68"/>
<path d="M266.361 463.033C281.941 453.802 294.999 460.066 329.352 489.256C329.884 480.361 328.549 472.612 322.832 467.214C317.113 461.815 292.614 444.673 266.361 463.033Z" fill="#FF9E68"/>
<path d="M258.324 770.266C258.292 770.266 258.258 770.265 258.226 770.262C257.521 770.208 256.994 769.593 257.048 768.889C257.713 760.234 254.967 751.84 249.317 745.25C243.666 738.66 235.787 734.665 227.132 734C216.299 733.168 205.828 737.768 199.096 746.305C198.66 746.86 197.857 746.956 197.301 746.517C196.746 746.08 196.651 745.276 197.089 744.722C204.348 735.515 215.665 730.556 227.326 731.452C236.663 732.169 245.162 736.479 251.258 743.587C257.354 750.694 260.314 759.75 259.596 769.086C259.547 769.756 258.987 770.266 258.324 770.266Z" fill="#FF9E68"/>
<path d="M386.834 570.92C399.567 601.279 409.852 631.147 416.709 644.368C427.078 664.365 440.706 672.769 457.356 683.051C474.007 693.334 494.575 678.154 535.223 681.504C487.72 700.188 451.969 707.533 405.444 697.25C404.466 674.236 395.16 593.444 386.834 570.92Z" fill="#1C1C1E"/>
<path d="M405.6 802.103C365.233 802.103 300.124 786.718 234.029 761.443C205.61 750.575 178.782 738.64 154.288 725.968C153.85 725.742 153.581 725.283 153.598 724.791C153.629 723.822 153.659 722.53 153.694 720.942C156.813 581.727 199.13 488.711 272.849 459.028C272.926 458.998 273.006 458.975 273.086 458.959C301.169 453.551 325.643 462.422 345.843 485.32C363.315 505.125 377.653 535.491 388.46 575.575C411.196 659.907 411.701 761.174 410.864 800.799C410.848 801.48 410.302 802.031 409.619 802.05C408.309 802.086 406.967 802.103 405.6 802.103ZM234.944 759.054C302.291 784.809 368.546 800.236 408.33 799.521C409.13 759.182 408.411 659.402 385.989 576.241C375.286 536.541 361.133 506.52 343.924 487.013C324.391 464.871 300.765 456.269 273.69 461.447C175.679 501.008 158.042 641.032 156.249 721C156.222 722.191 156.201 723.217 156.176 724.066C180.395 736.557 206.89 748.326 234.944 759.054Z" fill="#1C1C1E"/>
<path d="M189.758 576.588C189.726 608.986 203.364 656.273 226.409 693.6C237.532 711.613 250.845 727.308 265.87 737.89C364.826 807.58 511.554 634.736 527.823 613.999C528.777 613.031 529.856 611.929 531.054 610.745C526.583 599.383 517.738 594.573 511.046 592.531C507.9 594.725 504.566 596.972 500.995 599.277C487.698 607.86 404.383 656.554 368.667 652.547C346.261 650.034 334.596 620.177 322.19 576.792" fill="white"/>
<path d="M345.044 750.268C327.775 750.268 313.728 736.222 313.728 718.958C313.728 701.694 327.775 687.648 345.044 687.648C362.312 687.648 376.359 701.694 376.359 718.958C376.359 736.222 362.312 750.268 345.044 750.268ZM345.044 690.205C329.187 690.205 316.286 703.104 316.286 718.958C316.286 734.812 329.187 747.711 345.044 747.711C360.9 747.711 373.801 734.812 373.801 718.958C373.801 703.104 360.901 690.205 345.044 690.205Z" fill="#FF9E68"/>
<path d="M317.736 542.264C315.505 542.264 313.207 541.974 310.882 541.387C303.363 539.488 296.44 534.699 291.39 527.901C286.339 521.104 283.751 513.094 284.105 505.347C284.462 497.504 287.781 490.864 293.451 486.653C299.123 482.441 306.435 481.181 314.052 483.103C321.571 485.002 328.494 489.791 333.544 496.589C338.595 503.386 341.183 511.398 340.829 519.143C340.472 526.987 337.153 533.626 331.483 537.838C327.544 540.763 322.812 542.264 317.736 542.264ZM307.21 484.786C302.674 484.786 298.464 486.116 294.977 488.706C289.935 492.451 286.981 498.402 286.66 505.464C286.334 512.624 288.743 520.051 293.444 526.376C298.144 532.701 304.559 537.152 311.51 538.907C318.363 540.638 324.916 539.528 329.958 535.784C335.001 532.04 337.954 526.088 338.275 519.027C338.602 511.867 336.192 504.44 331.492 498.114C326.791 491.787 320.377 487.338 313.426 485.583C311.313 485.049 309.229 484.786 307.21 484.786Z" fill="#FF9E68"/>
<path d="M633.322 681.601C633.229 681.601 633.134 681.591 633.038 681.569C622.192 679.114 610.652 670.397 610.166 670.026C609.605 669.599 609.496 668.798 609.923 668.235C610.352 667.672 611.154 667.562 611.715 667.992C611.83 668.079 623.304 676.745 633.602 679.076C634.291 679.232 634.724 679.916 634.568 680.605C634.433 681.198 633.906 681.601 633.322 681.601Z" fill="#1C1C1E"/>
<path d="M614.009 664.725C614.009 664.725 620.783 668.146 625.322 672.254L614.009 664.725Z" fill="#FF9E68"/>
<path d="M625.321 673.533C625.015 673.533 624.709 673.424 624.463 673.202C620.109 669.26 613.498 665.899 613.431 665.866C612.801 665.547 612.549 664.778 612.867 664.147C613.186 663.518 613.958 663.265 614.586 663.583C614.869 663.727 621.565 667.13 626.179 671.307C626.703 671.781 626.743 672.589 626.269 673.114C626.017 673.391 625.67 673.533 625.321 673.533Z" fill="#1C1C1E"/>
<path d="M442.909 699.999C442.592 699.999 442.276 699.882 442.028 699.647C435.931 693.852 432.573 686.028 432.573 677.618C432.573 660.859 446.209 647.225 462.97 647.225C472.52 647.225 481.326 651.581 487.133 659.174C487.562 659.735 487.454 660.537 486.893 660.966C486.331 661.395 485.53 661.289 485.101 660.727C479.782 653.771 471.715 649.782 462.969 649.782C447.617 649.782 435.129 662.269 435.129 677.618C435.129 685.32 438.204 692.485 443.789 697.795C444.299 698.28 444.321 699.09 443.833 699.602C443.584 699.866 443.246 699.999 442.909 699.999Z" fill="#FF9E68"/>
<path d="M339.821 630.167C344.646 675.777 353.221 667.329 365.023 661.273C374.794 656.26 374.355 665.702 382.739 665.8C388.652 665.869 394.117 658.524 399.396 655.668C404.674 652.812 407.93 659.525 419.952 649.801C425.306 645.469 433.968 643.026 438.513 642.545C443.059 642.064 449.272 637.711 454.019 633.561C462.132 626.466 505.046 597.636 505.046 597.636C505.046 597.636 444.107 632.967 416.154 641.833C399.774 647.027 360.39 667.382 339.821 630.167Z" fill="#FF9E68"/>
<path d="M222.71 689.101C222.329 689.101 221.951 688.932 221.699 688.607C221.266 688.05 221.366 687.247 221.923 686.813C229.277 681.087 233.496 672.462 233.496 663.151C233.496 646.622 220.047 633.176 203.517 633.176C202.153 633.176 200.779 633.268 199.435 633.451C198.737 633.548 198.09 633.056 197.995 632.356C197.901 631.657 198.392 631.013 199.09 630.918C200.549 630.72 202.039 630.619 203.517 630.619C221.458 630.619 236.053 645.213 236.053 663.151C236.053 673.256 231.476 682.615 223.495 688.831C223.26 689.014 222.983 689.101 222.71 689.101Z" fill="#FF9E68"/>
<path d="M343.741 498.624C339.573 498.624 332.029 492.613 328.642 489.725C328.343 489.47 328.178 489.09 328.195 488.697C328.474 482.256 326.729 475.663 322.863 468.539C322.589 468.034 322.685 467.408 323.098 467.009C323.511 466.609 324.137 466.534 324.635 466.825C325.246 467.185 339.659 475.783 345.485 490.927C346.416 493.349 347.421 496.732 345.404 498.157C344.949 498.479 344.386 498.624 343.741 498.624ZM330.772 488.177C337.109 493.502 342.904 496.721 343.927 496.071C343.927 496.069 344.436 495.33 343.097 491.846C339.435 482.323 331.943 475.398 327.309 471.813C329.763 477.462 330.902 482.856 330.772 488.177Z" fill="#1C1C1E"/>
<path d="M328.585 493.584L328.726 497.996C328.726 497.996 331.824 499.692 333.934 498.523L337.05 494.809L330.46 489.733L328.585 493.584Z" fill="#1C1C1E"/>
<path d="M332.176 500.214C330.196 500.214 328.383 499.264 328.111 499.117C327.713 498.9 327.461 498.488 327.447 498.035L327.306 493.623C327.299 493.416 327.342 493.21 327.434 493.024L329.309 489.173C329.478 488.826 329.792 488.576 330.167 488.487C330.538 488.399 330.934 488.485 331.24 488.719L337.83 493.795C338.107 494.008 338.283 494.324 338.321 494.67C338.359 495.017 338.254 495.363 338.03 495.629L334.914 499.343C334.813 499.464 334.69 499.565 334.553 499.64C333.795 500.061 332.971 500.214 332.176 500.214ZM329.978 497.164C330.843 497.506 332.196 497.872 333.13 497.491L335.213 495.007L330.923 491.702L329.874 493.859L329.978 497.164Z" fill="#1C1C1E"/>
<path d="M376.368 571.166C376.368 571.166 355.406 567.844 347.619 539.707C340.729 514.806 335.764 500.445 330.652 492.44C347.982 503.326 354.843 519.318 359.586 531.567C364.329 543.819 365.179 561.54 376.368 571.166Z" fill="#1C1C1E"/>
<path d="M343.773 556.216C343.773 556.216 325.543 556.167 328.597 527.134C330.483 509.209 333.194 500.52 330.662 491.365C341.182 504.896 340.835 516.264 340.662 526C340.424 539.136 340.669 544.176 343.773 556.216Z" fill="#1C1C1E"/>
<path d="M543.636 678.395C543.461 678.395 543.283 678.358 543.113 678.281C529.498 672.152 533.571 655.293 533.613 655.123C533.786 654.439 534.473 654.022 535.164 654.196C535.849 654.368 536.264 655.062 536.094 655.746C535.943 656.354 532.511 670.703 544.163 675.949C544.808 676.239 545.095 676.996 544.805 677.64C544.59 678.115 544.125 678.395 543.636 678.395Z" fill="#1C1C1E"/>
<path d="M521.006 622.102C520.497 622.102 520.015 621.795 519.816 621.291C516.068 611.781 505.662 605.757 505.558 605.697C504.945 605.346 504.732 604.565 505.082 603.953C505.431 603.34 506.21 603.127 506.826 603.476C507.284 603.738 518.121 610.014 522.197 620.354C522.455 621.011 522.133 621.754 521.475 622.012C521.321 622.073 521.162 622.102 521.006 622.102Z" fill="#1C1C1E"/>
<path d="M368.258 595.416C370.428 595.142 371.79 591.772 371.3 587.888C370.811 584.004 368.653 581.077 366.483 581.352C364.312 581.626 362.95 584.996 363.44 588.88C363.93 592.763 366.087 595.69 368.258 595.416Z" fill="#FF9E68"/>
<path d="M367.997 596.715C365.249 596.715 362.746 593.463 362.187 589.044C361.6 584.388 363.425 580.454 366.339 580.086C369.271 579.726 371.999 583.077 372.586 587.731C372.85 589.822 372.634 591.865 371.979 593.486C371.222 595.357 369.964 596.494 368.435 596.687C368.288 596.706 368.142 596.715 367.997 596.715ZM366.783 582.615C366.74 582.615 366.7 582.618 366.657 582.623C365.402 582.781 364.307 585.424 364.723 588.723C365.139 592.023 366.856 594.297 368.113 594.15C368.673 594.08 369.217 593.488 369.606 592.529C370.093 591.324 370.253 589.692 370.046 588.051C369.646 584.86 368.026 582.615 366.783 582.615Z" fill="#1C1C1E"/>
<path d="M374.408 637.721C376.589 637.563 378.128 634.268 377.842 630.364C377.557 626.46 375.557 623.425 373.376 623.583C371.193 623.743 369.656 627.036 369.941 630.941C370.226 634.844 372.226 637.881 374.408 637.721Z" fill="#FF9E68"/>
<path d="M374.259 639.014C372.821 639.014 371.464 638.153 370.419 636.565C369.456 635.105 368.843 633.144 368.689 631.041C368.347 626.361 370.375 622.53 373.304 622.315C376.271 622.083 378.799 625.599 379.14 630.277C379.483 634.957 377.454 638.79 374.523 639.004C374.437 639.011 374.348 639.014 374.259 639.014ZM373.564 624.863C373.54 624.863 373.517 624.864 373.491 624.865C372.23 624.957 370.999 627.538 371.239 630.854C371.361 632.505 371.839 634.072 372.554 635.158C373.123 636.023 373.794 636.504 374.337 636.453C375.601 636.361 376.832 633.781 376.592 630.464C376.354 627.212 374.814 624.863 373.564 624.863Z" fill="#1C1C1E"/>
<path d="M387.137 768.29C389.319 768.131 390.857 764.836 390.572 760.933C390.287 757.028 388.287 753.993 386.105 754.151C383.923 754.311 382.386 757.605 382.671 761.509C382.956 765.413 384.956 768.449 387.137 768.29Z" fill="#FF9E68"/>
<path d="M387.003 769.587C384.181 769.587 381.755 766.158 381.423 761.615C381.08 756.935 383.11 753.103 386.041 752.888C387.539 752.781 389.037 753.641 390.145 755.328C391.108 756.788 391.722 758.749 391.875 760.852C392.218 765.532 390.19 769.363 387.26 769.578C387.173 769.583 387.088 769.587 387.003 769.587ZM386.295 755.436C386.271 755.436 386.249 755.436 386.226 755.439C384.963 755.531 383.731 758.112 383.972 761.429C384.214 764.744 385.759 767.102 387.071 767.026C388.333 766.934 389.565 764.354 389.324 761.038C389.203 759.387 388.725 757.819 388.01 756.734C387.464 755.904 386.842 755.436 386.295 755.436Z" fill="#1C1C1E"/>
<path d="M442.194 697.857C442.194 697.857 413.834 716.679 390.054 719.366C366.275 722.055 372.643 730.942 363.327 734.627C354.012 738.311 336.158 736.755 321.998 730.76C307.839 724.765 289.691 726.512 285.459 731.037C281.229 735.561 281.04 745.91 296.724 751.112C312.408 756.315 340.027 754.215 372.633 741.319C405.238 728.423 427.1 710.164 442.194 697.857Z" fill="#1C1C1E"/>
<path d="M318.973 754.873C303.899 754.873 289.732 751.773 276.59 745.576C257.159 736.414 239.685 719.471 224.652 695.215C213.76 677.64 204.55 656.645 198.019 634.501C196.047 627.817 194.341 621.089 192.944 614.503C190.014 600.673 188.47 587.562 188.48 576.588C188.075 560.248 192.939 546.302 202.553 536.288C212.03 526.417 225.642 520.846 240.881 520.602H240.901C241.598 520.602 242.169 521.161 242.18 521.86C242.192 522.566 241.628 523.148 240.922 523.159C226.371 523.393 213.401 528.684 204.399 538.059C195.269 547.569 190.649 560.881 191.039 576.557C191.029 587.388 192.554 600.315 195.448 613.974C196.829 620.496 198.52 627.158 200.472 633.778C206.942 655.707 216.055 676.485 226.826 693.868C241.596 717.698 258.705 734.316 277.683 743.265C321.367 763.859 375.268 749.721 437.895 701.239C482.554 666.666 516.922 625.528 526.39 613.742C526.772 613.267 526.882 613.13 526.968 613.051L527.336 612.677C528.016 611.986 528.755 611.235 529.552 610.44C525.307 600.417 517.421 595.939 511.263 593.94C508.067 596.161 504.93 598.262 501.691 600.352C500.822 600.912 415.008 654.061 373.191 654.066C371.565 654.066 370.013 653.986 368.528 653.819C343.027 650.959 329.891 616.926 319.493 580.573C319.3 579.894 319.693 579.187 320.372 578.993C321.058 578.797 321.759 579.192 321.954 579.871C335.836 628.415 349.413 649.103 368.813 651.279C403.483 655.168 485.58 607.709 500.306 598.204C503.692 596.019 506.968 593.82 510.318 591.484C510.641 591.261 511.047 591.195 511.423 591.31C518.349 593.424 527.585 598.429 532.249 610.279C532.436 610.756 532.322 611.297 531.957 611.657C530.936 612.666 530.002 613.614 529.158 614.471L528.763 614.871C528.706 614.94 528.578 615.1 528.383 615.343C518.871 627.184 484.341 668.516 439.46 703.261C411.575 724.847 384.858 739.87 360.046 747.912C345.729 752.553 332.011 754.873 318.973 754.873Z" fill="#1C1C1E"/>
<path d="M319.007 578.02C319.007 578.02 316.542 564.49 320.231 563.085C325.373 561.127 336.148 566.025 333.209 585.611C330.27 605.197 333.453 602.586 336.719 626.089C325.944 609.114 322.272 591.404 319.007 578.02Z" fill="#1C1C1E"/>
<path d="M295.419 655.603C278.151 655.603 264.104 641.555 264.104 624.291C264.104 607.027 278.151 592.981 295.419 592.981C312.688 592.981 326.735 607.027 326.735 624.291C326.735 641.555 312.688 655.603 295.419 655.603ZM295.419 595.538C279.563 595.538 266.662 608.437 266.662 624.291C266.662 640.145 279.563 653.044 295.419 653.044C311.276 653.044 324.177 640.145 324.177 624.291C324.177 608.437 311.276 595.538 295.419 595.538Z" fill="#FF9E68"/>
<path d="M283.418 536.079C276.222 530.643 268.291 526.778 260.18 524.466L283.418 536.079Z" fill="white"/>
<path d="M283.418 537.356C283.15 537.356 282.879 537.271 282.649 537.097C275.738 531.877 268.062 528.042 259.831 525.694C259.152 525.501 258.758 524.793 258.951 524.114C259.145 523.434 259.857 523.042 260.531 523.236C269.067 525.67 277.025 529.647 284.188 535.058C284.751 535.484 284.863 536.286 284.438 536.849C284.189 537.181 283.806 537.356 283.418 537.356Z" fill="#1C1C1E"/>
<path d="M395.108 392.471C398.402 382.977 397.333 373.985 392.721 372.385C388.108 370.786 381.7 377.185 378.408 386.679C375.114 396.172 376.183 405.165 380.795 406.764C385.406 408.363 391.815 401.964 395.108 392.471Z" fill="white"/>
<path d="M382.274 408.293C381.62 408.293 380.982 408.187 380.368 407.975C377.651 407.033 375.87 404.142 375.359 399.836C374.886 395.854 375.537 391.034 377.193 386.264C380.769 375.949 387.772 369.32 393.132 371.181C398.493 373.04 399.888 382.577 396.309 392.892C394.654 397.662 392.18 401.851 389.343 404.684C386.966 407.057 384.52 408.293 382.274 408.293ZM391.238 373.426C387.733 373.426 382.606 378.457 379.606 387.102C378.076 391.514 377.469 395.929 377.897 399.534C378.282 402.767 379.487 404.963 381.204 405.559C382.925 406.15 385.228 405.176 387.533 402.875C390.103 400.309 392.36 396.467 393.892 392.055C397.208 382.495 395.741 374.793 392.292 373.596C391.964 373.483 391.609 373.426 391.238 373.426Z" fill="#1C1C1E"/>
<path d="M272.566 459.279C272.566 459.279 302.848 440.917 311.908 400.522C318.496 371.148 341.589 412.609 341.589 412.609L321.042 473.995C304.352 465.085 290.522 455.362 272.566 459.279Z" fill="#FF9E68"/>
<path d="M322.517 471.329C322.384 471.329 322.247 471.309 322.114 471.265C321.446 471.043 321.081 470.319 321.304 469.649L340.188 412.769C336.33 406.562 325.888 392.325 318.86 393.404C315.9 393.862 313.649 397.181 312.171 403.271C301.867 445.704 264.387 465.444 264.009 465.639C263.381 465.961 262.61 465.717 262.287 465.089C261.963 464.461 262.209 463.69 262.838 463.367C263.205 463.177 299.665 443.937 309.686 402.667C311.432 395.474 314.388 391.507 318.471 390.877C328.647 389.307 341.276 409.624 342.684 411.944C342.877 412.264 342.922 412.654 342.805 413.009L323.733 470.455C323.553 470.991 323.053 471.329 322.517 471.329Z" fill="#1C1C1E"/>
<path d="M329.66 420.841C331.497 422.922 336.027 428.553 349.29 430.878C363.869 433.436 368.203 411.344 374.307 407.029C380.152 406.393 383.856 402.382 381.015 396.609C375.654 385.718 380 382.412 382.538 374.455C392.283 343.898 335.637 312.22 310.162 352.55L304.807 393.42" fill="#FF9E68"/>
<path d="M351.65 432.37C350.824 432.37 349.967 432.296 349.069 432.138C335.819 429.815 330.969 424.277 328.897 421.91L328.701 421.686C328.235 421.157 328.285 420.349 328.814 419.881C329.345 419.416 330.15 419.464 330.62 419.994L330.822 420.225C332.715 422.387 337.149 427.451 349.512 429.618C358.434 431.185 363.175 422.502 367.359 414.841C369.492 410.935 371.335 407.562 373.569 405.983C373.747 405.858 373.952 405.78 374.169 405.756C377.03 405.445 379.218 404.27 380.174 402.533C380.979 401.067 380.873 399.215 379.867 397.172C375.463 388.222 377.33 383.849 379.491 378.786C380.115 377.322 380.762 375.81 381.318 374.065C385.993 359.406 374.542 345.263 360.815 338.868C346.433 332.168 324.895 331.875 311.394 352.994L306.075 393.583C305.984 394.282 305.343 394.765 304.642 394.685C303.941 394.593 303.447 393.951 303.541 393.25L308.896 352.381C308.92 352.196 308.983 352.02 309.083 351.864C323.461 329.1 346.52 329.385 361.898 336.548C376.639 343.415 388.883 358.773 383.759 374.839C383.165 376.701 382.496 378.271 381.847 379.789C379.776 384.639 378.28 388.145 382.166 396.04C383.923 399.609 383.273 402.209 382.419 403.763C381.101 406.16 378.339 407.785 374.807 408.253C373.133 409.609 371.419 412.749 369.607 416.065C365.598 423.398 360.696 432.37 351.65 432.37Z" fill="#1C1C1E"/>
<path d="M332.108 376.161C330.761 371.631 326.988 364.391 318.273 369.428C312.289 372.888 313.865 381.914 316.314 388.035C320.597 398.738 332.403 431.367 264.402 444.345C196.731 457.261 179.145 537.649 119.767 535.502C73.3524 533.824 46.8861 520.042 29.0028 495.024C1.40233 456.411 12.0249 412.763 59.4102 406.884C80.1924 404.305 95.4428 404.928 125.317 373.101C141.682 355.666 177.746 358.684 200.737 361.35C234.529 365.268 238.534 354.647 267.341 333.929C295.256 313.854 317.294 304.55 349.615 309.936C408.635 319.771 405.537 355.258 383.033 362.145C359.698 369.287 346.952 352.508 339.372 374.999C336.372 383.901 333.21 380.445 332.108 376.161Z" fill="#1C1C1E"/>
<path d="M370.94 390.565C374.348 380.739 373.242 371.432 368.469 369.777C363.696 368.122 357.064 374.745 353.655 384.571C350.247 394.397 351.353 403.704 356.125 405.359C360.898 407.014 367.531 400.391 370.94 390.565Z" fill="white"/>
<path d="M357.66 406.895C356.987 406.895 356.331 406.787 355.701 406.569C352.904 405.6 351.074 402.621 350.546 398.181C350.058 394.067 350.73 389.085 352.441 384.155C354.151 379.223 356.707 374.895 359.639 371.966C362.803 368.807 366.083 367.6 368.882 368.572C374.405 370.488 375.836 380.333 372.142 390.986C370.432 395.917 367.875 400.245 364.944 403.173C362.492 405.62 359.971 406.895 357.66 406.895ZM366.941 370.809C365.321 370.809 363.382 371.845 361.448 373.777C358.784 376.437 356.444 380.42 354.857 384.993C353.271 389.567 352.642 394.143 353.086 397.881C353.486 401.245 354.744 403.531 356.539 404.153C358.336 404.775 360.738 403.76 363.134 401.365C365.798 398.704 368.138 394.722 369.725 390.15C373.165 380.231 371.632 372.235 368.042 370.989C367.696 370.868 367.327 370.809 366.941 370.809Z" fill="#1C1C1E"/>
<path d="M364.233 389.699C360.118 389.699 357.92 386.944 357.81 386.801C357.376 386.243 357.477 385.44 358.036 385.007C358.593 384.574 359.39 384.675 359.824 385.224C359.93 385.356 362.182 388.072 366.497 386.791C367.175 386.586 367.886 386.976 368.088 387.651C368.289 388.327 367.903 389.039 367.226 389.241C366.138 389.566 365.138 389.699 364.233 389.699Z" fill="#1C1C1E"/>
<path d="M365.499 391.18C366.183 389.712 365.744 388.058 364.518 387.487C363.293 386.916 361.744 387.643 361.059 389.111C360.375 390.579 360.813 392.233 362.04 392.804C363.266 393.375 364.814 392.648 365.499 391.18Z" fill="#1C1C1E"/>
<path d="M361.349 421.274C356.883 421.274 353.071 418.88 352.846 418.734C352.251 418.354 352.078 417.564 352.458 416.971C352.838 416.378 353.626 416.202 354.223 416.581C354.287 416.622 360.856 420.721 365.89 417.407C366.48 417.017 367.272 417.182 367.661 417.771C368.05 418.361 367.887 419.155 367.297 419.542C365.35 420.823 363.288 421.274 361.349 421.274Z" fill="#1C1C1E"/>
<path d="M124.665 373.917C124.665 373.917 105.076 402.317 72.7527 405.582C37.1319 409.178 29.0042 418.638 20.5145 430.39C42.0627 413.089 54.2594 415.412 77.6503 411.13C100.831 406.887 118.136 394.483 124.665 373.917Z" fill="#FF9E68"/>
<path d="M321.701 374.691C321.701 374.691 325.374 377.629 327.089 384.975L321.701 374.691Z" fill="#1C1C1E"/>
<path d="M327.088 386.252C326.507 386.252 325.982 385.853 325.843 385.263C324.268 378.506 320.932 375.711 320.898 375.685C320.354 375.238 320.269 374.435 320.712 373.888C321.157 373.34 321.953 373.254 322.502 373.693C322.666 373.824 326.54 376.995 328.334 384.683C328.496 385.371 328.067 386.059 327.38 386.219C327.281 386.242 327.184 386.252 327.088 386.252Z" fill="#1C1C1E"/>
<path d="M320.845 383.262C320.845 383.262 321.579 379.711 324.15 378.365L320.845 383.262Z" fill="#1C1C1E"/>
<path d="M320.846 384.538C320.759 384.538 320.67 384.529 320.583 384.511C319.892 384.366 319.45 383.693 319.593 383.002C319.627 382.833 320.487 378.842 323.558 377.232C324.181 376.905 324.957 377.147 325.285 377.77C325.613 378.396 325.37 379.169 324.745 379.496C322.754 380.54 322.104 383.493 322.098 383.523C321.968 384.125 321.437 384.538 320.846 384.538Z" fill="#1C1C1E"/>
<path d="M337.571 497.187C337.571 497.187 348.709 517.305 353.38 530.956C357.795 543.86 364.339 557.898 369.01 560.773C364.519 549.816 361.644 536.165 358.77 529.519C355.895 522.873 348.351 504.013 337.571 497.187Z" fill="#FF9E68"/>
<path d="M332.639 307.975C332.639 307.975 307.172 306.343 270.933 332.458C234.693 358.574 232.407 364.122 213.797 362.49C239.263 369.671 262.77 346.821 267.994 341.924C273.218 337.029 298.031 315.157 332.639 307.975Z" fill="#FF9E68"/>
<path d="M354.513 382.705C354.376 382.705 354.235 382.681 354.099 382.635L335.979 376.433C335.311 376.204 334.954 375.477 335.183 374.809C335.413 374.142 336.139 373.787 336.809 374.013L354.928 380.215C355.596 380.444 355.953 381.171 355.724 381.839C355.54 382.369 355.045 382.705 354.513 382.705Z" fill="#1C1C1E"/>
<path d="M372.632 386.945C371.944 386.945 371.376 386.396 371.354 385.703C371.334 384.997 371.89 384.408 372.596 384.387L378.147 384.224C378.802 384.197 379.442 384.757 379.463 385.464C379.483 386.17 378.927 386.759 378.221 386.78L372.67 386.943C372.657 386.945 372.644 386.945 372.632 386.945Z" fill="#1C1C1E"/>
<path d="M122.096 536.822C121.312 536.822 120.522 536.808 119.723 536.779C75.3923 535.176 47.0923 522.527 27.9635 495.766C12.9804 474.806 8.73113 451.592 16.5942 433.671C23.406 418.146 38.5567 408.182 59.2545 405.614C60.858 405.414 62.4296 405.234 63.9769 405.056C82.5009 402.934 97.1323 401.258 124.384 372.223C142.175 353.27 183.318 358.042 200.884 360.077C227.474 363.156 235.147 357.151 251.957 343.985C256.14 340.71 260.879 336.998 266.593 332.888C293.822 313.304 316.176 303.064 349.824 308.672C394.094 316.049 398.828 336.198 399.224 342.197C399.857 351.768 393.499 360.275 383.406 363.364C373.94 366.263 366.139 365.325 359.87 364.574C350.179 363.412 344.839 362.77 340.582 375.403C339.125 379.731 337.417 381.837 335.368 381.837C335.332 381.837 335.295 381.837 335.258 381.835C333.36 381.766 331.722 379.773 330.874 376.501C330.228 374.335 328.704 370.551 325.721 369.363C323.841 368.614 321.548 369.008 318.911 370.533C312.556 374.208 316.621 385.36 317.501 387.558C319.432 392.384 324.561 405.206 317.622 417.88C310.481 430.926 292.655 440.253 264.641 445.6C232.07 451.816 211.421 473.674 191.451 494.811C171.057 516.4 151.762 536.822 122.096 536.822ZM171.451 360.567C154.638 360.567 136.313 363.256 126.251 373.975C98.3574 403.694 82.5597 405.504 64.2685 407.599C62.7289 407.776 61.1649 407.955 59.5691 408.153C39.8009 410.604 25.3702 420.032 18.9355 434.699C11.4382 451.787 15.5903 474.06 30.044 494.28C48.6665 520.333 76.3539 532.653 119.815 534.224C149.664 535.319 169.069 514.783 189.593 493.057C209.842 471.623 230.781 449.461 264.163 443.089C291.39 437.893 308.623 428.998 315.381 416.654C321.017 406.359 318.207 396.205 315.128 388.511C312.184 381.153 311.296 371.985 317.633 368.321C320.985 366.383 324.025 365.938 326.668 366.989C330.663 368.579 332.558 373.19 333.334 375.795C333.338 375.811 333.343 375.825 333.347 375.841C333.965 378.244 334.958 379.268 335.352 379.282C335.383 379.282 336.595 379.235 338.16 374.589C343.081 359.989 350.622 360.893 360.175 362.037C366.206 362.761 373.707 363.661 382.658 360.921C391.594 358.186 397.227 350.73 396.675 342.365C395.923 330.979 383.11 316.811 349.406 311.195C316.625 305.73 294.769 315.776 268.087 334.965C262.415 339.044 257.698 342.739 253.535 345.999C236.683 359.197 228.224 365.822 200.59 362.618C193.632 361.811 182.891 360.567 171.451 360.567Z" fill="#1C1C1E"/>
<path d="M248.73 473.48C248.73 473.48 273.05 459.286 300.546 492.518C327.118 524.633 329.351 489.256 329.351 489.256C288.072 445.244 266.071 458.342 248.73 473.48Z" fill="white"/>
<path d="M318.934 507.283C313.672 507.283 307.299 502.686 299.561 493.333C273.137 461.398 250.33 474.032 249.372 474.586C248.804 474.916 248.075 474.759 247.692 474.223C247.308 473.689 247.394 472.95 247.89 472.517C265.85 456.839 288.509 443.841 330.286 488.383C330.526 488.64 330.652 488.986 330.63 489.338C330.592 489.946 329.597 504.265 321.571 506.872C320.725 507.145 319.846 507.283 318.934 507.283ZM262.107 469.278C272.128 469.278 286.458 473.484 301.532 491.703C309.63 501.49 316.285 505.897 320.777 504.439C325.828 502.801 327.671 493.732 328.034 489.72C291.995 451.488 271.617 457.157 254.92 470.022C256.945 469.593 259.365 469.278 262.107 469.278Z" fill="#1C1C1E"/>
<path d="M332.72 422.431C332.72 422.431 330.104 418.123 327.579 418.88C325.13 419.614 326.722 429.164 333.945 435.161L337.007 427.572C337.005 427.573 334.557 426.348 332.72 422.431Z" fill="#1C1C1E"/>
<path d="M376.368 572.443C376.301 572.443 376.235 572.438 376.168 572.427C375.28 572.287 354.301 568.648 346.388 540.047C339.246 514.235 334.374 500.641 329.575 493.127C329.252 492.622 329.324 491.963 329.745 491.538C330.167 491.112 330.829 491.039 331.333 491.357C348.473 502.124 355.521 517.519 360.779 531.105C362.225 534.838 363.289 538.971 364.417 543.345C366.997 553.357 369.665 563.709 377.203 570.195C377.636 570.568 377.769 571.182 377.529 571.701C377.317 572.159 376.859 572.443 376.368 572.443ZM334.443 496.614C338.555 504.919 342.948 518.032 348.852 539.366C354.184 558.638 365.646 565.895 372.043 568.514C366.481 561.606 364.089 552.326 361.94 543.984C360.832 539.684 359.784 535.623 358.394 532.028C353.771 520.089 347.741 506.718 334.443 496.614Z" fill="#1C1C1E"/>
<path d="M336.493 501.14C336.493 501.14 335.415 517.306 334.696 525.389C333.998 533.249 338.29 544.429 342.602 549.637C340.446 539.579 339.727 533.831 340.805 524.849C341.883 515.869 339.727 505.81 336.493 501.14Z" fill="#FF9E68"/>
<path d="M343.773 557.497C343.771 557.497 343.77 557.497 343.769 557.497C343.517 557.497 337.525 557.419 332.723 552.072C327.951 546.757 326.135 538.323 327.325 527.002C327.862 521.891 328.466 517.541 328.998 513.703C330.306 504.252 331.172 498.009 329.429 491.708C329.267 491.12 329.543 490.499 330.089 490.225C330.632 489.953 331.296 490.101 331.671 490.583C342.334 504.296 342.119 516.135 341.945 525.647L341.939 526.026C341.71 538.706 341.899 543.82 345.01 555.899C345.109 556.282 345.025 556.69 344.782 557.002C344.54 557.315 344.168 557.497 343.773 557.497ZM332.876 496.761C333.24 501.722 332.504 507.032 331.531 514.055C331.003 517.874 330.402 522.201 329.869 527.27C328.758 537.841 330.357 545.61 334.627 550.364C337.225 553.258 340.237 554.322 342.073 554.712C339.325 543.6 339.162 538.269 339.383 525.978L339.39 525.6C339.543 517.172 339.714 507.753 332.876 496.761Z" fill="#1C1C1E"/>
</g>
</g>
<g clip-path="url(#clip7_1718_192)">
<mask id="mask7_1718_192" style="mask-type:luminance" maskUnits="userSpaceOnUse" x="430" y="171" width="236" height="162">
<path d="M430.836 171.801H665.673V332.811H430.836V171.801Z" fill="white"/>
</mask>
<g mask="url(#mask7_1718_192)">
<path d="M659.43 329.173H436.663C436.181 329.173 435.72 328.982 435.379 328.639C435.039 328.297 434.848 327.834 434.848 327.35V175.172C434.848 174.689 435.039 174.225 435.379 173.883C435.72 173.541 436.181 173.349 436.663 173.349C437.144 173.349 437.606 173.541 437.946 173.883C438.286 174.225 438.478 174.689 438.478 175.172V325.564H659.43C659.911 325.564 660.373 325.756 660.713 326.098C661.053 326.44 661.245 326.904 661.245 327.387C661.245 327.871 661.053 328.334 660.713 328.676C660.373 329.018 659.911 329.21 659.43 329.21V329.173Z" fill="#1C1C1E"/>
<path d="M436.545 171.801L430.836 191.67H442.253L436.545 171.801Z" fill="#1C1C1E"/>
<path d="M665.673 327.079L645.899 321.336V332.812L665.673 327.079Z" fill="#1C1C1E"/>
<path d="M444.712 319.849C444.474 319.871 444.233 319.847 444.005 319.777C443.776 319.706 443.563 319.591 443.378 319.438C443.006 319.128 442.77 318.683 442.725 318.199C442.679 317.716 442.826 317.234 443.134 316.859C443.442 316.485 443.886 316.249 444.367 316.203C444.758 316.121 484.044 308.091 492.102 279.115C496.459 263.456 505.098 253.275 515.816 251.197C524.047 249.602 532.396 253.139 538.15 260.667C545.201 269.891 553.251 274.512 560.23 273.364C568.198 272.042 575.14 263.283 580.313 248.034C593.454 209.297 630.789 202.124 644.075 202.653C644.556 202.671 645.01 202.88 645.338 203.235C645.665 203.589 645.84 204.06 645.822 204.544C645.803 205.027 645.595 205.484 645.242 205.813C644.889 206.142 644.419 206.317 643.939 206.298C631.397 205.852 596.176 212.615 583.752 249.274C578.035 266.118 570.321 275.451 560.819 277.019C552.479 278.404 543.168 273.273 535.273 262.955C530.372 256.575 523.348 253.503 516.505 254.843C507.194 256.666 499.571 265.881 495.633 280.154C486.939 311.254 446.763 319.457 445.057 319.812C444.944 319.838 444.828 319.85 444.712 319.849Z" fill="white"/>
<path d="M456.846 303.333C449.713 303.333 444.93 302.905 444.267 302.841C444.029 302.818 443.798 302.749 443.586 302.636C443.375 302.524 443.187 302.37 443.035 302.185C442.882 302 442.767 301.786 442.697 301.556C442.627 301.326 442.602 301.085 442.625 300.845C442.647 300.605 442.717 300.373 442.829 300.16C442.941 299.948 443.094 299.76 443.278 299.607C443.463 299.453 443.676 299.338 443.905 299.268C444.133 299.197 444.374 299.172 444.612 299.195C445.175 299.25 501.359 304.272 526.107 277.821C550.855 251.371 603.663 238.674 645.055 237.762C645.536 237.762 645.997 237.955 646.338 238.296C646.678 238.638 646.87 239.102 646.87 239.585C646.87 240.069 646.678 240.533 646.338 240.874C645.997 241.216 645.536 241.408 645.055 241.408C604.425 242.32 552.679 254.67 528.675 280.319C509.98 300.398 475.441 303.333 456.846 303.333Z" fill="#1C1C1E"/>
</g>
</g>
<g clip-path="url(#clip8_1718_192)">
<path d="M1108.51 320.565C1114.57 339.723 1117.19 366.356 1092.89 388.304C1057.19 420.556 1065.15 450.154 1083.83 478.728C1087.8 484.82 1090.96 491.554 1093.1 498.861C1104.9 539.149 1082.21 613.439 1025.44 638.686C970.348 663.191 935.233 665.496 899.979 661.063C856.404 655.589 795.858 637.008 785.023 598.773C778.293 574.968 785.613 553.657 797.118 533.598C821.167 491.704 822.556 472.859 807.07 427.122C806.742 426.126 806.402 425.105 806.121 424.088C794.315 383.799 818.879 333.62 856.945 315.918C898.067 296.8 944.539 264.017 990.039 258.407C1037.22 252.593 1095.84 280.6 1108.51 320.565Z" fill="#FF9E68"/>
<path d="M708.491 459.912C701.114 483.277 717.52 515.863 740.886 523.24C764.252 530.617 786.131 510.63 793.498 487.241C800.875 463.875 794.885 433.513 771.52 426.136C748.13 418.769 715.869 436.546 708.491 459.912Z" fill="#FF9E68"/>
<path d="M733.509 548.662C727.993 557.715 731.517 573.089 740.546 578.615C749.599 584.13 760.848 578.013 766.363 568.96C771.879 559.908 772.506 546.544 763.454 541.028C754.414 535.479 739.024 539.61 733.509 548.662Z" fill="#FF9E68"/>
</g>
<defs>
<clipPath id="clip0_1718_192">
<rect width="320.846" height="197.583" fill="white" transform="translate(503.17 667.102) rotate(-19.447)"/>
</clipPath>
<clipPath id="clip1_1718_192">
<rect width="506.345" height="416.919" fill="white" transform="translate(479.688 0.376221) rotate(28.6654)"/>
</clipPath>
<clipPath id="clip2_1718_192">
<rect width="518.43" height="280.363" fill="white" transform="translate(0.624268 581.469)"/>
</clipPath>
<clipPath id="clip3_1718_192">
<rect width="420.544" height="191.541" fill="white" transform="translate(39.2952 614.097)"/>
</clipPath>
<clipPath id="clip4_1718_192">
<rect width="218.127" height="211.481" fill="white" transform="translate(578.269 567.572)"/>
</clipPath>
<clipPath id="clip5_1718_192">
<rect width="207.855" height="186.707" fill="white" transform="translate(597.604 291.438)"/>
</clipPath>
<clipPath id="clip6_1718_192">
<rect width="626.587" height="496.073" fill="white" transform="translate(12.7089 307.148)"/>
</clipPath>
<clipPath id="clip7_1718_192">
<rect width="235.046" height="161.33" fill="white" transform="translate(430.836 171.801)"/>
</clipPath>
<clipPath id="clip8_1718_192">
<rect width="49.5469" height="44.1088" fill="white" transform="matrix(-0.406388 -0.913701 -0.913701 0.406388 782.601 571.638)"/>
</clipPath>
</defs>
</svg>
