<svg width="760" height="677" viewBox="0 0 760 677" fill="none" xmlns="http://www.w3.org/2000/svg">
<g clip-path="url(#clip0_1922_450)">
<mask id="mask0_1922_450" style="mask-type:luminance" maskUnits="userSpaceOnUse" x="26" y="1" width="729" height="676">
<path d="M569.439 676.217L26.7227 454.999L211.631 1.36218L754.347 222.581L569.439 676.217Z" fill="white"/>
</mask>
<g mask="url(#mask0_1922_450)">
<path d="M686.925 385.496C651.631 508.953 465.343 585.094 316.329 562.067C190.657 542.558 42.2779 453.207 99.0199 279.127C138.81 157.096 265.315 91.8608 416.002 100.321C567.234 108.19 722.272 262.163 686.925 385.496Z" fill="#FF9E68"/>
</g>
</g>
<g clip-path="url(#clip1_1922_450)">
<mask id="mask1_1922_450" style="mask-type:luminance" maskUnits="userSpaceOnUse" x="175" y="128" width="444" height="351">
<path d="M175.802 128.631H618.627V478.87H175.802V128.631Z" fill="white"/>
</mask>
<g mask="url(#mask1_1922_450)">
<path d="M610.744 478.105H183.686C182.853 478.11 182.027 477.948 181.255 477.632C180.484 477.314 179.783 476.848 179.192 476.258C178.601 475.668 178.132 474.967 177.812 474.194C177.492 473.423 177.327 472.595 177.327 471.758V136.512C177.327 135.675 177.491 134.847 177.811 134.074C178.131 133.302 178.6 132.6 179.19 132.01C179.781 131.419 180.483 130.952 181.254 130.635C182.026 130.318 182.852 130.157 183.686 130.161H610.744C611.578 130.157 612.404 130.318 613.176 130.635C613.947 130.952 614.649 131.419 615.24 132.01C615.831 132.6 616.299 133.302 616.62 134.074C616.939 134.847 617.104 135.675 617.103 136.512V471.834C617.086 473.511 616.408 475.114 615.216 476.289C614.024 477.464 612.415 478.117 610.744 478.105Z" fill="white"/>
<path d="M616.874 151.916V137.004C616.876 136.17 616.714 135.343 616.397 134.572C616.08 133.801 615.613 133.101 615.026 132.511C614.438 131.921 613.74 131.454 612.972 131.136C612.203 130.817 611.38 130.655 610.548 130.657H183.806C182.975 130.655 182.151 130.817 181.383 131.136C180.614 131.454 179.916 131.921 179.328 132.511C178.741 133.101 178.275 133.801 177.957 134.572C177.64 135.343 177.478 136.17 177.48 137.004V151.916H616.874Z" fill="#FF9E68"/>
<path d="M607.667 141.25L611.432 137.473C611.647 137.257 611.767 136.966 611.767 136.661C611.767 136.357 611.647 136.065 611.432 135.85C611.218 135.635 610.927 135.514 610.624 135.514C610.32 135.514 610.029 135.635 609.815 135.85L606.051 139.628L602.286 135.85C602.072 135.635 601.781 135.514 601.478 135.514C601.174 135.514 600.883 135.635 600.669 135.85C600.455 136.065 600.334 136.357 600.334 136.661C600.334 136.966 600.455 137.257 600.669 137.473L604.434 141.25L600.669 145.026C600.455 145.242 600.334 145.533 600.334 145.838C600.334 146.142 600.455 146.434 600.669 146.649C600.883 146.864 601.174 146.985 601.478 146.985C601.781 146.985 602.072 146.864 602.286 146.649L606.051 142.871L609.815 146.649C610.029 146.864 610.32 146.985 610.624 146.985C610.927 146.985 611.218 146.864 611.432 146.649C611.647 146.434 611.767 146.142 611.767 145.838C611.767 145.533 611.647 145.242 611.432 145.026L607.667 141.25Z" fill="#1A1A1A"/>
<path d="M611.06 128.631H183.369C181.375 128.621 179.459 129.405 178.04 130.811C176.622 132.217 175.817 134.13 175.802 136.13V471.371C175.817 473.371 176.622 475.285 178.04 476.69C179.459 478.096 181.375 478.88 183.369 478.87H611.06C613.043 478.89 614.953 478.12 616.371 476.73C617.79 475.34 618.601 473.442 618.627 471.452V136.13C618.612 134.13 617.807 132.217 616.389 130.811C614.97 129.405 613.054 128.621 611.06 128.631ZM183.369 130.926H611.06C612.448 130.915 613.783 131.457 614.772 132.432C615.762 133.408 616.326 134.738 616.34 136.13V151.573H178.089V136.13C178.103 134.738 178.667 133.408 179.657 132.432C180.646 131.457 181.982 130.915 183.369 130.926ZM616.34 153.867V195.926H178.089V153.867H616.34ZM611.06 476.576H183.369C181.982 476.586 180.646 476.045 179.657 475.069C178.667 474.093 178.103 472.763 178.089 471.371V198.22H616.34V471.452C616.315 472.833 615.745 474.148 614.755 475.109C613.765 476.069 612.436 476.596 611.06 476.576Z" fill="#1A1A1A"/>
<path d="M590.808 146.984H586.234C585.325 146.983 584.453 146.621 583.81 145.975C583.167 145.33 582.805 144.456 582.805 143.543V138.955C582.805 138.043 583.167 137.168 583.81 136.523C584.453 135.878 585.325 135.515 586.234 135.514H590.808C591.717 135.515 592.589 135.878 593.232 136.523C593.875 137.168 594.237 138.043 594.237 138.955V143.543C594.237 144.456 593.875 145.33 593.232 145.975C592.589 146.621 591.717 146.983 590.808 146.984ZM586.234 137.808C585.931 137.808 585.641 137.929 585.426 138.144C585.212 138.359 585.091 138.651 585.091 138.955V143.543C585.091 143.847 585.212 144.139 585.426 144.354C585.641 144.57 585.931 144.69 586.234 144.69H590.808C591.111 144.69 591.401 144.57 591.616 144.354C591.83 144.139 591.951 143.847 591.951 143.543V138.955C591.951 138.651 591.83 138.359 591.616 138.144C591.401 137.929 591.111 137.808 590.808 137.808H586.234Z" fill="#1A1A1A"/>
<path d="M575.564 146.984H566.417C566.114 146.984 565.824 146.863 565.609 146.648C565.395 146.433 565.274 146.141 565.274 145.837C565.274 145.533 565.395 145.241 565.609 145.026C565.824 144.811 566.114 144.69 566.417 144.69H575.564C575.867 144.69 576.157 144.811 576.372 145.026C576.586 145.241 576.707 145.533 576.707 145.837C576.707 146.141 576.586 146.433 576.372 146.648C576.157 146.863 575.867 146.984 575.564 146.984Z" fill="#1A1A1A"/>
<path d="M566.418 186.749H287.462C286.35 186.748 285.285 186.304 284.499 185.516C283.713 184.728 283.271 183.659 283.27 182.544V167.249C283.271 166.134 283.713 165.065 284.499 164.277C285.285 163.488 286.35 163.045 287.462 163.043H566.418C567.529 163.045 568.595 163.488 569.381 164.277C570.166 165.065 570.608 166.134 570.61 167.249V182.544C570.608 183.659 570.166 184.728 569.381 185.516C568.595 186.304 567.529 186.748 566.418 186.749ZM287.462 165.337C286.956 165.337 286.472 165.539 286.114 165.897C285.757 166.256 285.556 166.742 285.556 167.249V182.544C285.556 183.051 285.757 183.537 286.114 183.895C286.472 184.254 286.956 184.455 287.462 184.455H566.418C566.923 184.455 567.408 184.254 567.766 183.895C568.123 183.537 568.323 183.051 568.323 182.544V167.249C568.323 166.742 568.123 166.256 567.766 165.897C567.408 165.539 566.923 165.337 566.418 165.337H287.462Z" fill="#1A1A1A"/>
<path d="M219.628 185.22C219.394 185.221 219.166 185.149 218.974 185.015C218.782 184.882 218.636 184.692 218.555 184.472C218.473 184.252 218.461 184.013 218.52 183.785C218.579 183.558 218.705 183.355 218.883 183.202L228.542 174.897L218.883 166.591C218.653 166.393 218.511 166.111 218.488 165.808C218.465 165.504 218.563 165.204 218.76 164.973C218.957 164.742 219.238 164.599 219.541 164.576C219.843 164.553 220.143 164.651 220.373 164.849L231.043 174.026C231.168 174.133 231.269 174.267 231.338 174.418C231.407 174.568 231.443 174.731 231.443 174.897C231.443 175.062 231.407 175.226 231.338 175.376C231.269 175.527 231.168 175.66 231.043 175.768L220.373 184.944C220.165 185.123 219.901 185.221 219.628 185.22Z" fill="#1A1A1A"/>
<path d="M201.336 185.22C201.063 185.221 200.799 185.123 200.592 184.944L189.921 175.768C189.796 175.66 189.696 175.527 189.627 175.376C189.558 175.226 189.522 175.062 189.522 174.897C189.522 174.731 189.558 174.568 189.627 174.418C189.696 174.267 189.796 174.134 189.921 174.026L200.592 164.849C200.706 164.751 200.838 164.677 200.981 164.63C201.123 164.583 201.274 164.565 201.424 164.576C201.573 164.588 201.72 164.629 201.854 164.697C201.987 164.765 202.107 164.859 202.205 164.973C202.302 165.088 202.377 165.22 202.423 165.363C202.47 165.507 202.488 165.658 202.477 165.808C202.465 165.958 202.424 166.105 202.357 166.239C202.289 166.374 202.195 166.493 202.081 166.591L192.422 174.897L202.08 183.202C202.258 183.355 202.384 183.558 202.443 183.785C202.502 184.012 202.49 184.252 202.409 184.472C202.327 184.692 202.181 184.881 201.989 185.015C201.797 185.149 201.569 185.221 201.336 185.22Z" fill="#1A1A1A"/>
<path d="M265.739 173.75C265.436 173.75 265.146 173.871 264.931 174.086C264.717 174.301 264.596 174.593 264.596 174.897C264.608 176.538 264.097 178.139 263.137 179.468C262.178 180.797 260.82 181.784 259.263 182.285C257.705 182.785 256.029 182.774 254.479 182.252C252.929 181.73 251.585 180.724 250.644 179.382C249.703 178.04 249.214 176.431 249.248 174.791C249.282 173.15 249.837 171.563 250.833 170.262C251.829 168.96 253.214 168.012 254.785 167.555C256.355 167.098 258.031 167.157 259.566 167.722L257.371 168.456C257.084 168.552 256.846 168.759 256.711 169.031C256.575 169.303 256.553 169.618 256.649 169.907C256.745 170.196 256.951 170.434 257.223 170.57C257.494 170.706 257.808 170.728 258.095 170.632L262.669 169.103C262.824 169.051 262.967 168.966 263.086 168.854C263.206 168.742 263.3 168.605 263.363 168.453C263.426 168.301 263.455 168.138 263.45 167.973C263.444 167.809 263.403 167.648 263.329 167.501L261.043 162.913C260.907 162.641 260.669 162.434 260.382 162.338C260.094 162.241 259.78 162.264 259.509 162.4C259.237 162.536 259.031 162.775 258.935 163.063C258.839 163.352 258.861 163.667 258.997 163.939L259.701 165.351C257.705 164.779 255.579 164.85 253.625 165.556C251.672 166.262 249.989 167.566 248.815 169.284C247.64 171.002 247.034 173.047 247.081 175.129C247.128 177.212 247.826 179.227 249.077 180.889C250.328 182.552 252.068 183.778 254.051 184.394C256.035 185.011 258.161 184.986 260.13 184.323C262.098 183.661 263.81 182.394 265.021 180.702C266.233 179.011 266.884 176.98 266.883 174.897C266.883 174.593 266.762 174.301 266.548 174.086C266.333 173.871 266.043 173.75 265.739 173.75Z" fill="#1A1A1A"/>
<path d="M605.716 183.644L599.276 177.183C600.636 175.406 601.273 173.176 601.055 170.945C600.837 168.715 599.781 166.651 598.102 165.173C596.423 163.694 594.246 162.912 592.014 162.985C589.781 163.058 587.66 163.981 586.08 165.566C584.501 167.15 583.582 169.279 583.509 171.519C583.436 173.759 584.215 175.943 585.688 177.627C587.162 179.312 589.219 180.371 591.442 180.59C593.665 180.808 595.888 180.17 597.659 178.805L604.099 185.267C604.313 185.482 604.604 185.603 604.907 185.603C605.211 185.603 605.502 185.482 605.716 185.267C605.93 185.052 606.051 184.76 606.051 184.455C606.051 184.151 605.93 183.859 605.716 183.644ZM585.853 171.838C585.853 170.552 586.233 169.295 586.944 168.226C587.656 167.157 588.668 166.324 589.852 165.832C591.036 165.34 592.338 165.212 593.595 165.462C594.852 165.713 596.007 166.332 596.912 167.241C597.818 168.15 598.436 169.309 598.686 170.57C598.936 171.83 598.807 173.137 598.317 174.325C597.827 175.513 596.996 176.528 595.93 177.242C594.865 177.956 593.613 178.338 592.331 178.338C590.614 178.336 588.967 177.65 587.752 176.432C586.538 175.213 585.855 173.561 585.853 171.838Z" fill="#1A1A1A"/>
</g>
</g>
<g clip-path="url(#clip2_1922_450)">
<mask id="mask2_1922_450" style="mask-type:luminance" maskUnits="userSpaceOnUse" x="175" y="82" width="444" height="351">
<path d="M175.802 82.0741H618.627V432.312H175.802V82.0741Z" fill="white"/>
</mask>
<g mask="url(#mask2_1922_450)">
<path d="M610.744 431.548H183.686C182.853 431.552 182.027 431.391 181.255 431.074C180.484 430.757 179.783 430.29 179.192 429.7C178.601 429.11 178.132 428.409 177.812 427.637C177.492 426.865 177.327 426.037 177.327 425.201V89.9544C177.327 89.1178 177.491 88.2893 177.811 87.5167C178.131 86.744 178.6 86.0424 179.19 85.4522C179.781 84.862 180.483 84.3948 181.254 84.0775C182.026 83.7602 182.852 83.5991 183.686 83.6035H610.744C611.578 83.5991 612.404 83.7602 613.176 84.0775C613.947 84.3948 614.649 84.862 615.24 85.4522C615.831 86.0424 616.299 86.744 616.62 87.5167C616.939 88.2893 617.104 89.1178 617.103 89.9544V425.277C617.086 426.954 616.408 428.556 615.216 429.731C614.024 430.907 612.415 431.56 610.744 431.548Z" fill="white"/>
<path d="M611.06 82.0742H183.369C181.375 82.064 179.459 82.8478 178.04 84.2536C176.622 85.6595 175.817 87.5725 175.802 89.573V424.814C175.817 426.814 176.622 428.728 178.04 430.133C179.459 431.539 181.375 432.322 183.369 432.312H611.06C613.043 432.333 614.953 431.563 616.371 430.173C617.79 428.783 618.601 426.885 618.627 424.895V89.573C618.612 87.5725 617.807 85.6595 616.389 84.2536C614.97 82.8478 613.054 82.064 611.06 82.0742ZM183.369 84.3683H611.06C612.448 84.3575 613.783 84.8994 614.772 85.8752C615.762 86.8509 616.326 88.1807 616.34 89.573V105.016H178.089V89.573C178.103 88.1807 178.667 86.8509 179.657 85.8752C180.646 84.8994 181.982 84.3575 183.369 84.3683ZM616.34 107.31V149.369H178.089V107.31H616.34ZM611.06 430.018H183.369C181.982 430.029 180.646 429.488 179.657 428.512C178.667 427.536 178.103 426.206 178.089 424.814V151.663H616.34V424.895C616.315 426.276 615.745 427.591 614.755 428.552C613.765 429.512 612.436 430.039 611.06 430.018Z" fill="#1A1A1A"/>
</g>
</g>
<g clip-path="url(#clip3_1922_450)">
<path d="M81.8219 267.683C126.172 267.683 162.144 293.799 162.144 326.028C162.144 345.954 148.386 363.558 127.402 374.082C133.013 386.231 144.543 401.436 157.456 405.266C137.164 401.9 114.604 395.129 101.845 382.555C95.2346 383.793 88.5474 384.374 81.8219 384.374C37.4716 384.374 1.49942 358.258 1.49942 326.028C1.49942 293.799 37.4716 267.683 81.8219 267.683Z" fill="white"/>
<path d="M157.456 406.234C157.878 406.234 158.301 405.924 158.378 405.499C158.493 404.996 158.186 404.493 157.725 404.338C149.039 401.746 136.741 391.531 128.67 374.508C150.269 363.403 163.105 345.335 163.105 326.029C163.105 310.127 154.612 295.192 139.162 283.972C123.866 272.868 103.459 266.716 81.8217 266.716C60.1847 266.716 39.7774 272.868 24.4815 283.972C9.07037 295.192 0.57695 310.088 0.57695 326.029C0.57695 341.969 9.07037 356.865 24.52 368.085C39.8542 379.228 60.2231 385.341 81.8602 385.341C81.8986 385.341 81.937 385.341 81.9755 385.341C88.5473 385.341 95.1191 384.761 101.576 383.6C115.373 396.909 139.508 403.255 157.34 406.234C157.379 406.234 157.417 406.234 157.456 406.234ZM81.8217 268.651C125.596 268.651 161.183 294.38 161.183 326.029C161.183 344.832 148.386 362.475 126.979 373.192C126.518 373.424 126.326 374.005 126.518 374.469C131.399 385.031 140.046 396.755 150 402.868C133.474 399.463 114.066 393.234 102.498 381.82C102.267 381.588 101.96 381.511 101.653 381.549C95.1576 382.749 88.5089 383.368 81.8986 383.368H81.7833C38.0095 383.368 2.42168 357.639 2.42168 325.99C2.46011 294.38 38.0479 268.651 81.8217 268.651Z" fill="#1A1A1A"/>
</g>
<g clip-path="url(#clip4_1922_450)">
<path d="M53.6777 329.032C53.6777 325.171 50.5787 322.041 46.7559 322.041C42.933 322.041 39.834 325.171 39.834 329.032C39.834 332.893 42.933 336.023 46.7559 336.023C50.5787 336.023 53.6777 332.893 53.6777 329.032Z" fill="#FF9E68"/>
<path d="M88.2874 329.032C88.2874 325.171 85.1883 322.041 81.3655 322.041C77.5426 322.041 74.4436 325.171 74.4436 329.032C74.4436 332.893 77.5426 336.023 81.3655 336.023C85.1883 336.023 88.2874 332.893 88.2874 329.032Z" fill="#FF9E68"/>
<path d="M122.896 329.032C122.896 325.171 119.797 322.041 115.974 322.041C112.151 322.041 109.052 325.171 109.052 329.032C109.052 332.893 112.151 336.023 115.974 336.023C119.797 336.023 122.896 332.893 122.896 329.032Z" fill="#FF9E68"/>
</g>
<g clip-path="url(#clip5_1922_450)">
<path d="M632.905 362.659C587.974 376.742 559.786 414.501 569.973 447.002C576.271 467.096 595.774 480.479 620.359 484.429C618.514 498.462 611.64 517.457 599.768 525.42C619.262 515.582 639.977 501.59 648.928 484.858C656.017 484.008 662.975 482.469 669.788 480.334C714.719 466.251 742.907 428.492 732.72 395.991C722.533 363.49 677.835 348.576 632.905 362.659Z" fill="white"/>
<path d="M600.074 526.395C599.646 526.529 599.12 526.352 598.908 525.947C598.632 525.476 598.784 524.871 599.203 524.569C607.183 519.197 616.413 504.991 619.209 485.261C593.817 480.921 575.102 466.776 569 447.307C563.973 431.271 567.857 413.513 579.963 397.293C591.949 381.238 610.679 368.554 632.599 361.683C654.519 354.813 677.138 354.536 696.144 360.877C715.304 367.298 728.617 379.623 733.655 395.698C738.694 411.773 734.797 429.491 722.692 445.712C710.679 461.818 691.976 474.451 670.055 481.322C670.016 481.334 669.978 481.346 669.939 481.358C663.281 483.445 656.439 484.947 649.532 485.826C639.761 503.629 617.315 517.692 600.191 526.359C600.152 526.371 600.113 526.383 600.074 526.395ZM633.211 363.634C588.864 377.534 560.943 414.781 570.946 446.697C576.89 465.659 595.432 479.387 620.506 483.397C621.046 483.485 621.425 484.009 621.377 484.538C619.771 496.74 614.716 511.308 606.564 520.633C622.23 511.952 639.923 499.508 648.035 484.324C648.195 484.017 648.482 483.841 648.806 483.783C655.765 482.93 662.696 481.443 669.393 479.344L669.51 479.307C713.856 465.407 741.778 428.16 731.774 396.245C721.744 364.38 677.557 349.734 633.211 363.634Z" fill="#1A1A1A"/>
</g>
<g clip-path="url(#clip6_1922_450)">
<path d="M665.783 455.913C670.979 454.285 673.89 448.815 672.286 443.696C670.681 438.578 665.169 435.748 659.973 437.377C654.778 439.005 651.867 444.475 653.471 449.593C655.076 454.712 660.588 457.541 665.783 455.913Z" fill="#1A1A1A"/>
<path d="M689.315 435.602L671.509 403.122L671.496 403.126C668.766 397.219 663.491 393.068 657.388 391.556C655.4 391.063 653.874 389.497 653.267 387.562L652.58 385.368C651.584 382.19 648.162 380.434 644.937 381.445L640.396 382.868C637.171 383.879 635.364 387.274 636.36 390.452L636.988 392.456C637.625 394.486 637.261 396.757 635.853 398.382C631.768 403.095 629.851 409.467 630.972 415.827L630.949 415.835L634.869 452.667C635.137 455.186 637.67 456.816 640.122 456.048L686.931 441.376C689.383 440.608 690.533 437.823 689.315 435.602Z" fill="#FF9E68"/>
<path d="M687.231 442.335L640.423 457.007C638.961 457.465 637.391 457.256 636.114 456.434C634.837 455.613 634.013 454.281 633.854 452.779L629.935 415.948C629.93 415.897 629.929 415.847 629.931 415.798C628.854 409.329 630.724 402.757 635.079 397.732C636.208 396.43 636.566 394.524 636.013 392.759L635.385 390.757C634.225 387.056 636.337 383.088 640.094 381.91L644.635 380.487C648.392 379.309 652.391 381.362 653.551 385.063L654.239 387.257C654.759 388.916 656.062 390.19 657.64 390.58C664.171 392.198 669.522 396.555 672.347 402.547C672.367 402.577 672.387 402.607 672.403 402.637L690.209 435.118C690.934 436.442 691.018 438.006 690.438 439.409C689.862 440.811 688.691 441.878 687.231 442.335ZM631.985 415.925L635.881 452.554C635.977 453.455 636.47 454.255 637.237 454.747C638.003 455.24 638.945 455.366 639.823 455.091L686.631 440.419C687.507 440.145 688.211 439.505 688.558 438.663C688.906 437.822 688.855 436.883 688.42 436.089L670.691 403.751C670.642 403.69 670.603 403.625 670.569 403.551C668.018 398.032 663.121 394.016 657.133 392.534C654.876 391.975 653.022 390.187 652.295 387.869L651.607 385.673C650.779 383.03 647.92 381.563 645.238 382.404L640.697 383.827C638.015 384.668 636.505 387.504 637.333 390.147L637.962 392.151C638.72 394.569 638.209 397.208 636.624 399.033C632.622 403.651 630.929 409.706 631.976 415.646C631.991 415.74 631.994 415.834 631.985 415.925Z" fill="#1A1A1A"/>
</g>
<g clip-path="url(#clip7_1922_450)">
<mask id="mask3_1922_450" style="mask-type:luminance" maskUnits="userSpaceOnUse" x="204" y="315" width="472" height="682">
<path d="M675.765 315.39H204.675V996.521H675.765V315.39Z" fill="white"/>
</mask>
<g mask="url(#mask3_1922_450)">
<path d="M376.793 407.27C378.403 414.389 379.089 421.687 378.835 428.981C378.335 440.281 378.061 444.407 376.793 445.834C375.524 447.26 359.716 452.004 360.333 452.389C360.987 452.776 372.668 466.388 389.629 466.156C406.59 465.887 426.905 453.701 427.789 429.135L415.839 433.648L409.672 414.366C411.721 413.127 413.451 411.424 414.722 409.396C415.995 407.366 416.773 405.066 416.996 402.681C417.883 394.313 422.855 395.277 423.009 393.854C423.319 391.192 419.155 386.758 416.764 383.133L409.055 367.977L400.461 365.39L383.23 370.674L376.793 377.731L373.323 384.287L374.595 397.128L376.793 407.27Z" fill="#FF9E68"/>
<path d="M490.317 394.005L529.829 360.225C529.829 360.225 558.354 336.044 575.585 328.601C592.816 321.158 606.539 314.41 626.392 316.916C646.244 319.423 645.087 324.436 645.087 324.436L655.305 345.067L645.087 365.892C645.087 365.892 641.618 362.228 641.811 358.565C642.003 354.902 646.823 347.574 646.823 347.574L639.308 337.162C639.308 337.162 637.958 342.368 638.533 344.296C639.109 346.224 642.851 356.328 641.116 358.565C639.382 360.802 636.683 358.063 634.563 355.403C632.443 352.781 625.197 338.357 623.577 338.512C621.958 338.628 612.128 340.132 597.672 347.184C583.216 354.237 575.777 362.301 575.777 362.301L549.873 397.587L530.986 425.275C530.986 425.275 512.177 446.563 501.108 453.119C495.016 443.914 491.004 433.491 489.351 422.576C486.924 405.072 490.317 394.005 490.317 394.005Z" fill="#FF9E68"/>
<path d="M645.088 323.627L668.91 330.103C668.91 330.103 669.22 333.767 665.75 334.653L674.23 340.054C674.23 340.054 672.611 343.217 669.142 342.754C666.578 342.338 664.085 341.559 661.74 340.44C662.437 340.633 670.797 349.695 670.797 349.695C670.797 349.695 669.332 351.817 664.552 350.082C659.772 348.348 651.642 340.826 651.642 340.826L645.088 323.627Z" fill="#FF9E68"/>
<path d="M360.333 452.389C360.333 452.389 343.641 458.25 323.789 467.505C303.936 476.761 289.285 484.474 289.285 484.474C289.285 484.474 290.249 507.226 296.61 523.424C302.971 539.622 323.018 557.359 323.018 557.359L344.605 549.454L365.999 618.867C365.999 618.867 393.754 621.568 426.523 613.276C459.292 604.983 485.309 591.488 491.284 584.547L489.55 510.892L522.892 474.062C522.892 474.062 503.425 465.963 495.523 442.632C487.621 419.302 487.427 408.311 490.319 394.043C490.319 394.043 471.045 408.311 465.455 411.589C453.523 418.69 440.906 424.568 427.793 429.135C427.793 429.135 427.909 456.515 401.272 464.613C375.829 472.288 360.333 452.389 360.333 452.389Z" fill="white"/>
<path d="M499.414 474.178C503.847 474.178 508.471 471.71 512.559 467.005L510.825 465.463C506.16 470.785 500.879 472.906 496.369 471.325C491.897 469.743 488.891 464.691 488.582 458.136C488.004 446.065 483.147 444.6 471.428 441.129C469.655 440.587 467.612 440.011 465.415 439.278C462.485 438.353 460.711 436.733 459.941 434.38C457.281 426.089 467.92 411.667 468.036 411.512L466.186 410.124C465.721 410.744 454.698 425.665 457.744 435.075C458.75 438.16 461.097 440.32 464.721 441.476C466.918 442.173 468.961 442.787 470.773 443.327C482.299 446.76 485.768 447.801 486.269 458.251C486.656 465.771 490.201 471.633 495.598 473.522C496.82 473.971 498.113 474.193 499.414 474.178Z" fill="#FF9E68"/>
<path d="M231.541 523.038C241.371 512.124 256.982 500.71 277.953 489.025C310.294 471.015 345.217 457.326 363.992 449.96C369.774 447.685 373.977 446.026 375.402 445.294C378.987 443.443 378.563 426.668 377.098 415.369V415.291C376.906 412.052 374.67 406.499 372.665 401.602C371.624 399.056 370.661 396.665 369.967 394.544C369.735 393.812 369.466 393.117 369.193 392.385C367.188 386.832 365.107 381.124 368.806 369.324C372.429 357.755 379.908 356.829 382.221 356.829C392.397 345.183 400.223 341.982 408.318 346.186C411.094 347.612 412.944 350.273 413.715 353.86C413.987 355.14 414.116 356.446 414.102 357.755C414.895 357.993 415.639 358.372 416.299 358.873C417.764 359.991 419.498 362.305 419.73 366.932C420.039 373.643 417.07 376.65 415.566 377.731C415.953 378.463 416.299 379.196 416.572 379.813C416.842 380.391 417.074 380.97 417.305 381.548C417.846 383.229 418.71 384.787 419.849 386.137C420.556 386.812 421.303 387.443 422.085 388.027C423.704 389.261 425.4 390.534 424.899 392.963C424.434 395.277 421.931 396.318 420.273 397.012C419.926 397.167 419.463 397.359 419.309 397.436C418.423 398.478 418.23 400.02 417.999 401.949C417.689 404.532 417.343 407.772 414.915 411.009C413.807 412.472 412.495 413.771 411.022 414.865L415.841 430.023C416.151 430.797 416.383 431.527 416.615 432.298C421.78 430.563 443.483 423.043 461.292 412.707C475.555 404.454 498.222 385.597 518.228 368.937C526.709 361.88 534.726 355.209 540.971 350.311C560.398 335.118 588.152 318.613 606.385 316.029C623.462 313.638 640.539 318.535 644.24 321.197L648.326 323.549C648.417 323.543 648.509 323.556 648.595 323.588L669.527 329.141C669.788 329.206 670.016 329.363 670.172 329.582C670.328 329.8 670.401 330.068 670.378 330.336C670.272 331.914 669.585 333.398 668.451 334.501C668.268 334.655 668.074 334.796 667.873 334.925L675.194 339.167C675.457 339.323 675.649 339.576 675.728 339.871C675.807 340.167 675.768 340.482 675.618 340.748C675.062 341.735 674.264 342.564 673.3 343.158C672.336 343.751 671.236 344.09 670.105 344.142C669.689 344.145 669.275 344.093 668.872 343.987C667.964 343.761 667.074 343.465 666.212 343.1L672.11 349C672.221 349.112 672.309 349.245 672.369 349.391C672.428 349.537 672.458 349.694 672.457 349.852C672.461 350.004 672.432 350.155 672.372 350.294C672.313 350.434 672.223 350.559 672.11 350.661C670.894 351.697 669.351 352.271 667.754 352.281C666.629 352.275 665.521 352.01 664.516 351.506C662.318 350.465 659.042 347.843 656.575 345.761V345.838C656.575 346.186 656.575 346.571 650.986 356.791C645.242 367.357 645.203 367.357 644.316 367.357C642.967 367.357 641.464 364.233 640.886 361.187C640.494 361.341 640.067 361.381 639.653 361.303C636.684 360.801 632.868 354.631 627.818 345.993C626.238 343.255 624.426 340.208 623.848 339.668C622.961 339.475 618.759 340.21 610.857 343.062C603.162 345.819 595.687 349.159 588.499 353.051C587.469 353.629 586.478 354.273 585.531 354.979L575.663 364.426C563.365 378.194 549.064 400.021 539.466 414.714C538.425 416.295 537.422 417.838 536.497 419.264C532.121 425.746 527.083 431.756 521.464 437.196C523.291 442.302 524.798 447.519 525.974 452.814C528.518 464.499 527.901 471.98 524.124 475.103L511.403 488.987C511.362 489.103 511.296 489.208 511.21 489.296L511.171 489.335L490.587 511.702C490.741 517.062 492.36 566.077 492.899 584.896C493.555 607.108 492.358 637.342 489.623 667.846C486.269 705.329 480.721 742.621 473.587 775.669C457.937 848.169 426.095 937.983 425.751 938.947L415.266 968.487C419.891 963.589 427.486 956.57 432.535 956.841C433.272 956.87 433.991 957.078 434.628 957.448C435.266 957.818 435.805 958.337 436.197 958.962C436.608 959.536 436.866 960.205 436.947 960.907C437.028 961.608 436.93 962.318 436.662 962.972C435.929 964.746 433.964 966.405 431.419 967.87C431.612 967.87 431.806 967.831 431.998 967.831C437.009 967.484 438.28 969.451 438.434 971.186C438.497 971.723 438.429 972.267 438.234 972.771C438.039 973.275 437.724 973.724 437.317 974.078C435.66 975.621 431.998 976.123 428.143 976.123C425.681 976.111 423.223 975.956 420.78 975.658C424.287 977.047 428.528 978.743 432.73 980.556C438.589 983.063 443.257 985.299 446.607 987.15C450.154 989.116 453.469 991.238 453.391 993.32C453.314 995.673 449.614 996.521 434.965 996.521C427.14 996.521 416.192 996.289 401.005 995.901C394.258 995.746 386.626 995.514 378.531 995.359C377.997 995.39 377.464 995.283 376.985 995.046C376.505 994.81 376.094 994.453 375.794 994.01C374.329 991.657 376.491 987.068 379.688 980.088C380.767 977.775 382 975.153 383.157 972.414C384.83 968.338 386.259 964.166 387.436 959.919V959.881C387.44 959.649 387.507 959.423 387.629 959.226C388.248 957.105 388.746 955.022 389.247 953.132V952.9C389.28 952.664 389.332 952.431 389.402 952.203C389.789 950.468 390.674 946.265 391.137 944.105L383.62 945.112H383.465C383.304 945.113 383.144 945.08 382.997 945.012C382.851 944.946 382.721 944.847 382.617 944.724C382.489 944.587 382.397 944.42 382.35 944.238C382.302 944.056 382.302 943.865 382.347 943.683C391.445 900.299 394.22 828.262 395.068 791.357L395.338 773.502C387.551 792.128 379.764 809.559 372.941 822.979C370.86 827.067 368.702 831.155 366.465 835.242C366.43 835.365 366.378 835.481 366.311 835.589C366.194 835.782 366.04 836.014 365.923 836.209C336.935 889.465 297.693 942.875 297.266 943.457C297.158 943.601 297.019 943.719 296.859 943.799C296.698 943.88 296.52 943.921 296.341 943.921C296.235 943.93 296.13 943.917 296.031 943.883L290.056 942.147L272.363 964.745C278.338 963.164 291.25 960.272 295.954 963.742C296.55 964.174 297.032 964.743 297.361 965.401C297.69 966.059 297.855 966.786 297.843 967.522C297.869 968.224 297.715 968.921 297.399 969.549C297.082 970.176 296.612 970.712 296.031 971.108C294.721 972.037 292.678 972.42 290.365 972.42C289.901 972.42 289.44 972.42 288.977 972.381C289.132 972.459 289.324 972.574 289.478 972.651C293.873 975.119 293.834 977.472 293.063 978.976C292.823 979.458 292.471 979.875 292.034 980.191C291.597 980.507 291.091 980.712 290.558 980.788C290.315 980.821 290.07 980.833 289.826 980.826C285.161 980.826 277.143 974.271 273.442 971.031L280.343 982.215C281.692 982.562 285.855 983.68 289.98 985.146C297.381 987.768 300.812 990.005 301.004 992.357C301.028 992.647 300.987 992.938 300.887 993.211C300.788 993.484 300.63 993.732 300.426 993.938C299.807 994.594 298.152 996.29 282.463 996.29H280.959C272.71 996.252 264.769 995.748 264.692 995.748C264.456 995.729 264.231 995.65 264.037 995.516C263.959 995.438 256.096 989.153 248.27 982.79C232.196 969.679 232.003 969.062 231.849 968.483C231.502 967.287 232.623 966.131 236.86 961.889C240.329 958.418 245.071 953.713 248.116 949.163C250.853 944.844 257.947 932.079 258.334 931.385C259.108 929.688 285.51 872.19 303.011 827.302L318.893 781.218C328.762 748.902 341.521 702.973 351.042 667.919C351.197 667.264 351.389 666.608 351.584 665.913C351.584 665.875 351.584 665.875 351.623 665.875C358.677 639.922 363.842 620.408 364.575 617.67L360.142 603.17C358.754 602.323 357.52 601.513 356.557 600.857L342.178 597.309C340.752 597.117 316.775 594.069 289.021 589.866C284.664 589.21 273.331 586.897 272.29 586.627C256.833 583.002 239.756 577.217 229.078 569.196C228.808 569.042 228.613 568.964 228.536 568.926C228.324 568.811 228.15 568.637 228.035 568.425C222.6 564.106 219.056 559.169 218.592 553.616C217.665 543.824 222.06 533.525 231.541 523.038ZM435.656 972.419C435.797 972.299 435.906 972.146 435.972 971.973C436.039 971.8 436.061 971.615 436.039 971.431C436.016 971.247 435.947 971.073 435.84 970.922C435.733 970.771 435.59 970.65 435.424 970.568C434.658 970.24 433.827 970.095 432.995 970.143C429.333 970.143 423.475 971.879 419.658 973.267C425.903 974 433.612 974.27 435.656 972.419ZM422.512 969.295C431.686 965.979 433.883 963.395 434.384 962.122C434.516 961.815 434.565 961.478 434.524 961.146C434.484 960.814 434.354 960.499 434.152 960.233C433.96 959.91 433.69 959.641 433.366 959.453C433.042 959.264 432.676 959.161 432.301 959.153H432.108C429.641 959.153 425.516 961.737 420.467 966.48C418.578 968.254 416.843 970.105 415.494 971.532C417.461 970.992 419.928 970.221 422.511 969.295H422.512ZM289.981 978.55C290.163 978.526 290.337 978.458 290.486 978.349C290.634 978.241 290.754 978.097 290.833 977.931C290.93 977.766 290.979 977.577 290.972 977.386C290.965 977.195 290.904 977.009 290.795 976.851C289.291 974.191 281.157 971.683 276.108 970.45C280.961 974.54 287.284 979.01 289.981 978.55ZM280.652 968.756C290.135 970.992 293.412 970.028 294.529 969.257C294.807 969.072 295.032 968.819 295.181 968.522C295.331 968.224 295.399 967.892 295.381 967.56C295.401 967.183 295.323 966.807 295.153 966.468C294.985 966.131 294.731 965.843 294.417 965.632C293.337 964.822 291.41 964.436 288.75 964.436C285.981 964.48 283.221 964.765 280.501 965.288C277.918 965.753 275.49 966.33 273.601 966.793C275.526 967.406 278.032 968.138 280.653 968.756H280.652ZM416.073 434.843C416.034 434.843 415.996 434.882 415.957 434.882H415.534C415.513 434.884 415.491 434.883 415.471 434.876C415.451 434.869 415.433 434.858 415.418 434.843H415.34C415.301 434.843 415.301 434.804 415.263 434.804C415.224 434.804 415.224 434.766 415.185 434.766C415.147 434.766 415.147 434.728 415.108 434.728C415.068 434.728 415.069 434.689 415.03 434.689C414.992 434.689 414.993 434.65 414.953 434.65L414.876 434.573C414.854 434.552 414.841 434.525 414.837 434.495L414.76 434.418C414.76 434.379 414.721 434.379 414.721 434.341C414.721 434.302 414.682 434.302 414.682 434.263C414.682 434.224 414.643 434.224 414.643 434.186C414.643 434.147 414.606 434.148 414.606 434.108L413.064 429.596C411.059 425.2 408.09 422.886 404.197 422.731C393.867 422.308 393.018 418.721 392.979 418.027V417.795V417.718C392.979 417.68 393.018 417.602 393.018 417.563C393.018 417.523 393.057 417.524 393.057 417.485C393.096 417.447 393.096 417.408 393.134 417.369C393.135 417.349 393.144 417.33 393.158 417.316C393.172 417.302 393.192 417.293 393.212 417.292C393.25 417.253 393.25 417.214 393.289 417.175C393.289 417.17 393.29 417.165 393.291 417.161C393.294 417.156 393.296 417.151 393.3 417.148C393.303 417.145 393.308 417.141 393.312 417.14C393.317 417.138 393.322 417.137 393.327 417.137C393.348 417.116 393.375 417.102 393.404 417.098L393.482 417.021C393.52 416.982 393.559 416.982 393.597 416.943C393.636 416.943 393.636 416.904 393.675 416.904C393.713 416.904 393.752 416.867 393.79 416.867C393.811 416.869 393.832 416.867 393.852 416.86C393.872 416.853 393.89 416.843 393.905 416.828C393.926 416.83 393.948 416.829 393.967 416.822C393.987 416.815 394.006 416.804 394.021 416.789H394.254C394.641 416.828 395.028 416.828 395.371 416.867C397.799 416.944 403.736 416.789 408.748 413.55C408.85 413.455 408.967 413.377 409.094 413.318C410.587 412.321 411.892 411.067 412.949 409.615C414.993 406.877 415.301 404.101 415.609 401.671C415.841 399.473 416.11 397.429 417.536 395.848C418.059 395.405 418.661 395.064 419.309 394.842C420.505 394.341 422.355 393.569 422.586 392.489C422.779 391.564 422.276 391.101 420.621 389.867C419.727 389.233 418.888 388.523 418.114 387.746C416.746 386.185 415.709 384.361 415.069 382.386C414.837 381.844 414.645 381.267 414.373 380.727C413.216 378.143 410.941 373.979 407.279 371.241C405.12 375.251 400.341 376.022 396.408 376.64C394.019 377.027 391.783 377.372 390.742 378.336C388.93 379.995 388.815 382.926 388.699 385.471C388.622 387.245 388.584 388.749 388.002 389.867C387.88 390.142 387.694 390.383 387.459 390.571C387.224 390.759 386.948 390.888 386.653 390.947C385.535 391.139 384.61 390.25 383.415 389.135C381.603 387.399 380.061 386.165 378.481 386.821C378.02 387.031 377.612 387.34 377.286 387.727C376.959 388.114 376.722 388.568 376.592 389.057C376.205 390.407 376.63 391.949 377.825 393.531C380.486 397.155 383.723 396.5 383.839 396.462C384.13 396.386 384.439 396.43 384.699 396.582C384.959 396.733 385.148 396.981 385.227 397.272C385.304 397.464 386.653 402.246 385.149 409.303C384.032 414.548 381.257 415.898 379.483 416.206C379.753 418.558 380.293 423.957 380.412 429.51C380.759 445.013 377.482 446.71 376.403 447.289C374.899 448.098 370.852 449.64 364.8 452.031C364.067 452.341 363.296 452.61 362.488 452.957C367.368 458.246 373.679 462.004 380.653 463.772C387.628 465.542 394.966 465.247 401.776 462.923C408.586 460.598 414.575 456.346 419.014 450.682C423.454 445.017 426.154 438.185 426.786 431.015C420.391 433.455 416.151 434.804 416.073 434.843ZM438.701 426.282C435.27 427.748 432.032 429.02 429.141 430.138C428.684 437.939 425.921 445.428 421.203 451.656C416.485 457.883 410.025 462.569 402.64 465.118C395.257 467.667 387.283 467.965 379.729 465.973C372.176 463.981 365.385 459.79 360.216 453.932C357.364 455.051 354.28 456.284 350.928 457.634C357.156 465.754 365.769 471.719 375.559 474.69C385.349 477.661 395.823 477.491 405.511 474.201C415.199 470.912 423.614 464.67 429.574 456.352C435.534 448.033 438.739 438.056 438.741 427.821C438.701 427.323 438.701 426.819 438.701 426.282ZM667.909 331.109L655.727 327.909L665.171 333.346C665.486 333.363 665.802 333.317 666.1 333.21C666.398 333.104 666.671 332.94 666.905 332.727C667.397 332.303 667.747 331.738 667.909 331.109ZM669.334 341.718C669.988 341.84 670.662 341.789 671.291 341.572C671.919 341.355 672.48 340.978 672.92 340.479L664.516 335.62C664.372 335.601 664.233 335.553 664.108 335.481C663.982 335.408 663.872 335.311 663.784 335.195L650.678 327.637L660.391 337.316C661.547 338.049 666.405 341.098 669.334 341.712V341.718ZM665.48 349.392C666.079 349.714 666.744 349.899 667.424 349.932C668.104 349.966 668.783 349.847 669.412 349.584L658.891 339.09C658.871 339.068 658.843 339.054 658.814 339.051C658.668 338.952 658.549 338.819 658.466 338.664L649.636 329.87C651.564 333.688 653.452 337.968 654.802 341.131C655.496 341.789 662.126 347.766 665.48 349.384V349.392ZM640.886 348.273C641.428 349.855 642.004 351.551 642.428 353.133C643.397 351.129 644.504 349.197 645.743 347.348C643.545 343.915 641.156 340.368 639.846 338.594C639.729 339.601 639.653 341.062 639.575 342.219L639.537 343.105C639.421 344.065 640.154 346.186 640.886 348.268V348.273ZM534.493 417.958C535.422 416.531 536.421 415.027 537.461 413.445C541.47 407.353 546.25 400.026 551.416 392.506C551.403 392.31 551.43 392.113 551.493 391.928C553.459 387.608 553.845 384.369 552.611 382.558C551.604 381.054 549.373 380.398 546.019 380.552C543.359 380.669 541.201 379.588 540.121 377.545C539.625 376.664 539.374 375.666 539.394 374.656C539.415 373.645 539.706 372.658 540.237 371.798C542.126 369.176 549.334 366.709 556.966 364.124C558.702 363.546 560.513 362.929 562.171 362.312C570.104 359.36 577.842 355.909 585.338 351.977C585.525 351.867 585.74 351.813 585.957 351.822C586.402 351.523 586.865 351.252 587.343 351.01C594.809 346.96 602.583 343.503 610.591 340.671C618.762 337.779 623.581 336.776 625.007 337.663C625.859 338.205 626.934 339.938 629.788 344.797C631.676 348.037 633.796 351.661 635.8 354.554C638.692 358.681 639.81 358.99 640.003 359.028C641.621 357.601 639.848 352.433 638.692 349.039C637.841 346.532 637.112 344.411 637.188 342.984L637.227 342.097C637.459 338.202 637.574 336.428 638.537 335.696C638.706 335.568 638.899 335.477 639.106 335.431C639.312 335.384 639.526 335.382 639.733 335.425C640.234 335.542 641.082 335.735 648.059 346.725C648.098 346.802 648.136 346.84 648.175 346.918C648.175 346.956 648.213 346.995 648.213 347.033C648.213 347.071 648.213 347.072 648.252 347.11V347.535C648.252 347.573 648.213 347.612 648.213 347.65C648.213 347.688 648.213 347.728 648.175 347.728C648.145 347.797 648.106 347.862 648.059 347.92C646.556 350.118 642.662 356.404 642.97 359.412C643.097 361.021 643.529 362.592 644.243 364.039C646.594 359.952 653.186 347.843 654.188 345.687C653.259 343.026 646.363 327.216 643.433 323.629L642.814 323.009C640.076 321.043 623.848 315.836 606.617 318.266C594.204 320.001 568.762 331.341 542.32 352.047C536.114 356.906 528.095 363.578 519.615 370.631C510.363 378.345 500.534 386.482 491.244 393.885V393.924C491.244 393.963 489.663 398.668 489.47 406.766C489.316 414.247 490.357 426.24 496.216 440.933C497.643 444.471 499.278 447.923 501.112 451.268C507.443 446.638 513.446 441.574 519.075 436.112C519.174 435.956 519.306 435.823 519.462 435.725C525.097 430.359 530.136 424.4 534.493 417.952V417.958ZM390.056 958.696L416.346 958.231L422.861 939.952L404.319 942.382C404.249 942.424 404.169 942.452 404.087 942.459C403.971 942.498 394.295 944.735 391.79 951.829C391.325 953.869 390.747 956.222 390.053 958.691L390.056 958.696ZM254.174 943.27L276.84 955.148L282.892 947.435C282.926 947.3 282.978 947.17 283.047 947.048C283.347 946.659 283.558 946.209 283.665 945.729C283.773 945.249 283.773 944.751 283.666 944.271C283.165 941.919 280.313 939.759 279.079 938.988L259.766 933.358C258.796 935.089 256.445 939.293 254.171 943.265L254.174 943.27ZM349.886 680.454C341.444 711.305 331.232 747.823 322.748 775.976C322.825 776.214 322.825 776.471 322.748 776.709V776.747C322.319 778.08 322.11 779.474 322.129 780.874C322.168 783.689 323.324 785.656 325.521 786.735C326.639 787.277 329.53 786.503 332.305 785.771C337.316 784.422 343.561 782.763 346.607 786.812C347.152 787.521 347.531 788.341 347.718 789.216C347.905 790.09 347.894 790.994 347.686 791.864C346.26 798.651 335.312 805.747 328.913 809.333C318.691 815.303 309.921 823.469 303.24 833.243C303.155 833.386 303.035 833.506 302.893 833.59C286.742 874.391 264.615 922.981 260.837 931.271L279.764 936.786C279.785 936.784 279.806 936.786 279.826 936.793C279.846 936.799 279.864 936.81 279.879 936.824L281.961 937.444L295.8 941.493C298.344 938.022 310.564 921.17 325.559 898.302C325.579 898.168 325.618 898.038 325.675 897.915C330.84 888.313 329.028 883.415 327.178 882.027C325.251 880.6 320.239 882.373 315.806 883.916C309.986 885.96 304.473 887.888 301.775 884.957C301.11 884.319 300.61 883.53 300.315 882.658C300.02 881.786 299.938 880.855 300.079 879.944C301.085 873.89 312.067 867.835 327.255 859.467L328.681 858.693C343.908 850.325 361.91 836.21 364.3 834.32C366.536 830.194 368.733 826.068 370.815 821.941C379.141 805.629 388.817 783.34 398.299 760.163L440.934 648.521C440.934 648.483 440.972 648.444 441.011 648.406C441.011 648.367 441.05 648.328 441.05 648.29L441.165 648.174C441.204 648.136 441.204 648.097 441.243 648.097C441.287 648.049 441.339 648.01 441.398 647.981C441.436 647.981 441.436 647.942 441.475 647.942C441.562 647.897 441.651 647.858 441.744 647.827L464.103 641.657C464.175 641.625 464.255 641.612 464.335 641.618H464.606C464.644 641.618 464.644 641.618 464.683 641.657C464.722 641.657 464.798 641.695 464.838 641.695C464.867 641.699 464.894 641.712 464.915 641.733C464.953 641.772 464.993 641.772 465.031 641.811C465.035 641.811 465.041 641.811 465.045 641.813C465.05 641.815 465.055 641.818 465.059 641.821C465.062 641.825 465.065 641.83 465.066 641.835C465.069 641.839 465.069 641.844 465.069 641.849L465.108 641.888L465.223 642.003L465.301 642.081C465.339 642.119 465.378 642.158 465.378 642.196C465.378 642.234 465.417 642.235 465.417 642.274C465.456 642.312 465.456 642.351 465.494 642.429C465.498 642.458 465.511 642.485 465.532 642.506C465.532 642.545 465.571 642.622 465.571 642.661V642.699C465.61 643.241 466.268 653.767 459.288 660.322C453.236 666.03 446.952 672.895 446.027 680.688C445.717 683.194 446.105 686.742 446.569 690.869C447.649 700.703 448.959 712.966 442.213 721.411C439.784 724.419 437.125 727.388 434.504 730.243C426.986 738.495 419.894 746.285 419.316 755.232C419.2 757.044 419.2 759.319 419.2 761.941C419.238 777.251 419.278 802.896 396.534 818.822C395.107 856.92 391.907 908.252 384.93 942.689L423.865 937.598C426.833 929.23 456.477 844.352 471.391 775.284C478.522 742.312 484.035 705.099 487.35 667.731C489.971 638.46 491.166 609.499 490.703 587.673C487.08 590.95 478.175 598.126 462.794 605.874C449.303 612.662 428.795 620.799 400.578 626.275C398.845 633.349 396.35 640.215 393.138 646.752C388.783 655.579 383.385 662.834 377.102 668.348C372.957 671.976 368.26 674.918 363.186 677.063C363.094 677.125 362.988 677.164 362.877 677.179H362.839C358.654 678.743 354.311 679.841 349.886 680.454ZM363.224 631.171C360.911 639.848 357.557 652.265 353.663 666.611C353.354 668.153 353.008 672.241 355.051 674.169C356.246 675.287 358.135 675.634 360.718 675.133L361.951 674.824C366.855 672.796 371.387 669.968 375.366 666.456C381.418 661.173 386.661 654.154 390.862 645.631C393.83 639.532 396.18 633.15 397.878 626.582C386.419 628.743 374.85 630.274 363.224 631.171ZM366.461 616.555C408.21 618.368 439.742 609.498 458.862 601.708C477.439 594.111 488.235 586.09 490.471 584.354C490.124 573.056 489.465 551.73 488.929 535.032C488.704 534.835 488.565 534.557 488.542 534.258C487.923 522.92 479.214 518.023 472.236 514.124C470.964 513.392 469.769 512.736 468.651 512.042C468.186 511.772 467.687 511.464 467.186 511.155C461.828 507.877 454.542 503.404 453.309 497.504C453.076 496.182 453.123 494.825 453.449 493.523C453.774 492.221 454.37 491.002 455.198 489.945C461.057 481.654 470.926 486.59 475.667 488.943C476.322 489.305 477.006 489.614 477.71 489.868C480.1 490.292 481.603 489.521 483.376 488.634C485.223 487.512 487.345 486.924 489.506 486.937C491.356 487.014 493.207 487.747 495.403 488.596C497.342 489.389 499.324 490.071 501.34 490.639C504.501 491.491 507.392 489.482 508.664 488.364L521.192 474.751C516.489 472.9 503.614 465.804 494.016 441.856C484.996 419.258 486.808 402.829 488.196 396.313C478.443 403.948 469.386 410.581 462.329 414.669C455.399 418.609 448.256 422.162 440.935 425.312C440.973 426.164 441.012 426.971 441.012 427.819C441.01 438.593 437.617 449.092 431.315 457.828C425.013 466.565 416.121 473.095 405.901 476.492C395.681 479.89 384.652 479.982 374.376 476.757C364.101 473.531 355.101 467.151 348.654 458.521C345.647 459.717 342.486 461.028 339.21 462.416C339.135 462.49 339.042 462.543 338.94 462.571L338.825 462.61C338.381 462.825 337.986 463.127 337.662 463.498C337.336 463.869 337.09 464.301 336.936 464.77C336.548 466.157 337.09 467.931 338.516 469.976C339.827 471.415 341.231 472.767 342.718 474.025C348.539 479.269 356.518 486.442 355.671 491.763C355.524 492.968 355.067 494.114 354.344 495.087C353.62 496.061 352.656 496.829 351.546 497.317C350.482 497.755 349.342 497.978 348.192 497.972C345.339 497.972 342.102 496.815 338.981 494.618C336.86 493.113 334.856 491.455 333.121 489.989C329.228 486.712 326.182 484.167 323.638 484.9C320.07 485.791 316.355 485.936 312.729 485.324C307.834 484.55 303.982 482.508 301.511 479.385C297.849 481.197 294.149 483.048 290.487 484.938C290.719 488.64 292.607 513.589 300.936 529.055C310.111 546.1 320.674 554.044 323.256 555.779C323.308 555.731 323.377 555.703 323.449 555.702L324.068 555.47C325.61 554.85 329.696 552.769 330.12 548.566C330.166 547.854 330.101 547.138 329.927 546.445C329.58 544.44 329.194 541.933 331.585 539.234C336.056 534.182 345.038 538.424 352.362 542.704C361.96 548.297 370.788 554.428 370.403 561.254C370.21 564.416 368.745 565.958 367.512 566.691C366.343 567.33 365.026 567.649 363.695 567.617C361.665 567.577 359.668 567.103 357.836 566.228C356.294 565.496 351.707 563.375 350.55 564.454L353.133 572.9C356.41 571.894 359.339 571.126 360.418 571.203C363.001 571.319 383.316 579.533 386.053 582.772C386.226 582.958 386.359 583.177 386.445 583.415C386.531 583.654 386.568 583.907 386.554 584.16C386.529 584.387 386.453 584.605 386.333 584.798C386.212 584.992 386.049 585.156 385.857 585.279C385.143 585.682 384.323 585.857 383.506 585.78C380.753 585.664 378.016 585.289 375.334 584.662C373.792 584.352 372.288 584.042 370.978 583.736C372.288 584.931 373.715 586.281 375.102 587.593C385.087 597.117 385.165 598.776 384.277 599.972C384.04 600.289 383.74 600.552 383.394 600.745C383.048 600.938 382.666 601.055 382.272 601.09C381.566 601.121 380.864 600.975 380.229 600.665C380.14 600.971 380.024 601.268 379.883 601.553C378.919 603.635 375.334 602.439 364.54 597.58C370.901 602.941 372.982 605.293 372.018 607.027C371.897 607.243 371.73 607.43 371.531 607.577C371.332 607.724 371.103 607.827 370.862 607.879C370.697 607.913 370.529 607.926 370.361 607.918C368.703 607.918 365.812 606.53 362.921 604.91L366.461 616.555ZM312.918 549.841L300.737 554.237C311.607 559.558 333.195 569.392 346.069 575.177C347.535 574.675 349.23 574.135 350.888 573.596L343.834 550.612L323.596 558.286C323.432 558.341 323.259 558.362 323.086 558.349C322.914 558.335 322.746 558.288 322.593 558.208C319.063 555.793 315.816 552.986 312.918 549.841ZM220.788 553.465C221.212 558.44 224.643 563.067 230.117 567.233C232.044 568.043 238.558 570.394 250.778 570.857C251.552 570.896 252.281 570.896 253.052 570.935C263.383 571.322 273.136 571.632 276.143 576.719C277.454 578.918 277.377 581.694 275.95 585.203C280.383 586.167 284.817 586.977 289.211 587.633C317.659 591.952 342.138 595.037 342.369 595.075C342.389 595.073 342.411 595.075 342.431 595.082C342.451 595.089 342.469 595.099 342.485 595.114L357.133 598.7C357.268 598.734 357.398 598.787 357.52 598.855C361.953 601.863 367.35 604.909 369.547 605.565C368.198 603.714 363.687 599.934 361.606 598.199C357.79 595.037 357.327 594.613 357.712 593.61C357.773 593.463 357.863 593.33 357.975 593.217C358.087 593.105 358.221 593.016 358.368 592.954C359.065 592.684 359.447 592.839 364.728 595.191C368.12 596.734 375.907 600.243 377.912 600.281C377.992 600.113 378.034 599.928 378.034 599.742C378.034 599.555 377.992 599.371 377.912 599.202C377.796 599.086 377.68 599.009 377.602 598.932L361.181 587.98C360.934 587.803 360.766 587.535 360.713 587.236C360.659 586.937 360.726 586.628 360.896 586.377C361.067 586.125 361.33 585.95 361.628 585.89C361.926 585.829 362.236 585.887 362.491 586.052L378.99 597.042C379.21 597.175 379.406 597.344 379.568 597.543C380.342 598.163 381.419 598.855 382.074 598.778C382.095 598.78 382.117 598.778 382.136 598.771C382.156 598.764 382.175 598.754 382.19 598.739C381.149 596.348 372.013 587.517 363.303 579.958C363.08 579.757 362.945 579.476 362.927 579.176C362.909 578.877 363.008 578.581 363.205 578.354C363.402 578.127 363.68 577.986 363.979 577.961C364.279 577.937 364.575 578.031 364.807 578.223C364.845 578.262 365.848 579.11 367.39 580.498C367.469 580.492 367.548 580.505 367.622 580.537C374.329 582.233 380.613 583.352 383.35 583.429C381.884 582.426 378.724 580.691 372.668 578.069C366.23 575.253 361.141 573.48 360.294 573.441C358.983 573.364 352.468 575.408 346.764 577.336C346.572 577.448 346.362 577.526 346.144 577.569C344.756 578.033 343.407 578.498 342.251 578.918C342.126 578.963 341.995 578.989 341.864 578.996C340.766 579.345 339.623 579.528 338.471 579.538H338.282C336.737 579.515 335.219 579.132 333.849 578.42C332.191 577.494 331.382 576.029 330.533 574.486C329.104 571.477 326.642 569.083 323.595 567.738C323.385 567.636 323.211 567.474 323.094 567.273C313.573 562.915 303.396 558.172 297.575 555.202C297.377 555.152 297.193 555.06 297.034 554.932C295.657 554.26 294.319 553.514 293.025 552.696C286.935 548.222 285.816 540.933 285.739 540.625C285.715 540.476 285.722 540.322 285.757 540.175C285.793 540.027 285.858 539.889 285.947 539.766C286.037 539.644 286.15 539.54 286.279 539.462C286.408 539.383 286.552 539.331 286.702 539.308C286.852 539.286 287.005 539.293 287.152 539.329C287.299 539.365 287.438 539.43 287.559 539.52C287.681 539.611 287.784 539.724 287.862 539.854C287.94 539.984 287.991 540.128 288.014 540.278C288.014 540.356 289.055 546.949 294.374 550.844C295.513 551.576 296.697 552.233 297.921 552.811L304.242 550.536C299.192 542.785 292.909 529.403 289.826 508.27C288.744 500.954 288.177 493.569 288.129 486.173C285.084 487.755 282.077 489.413 279.073 491.071C238.79 513.474 219.207 534.455 220.788 553.465Z" fill="#1A1A1A"/>
</g>
</g>
<g clip-path="url(#clip8_1922_450)">
<path d="M249.152 484.162L344.724 407.371L384.934 464.171L289.044 540.483L249.152 484.162Z" fill="#FF9E68"/>
<path d="M326.148 422.291L249.151 484.162L270.414 514.207C305.119 493.713 320.431 446.208 326.148 422.291Z" fill="white"/>
<path d="M289.628 541.236C289.424 541.395 289.165 541.463 288.91 541.427C288.649 541.39 288.417 541.248 288.265 541.035L248.372 484.714C248.081 484.302 248.161 483.735 248.555 483.418L344.127 406.628C344.33 406.451 344.597 406.389 344.857 406.426C345.117 406.462 345.351 406.604 345.504 406.819L385.715 463.619C386.007 464.031 385.925 464.601 385.528 464.917L289.638 541.229C289.635 541.231 289.632 541.234 289.628 541.236ZM250.45 484.341L289.241 539.108L383.635 463.988L344.53 408.75L250.45 484.341Z" fill="#1A1A1A"/>
<path d="M318.544 483.973C318.383 484.098 318.183 484.171 317.972 484.173L249.163 485.116C248.636 485.122 248.203 484.701 248.197 484.174C248.19 483.648 248.612 483.214 249.14 483.208L317.281 482.275L343.824 407.056C344 406.557 344.544 406.298 345.041 406.471C345.538 406.646 345.8 407.19 345.624 407.687L318.86 483.536C318.797 483.712 318.686 483.864 318.544 483.973Z" fill="#1A1A1A"/>
<path d="M289.628 541.237C289.454 541.371 289.232 541.447 288.995 541.435C288.469 541.409 288.065 540.961 288.091 540.435L291.017 483.527C291.045 483 291.493 482.596 292.019 482.621C292.545 482.648 292.95 483.096 292.923 483.621L289.997 540.53C289.983 540.819 289.841 541.072 289.628 541.237Z" fill="#1A1A1A"/>
<path d="M385.519 464.925C385.313 465.085 385.043 465.16 384.766 465.111L328.064 455.045C327.546 454.953 327.201 454.458 327.294 453.939C327.386 453.422 327.881 453.076 328.402 453.167L385.104 463.232C385.622 463.324 385.967 463.819 385.875 464.338C385.831 464.58 385.699 464.785 385.519 464.925Z" fill="#1A1A1A"/>
<path d="M358.659 426.988C358.649 426.996 358.639 427.004 358.628 427.011C358.227 427.295 357.674 427.2 357.39 426.801C354.21 422.309 351.094 420.243 348.126 420.659C340.6 421.717 334.788 438.193 332.877 443.608C332.713 444.069 332.206 444.314 331.744 444.151C331.282 443.989 331.039 443.482 331.203 443.02C334.673 433.184 340.182 419.983 347.882 418.902C351.559 418.386 355.246 420.698 358.84 425.774C359.116 426.163 359.033 426.698 358.659 426.988Z" fill="#1A1A1A"/>
<path d="M265.876 507.706C265.865 507.714 265.856 507.721 265.844 507.729C265.444 508.013 264.89 507.919 264.607 507.519C259.48 500.281 257.976 494.826 260.008 490.842C262.71 485.54 271.557 482.966 287.849 482.744C288.339 482.738 288.742 483.129 288.748 483.619C288.753 484.109 288.362 484.511 287.871 484.519C272.526 484.729 263.929 487.057 261.59 491.647C259.887 494.987 261.348 499.843 266.057 506.492C266.333 506.881 266.249 507.416 265.876 507.706Z" fill="#1A1A1A"/>
<path d="M286.692 483.653C281.393 483.773 272.774 484.231 267.513 486.242C267.447 486.265 266.65 486.551 266.595 486.594C264.312 487.507 262.087 488.911 260.894 491.057C260.892 491.07 260.878 491.081 260.877 491.093C260.786 491.246 260.414 492.041 260.389 492.234C260.165 492.713 259.94 494.167 260.033 495.269C260.026 495.275 260.032 495.282 260.032 495.282C260.055 495.645 260.096 496.017 260.168 496.4C260.168 496.4 260.173 496.407 260.166 496.412C260.845 500.09 262.978 503.608 265.1 506.68L249.152 484.158L286.692 483.653Z" fill="#1A1A1A"/>
<path d="M358.115 426.283C346.064 409.268 337.131 429.239 332.537 441.932L344.725 407.366L358.115 426.283Z" fill="#1A1A1A"/>
</g>
<g clip-path="url(#clip9_1922_450)">
<mask id="mask4_1922_450" style="mask-type:luminance" maskUnits="userSpaceOnUse" x="360" y="337" width="82" height="82">
<path d="M360.974 337.611H441.656V418.292H360.974V337.611Z" fill="white"/>
</mask>
<g mask="url(#mask4_1922_450)">
<path d="M401.315 418.292C423.595 418.292 441.656 400.231 441.656 377.951C441.656 355.672 423.595 337.611 401.315 337.611C379.035 337.611 360.974 355.672 360.974 377.951C360.974 400.231 379.035 418.292 401.315 418.292Z" fill="white"/>
</g>
</g>
<g clip-path="url(#clip10_1922_450)">
<mask id="mask5_1922_450" style="mask-type:luminance" maskUnits="userSpaceOnUse" x="-136" y="-36" width="808" height="488">
<path d="M671.532 -35.9065L671.532 451.125L-135.941 451.125L-135.941 -35.9065L671.532 -35.9065Z" fill="white"/>
</mask>
<g mask="url(#mask5_1922_450)">
<path d="M311.198 188.948C311.198 188.948 64.6529 238.724 -75.6214 232.18C-78.2191 182.482 -76.9203 177.246 -76.9203 177.246L325.784 95.7717L311.198 188.948Z" fill="#1A1A1A"/>
<path d="M116.007 220.867C116.007 220.867 157.076 216.085 184.845 197.994C212.615 179.903 237.643 177.777 233.37 188.417C229.097 199.056 257.372 187.354 269.101 181.497C280.829 175.639 293.571 185.696 288.791 192.668C262.659 196.931 151.206 217.679 116.007 220.867Z" fill="#FF9E68"/>
<path d="M-78.545 186.175C-78.545 178.542 -78.2203 177.104 -78.1943 176.935L-77.9865 176.145L-77.1942 175.976L327.341 94.1389L312.327 190.037L311.444 190.218C308.976 190.711 63.132 239.956 -75.6876 233.476H-76.8695V232.31C-78.2203 207.597 -78.545 193.808 -78.545 186.175ZM-75.7655 178.335C-75.9863 180.991 -76.4279 191.838 -74.3887 230.949C60.1058 236.884 293.727 191.1 310.067 187.847L324.224 97.4176L-75.7655 178.335Z" fill="#1A1A1A"/>
<path d="M332.16 446.59C336.459 439.825 349.733 416.563 349.733 416.563C349.733 416.563 353.954 426.931 356.019 431.492C358.085 436.054 364.046 436.87 362.423 429.898C360.165 421.477 358.43 412.924 357.227 404.291C356.239 392.452 356.553 380.541 358.163 368.77L332.887 368.77C332.887 382.74 333.433 392.096 332.666 394.507C329.224 405.341 312.833 412.442 308.274 415.099C303.715 417.756 306.664 422.136 310.08 420.14C313.496 418.144 325.912 413.777 325.912 413.777C325.912 413.777 314.716 423.484 311.482 428.421C308.248 433.358 312.301 434.11 313.989 432.827C315.678 431.544 329.939 419.311 329.939 419.311C329.939 419.311 321.509 432.97 318.016 438.361C314.522 443.752 318.379 446.292 321.678 442.547C324.977 438.801 336.55 423.302 336.55 423.302C336.55 423.302 328.666 438.555 327.198 443.363C325.731 448.171 327.874 453.354 332.16 446.59Z" fill="#FF9E68"/>
<path d="M304.626 418.313C304.69 417.389 305 416.498 305.526 415.735C306.051 414.972 306.772 414.363 307.613 413.971C308.276 413.583 309.198 413.103 310.289 412.533C316.238 409.397 328.629 402.891 331.408 394.118C331.863 392.705 331.785 387.638 331.694 381.224C331.694 377.647 331.577 373.591 331.577 368.964V368.77C331.577 368.426 331.713 368.097 331.957 367.854C332.2 367.61 332.532 367.474 332.876 367.474L358.151 367.474C358.338 367.473 358.523 367.511 358.693 367.587C358.863 367.663 359.015 367.775 359.138 367.915C359.256 368.056 359.346 368.219 359.399 368.394C359.453 368.57 359.469 368.756 359.45 368.938C357.845 380.615 357.53 392.431 358.515 404.174C359.456 411.342 360.845 418.445 362.671 425.44C363.035 426.883 363.372 428.269 363.684 429.6C364.853 434.628 362.385 435.885 361.593 436.145C359.242 436.935 356.216 435.095 354.839 432.024C353.462 428.952 350.943 422.874 349.54 419.518C346.072 425.57 336.72 441.834 333.265 447.277C330.668 451.281 328.732 451.462 327.512 450.905C325.265 449.881 325.057 446.058 325.992 442.987C326.953 440.268 328.071 437.606 329.343 435.017C326.654 438.516 324.018 441.873 322.68 443.402C320.459 445.929 318.082 445.994 316.705 444.97C315.328 443.946 314.536 441.367 316.952 437.648C318.744 434.888 321.862 429.872 324.446 425.738C320.394 429.211 315.731 433.177 314.783 433.89C314.092 434.442 313.232 434.742 312.348 434.742C311.462 434.742 310.603 434.442 309.912 433.89C309.094 433.138 308.081 431.298 310.406 427.786C312.289 424.922 316.653 420.594 320.134 417.328C316.917 418.461 313.771 419.789 310.718 421.306C310.279 421.61 309.784 421.821 309.262 421.928C308.739 422.036 308.2 422.037 307.678 421.932C307.155 421.826 306.659 421.617 306.22 421.315C305.779 421.015 305.405 420.627 305.12 420.179C304.79 419.613 304.62 418.969 304.626 418.313ZM334.356 388.053C334.476 390.344 334.319 392.642 333.889 394.896C330.785 404.68 318.238 411.276 311.497 414.827C310.445 415.371 309.562 415.838 308.899 416.213C307.315 417.146 306.977 418.196 307.354 418.805C307.73 419.414 308.406 419.57 309.406 419C312.887 416.965 324.992 412.74 325.472 412.52C325.757 412.419 326.067 412.419 326.35 412.521C326.635 412.624 326.874 412.821 327.027 413.08C327.182 413.339 327.24 413.644 327.193 413.942C327.145 414.238 326.997 414.511 326.771 414.71C326.654 414.814 315.666 424.365 312.575 429.082C311.497 430.728 311.458 431.674 311.679 431.881C311.918 432.005 312.188 432.059 312.457 432.035C312.726 432.013 312.983 431.915 313.198 431.751C314.848 430.456 328.966 418.365 329.122 418.248C329.357 418.052 329.655 417.945 329.961 417.946C330.269 417.947 330.565 418.057 330.799 418.256C331.031 418.455 331.187 418.73 331.237 419.032C331.287 419.334 331.228 419.644 331.07 419.907C330.979 420.049 322.589 433.644 319.134 438.983C317.835 441.03 317.835 442.482 318.277 442.87C318.718 443.259 319.576 442.87 320.732 441.665C323.966 437.998 335.421 422.654 335.538 422.499C335.732 422.234 336.019 422.053 336.342 421.991C336.664 421.93 336.998 421.992 337.276 422.166C337.555 422.34 337.757 422.613 337.841 422.93C337.926 423.246 337.888 423.583 337.733 423.872C337.655 424.028 329.94 439.073 328.473 443.713C327.706 446.227 328.187 448.274 328.59 448.521C328.59 448.521 329.46 448.391 331.07 445.864C335.292 439.203 348.475 416.123 348.605 415.889C348.727 415.678 348.905 415.505 349.122 415.39C349.337 415.275 349.581 415.223 349.826 415.241C350.068 415.257 350.302 415.341 350.5 415.484C350.697 415.625 350.85 415.821 350.943 416.045C350.943 416.149 355.164 426.412 357.203 430.935C358.138 433.021 359.931 433.942 360.749 433.669C361.32 433.475 361.658 432.373 361.151 430.17L360.151 426.024C358.286 418.923 356.872 411.711 355.917 404.434C354.957 392.983 355.205 381.465 356.657 370.066L334.175 370.066C334.175 374.213 334.175 377.906 334.279 381.185C334.33 383.854 334.356 386.135 334.356 388.053Z" fill="#1A1A1A"/>
<path d="M323.783 370.053L321.497 390.386L360.124 393.211L361.631 369.249L323.783 370.053Z" fill="white"/>
<path d="M320.198 390.451V390.308L322.471 369.975C322.506 369.656 322.658 369.362 322.898 369.15C323.138 368.936 323.449 368.819 323.769 368.822L361.618 368.018C361.799 368.013 361.98 368.047 362.147 368.115C362.315 368.185 362.467 368.289 362.592 368.42C362.714 368.55 362.809 368.702 362.868 368.87C362.928 369.037 362.954 369.214 362.942 369.392L361.436 393.366C361.425 393.537 361.38 393.703 361.304 393.858C361.229 394.01 361.123 394.148 360.994 394.261C360.864 394.372 360.714 394.456 360.551 394.511C360.389 394.564 360.217 394.585 360.046 394.572L321.406 391.746C321.23 391.734 321.059 391.686 320.903 391.607C320.747 391.526 320.608 391.415 320.496 391.28C320.303 391.047 320.198 390.753 320.198 390.451ZM324.938 371.388L322.938 389.155L358.916 391.746L360.215 370.493L324.938 371.388Z" fill="#1A1A1A"/>
<path d="M316.744 374.9L361.112 378.58C361.112 378.58 363.216 276.306 499.321 190.024C524.285 173.838 534.676 159.933 540.287 136.891C548.391 103.677 543.118 65.0584 536.858 46.7989C530.364 27.7619 515.518 1.06594 486.203 -12.1913C435.549 -35.0643 354.488 -52.0926 222.864 -2.64038C233.398 22.9022 239.022 34.7339 239.022 34.7339L297.08 25.3903C297.08 25.3903 291.703 108.55 315.108 115.56C294.599 123.608 303.899 170.261 310.146 188.948C353.345 177.777 409.689 171.026 409.689 171.026C409.689 171.026 321.108 227.165 316.744 374.9Z" fill="#FF9E68"/>
<path d="M434.562 240.565C434.562 240.565 414.3 254.392 396.896 260.003C379.491 265.615 374.14 278.444 385.518 280.583C396.896 282.721 372.361 300.449 360.632 316.402C348.904 332.355 366.308 348.398 366.308 348.398C364.593 352.169 389.505 275.542 434.562 240.565Z" fill="white"/>
<path d="M463.977 164.961C463.977 164.961 448.962 188.378 423.362 189.441C397.762 190.503 409.712 204.797 396.697 206.819C385.32 208.594 375.539 209.411 362.746 219.597C375.63 203.307 395.515 181.678 409.322 170.818L463.977 164.961Z" fill="#1A1A1A"/>
<path d="M318.483 355.137C318.483 355.137 320.444 313.991 345.681 297.844C370.917 281.697 346.031 284.717 341.784 285.261C337.537 285.805 336.978 273.909 351.564 263.23C366.15 252.552 391.919 233.256 376.45 234.331C360.981 235.407 350.668 247.096 342.317 257.736C333.965 268.375 316.522 328 318.483 355.137Z" fill="#1A1A1A"/>
<path d="M221.474 -2.63993C221.474 -2.81915 221.513 -2.9963 221.591 -3.15829C221.659 -3.31743 221.759 -3.46141 221.884 -3.58167C222.008 -3.7018 222.156 -3.79575 222.319 -3.85809C327.148 -43.241 413.611 -46.3512 486.658 -13.3701C518.466 1.0016 532.494 30.1857 538.04 46.3847C544.053 63.9314 549.937 102.588 541.508 137.189C535.728 160.866 524.87 174.978 499.945 191.113C429.964 235.472 396.285 284.095 380.348 317.063C363.113 352.778 362.411 378.347 362.411 378.606C362.407 378.782 362.367 378.956 362.293 379.117C362.219 379.277 362.114 379.421 361.983 379.539C361.85 379.657 361.697 379.745 361.529 379.801C361.362 379.857 361.184 379.878 361.008 379.863L316.627 376.195C316.301 376.17 315.996 376.022 315.775 375.781C315.553 375.541 315.431 375.226 315.432 374.9C317.705 298.22 342.929 246.604 363.71 216.798C380.465 192.81 397.116 178.672 404.688 172.931C389.869 174.862 345.513 181.069 310.393 190.167C310.072 190.249 309.733 190.207 309.443 190.047C309.154 189.888 308.936 189.625 308.834 189.311C303.483 173.32 293.248 127.107 311.977 115.586C292.339 104.208 294.989 38.4407 295.612 26.8811L239.152 35.9525C238.874 35.9963 238.591 35.9491 238.342 35.8184C238.093 35.6875 237.894 35.48 237.775 35.2268C237.775 35.1102 232.021 23.0711 221.513 -2.21227C221.477 -2.35159 221.463 -2.49621 221.474 -2.63993ZM543.04 99.9317C543.04 77.9662 539.261 57.9442 535.585 47.214C530.182 31.4816 516.505 2.9714 485.58 -11.0116C413.494 -43.565 328.083 -40.5844 224.514 -1.94013C233.086 18.652 238.333 30.1338 239.788 33.257L296.937 24.0689C297.129 24.0389 297.327 24.0522 297.512 24.1083C297.699 24.1645 297.871 24.2617 298.015 24.3929C298.156 24.5239 298.268 24.685 298.34 24.8644C298.412 25.0437 298.442 25.237 298.431 25.4297C298.431 26.259 293.378 107.642 315.536 114.278C315.793 114.355 316.019 114.51 316.184 114.721C316.349 114.932 316.445 115.19 316.458 115.457C316.478 115.732 316.409 116.005 316.261 116.238C316.114 116.472 315.896 116.652 315.64 116.753C297.158 124.01 304.392 166.672 311.055 187.38C353.683 176.482 409.026 169.795 409.585 169.73C409.878 169.691 410.177 169.754 410.43 169.909C410.684 170.063 410.877 170.299 410.977 170.577C411.077 170.856 411.079 171.161 410.981 171.44C410.884 171.72 410.694 171.958 410.442 172.114C410.221 172.257 388.18 186.46 365.892 218.418C345.383 247.77 320.55 298.44 318.069 373.604L359.814 377.167C360.216 371.349 362.749 347.569 377.932 316.091C394.012 282.773 427.976 233.67 498.542 188.935C522.779 173.216 533.364 159.518 538.949 136.58C541.755 124.568 543.128 112.266 543.04 99.9317Z" fill="#1A1A1A"/>
</g>
</g>
<g clip-path="url(#clip11_1922_450)">
<mask id="mask6_1922_450" style="mask-type:luminance" maskUnits="userSpaceOnUse" x="91" y="-44" width="721" height="390">
<path d="M91.1533 345.547L91.1533 -43.7008L811.658 -43.7008L811.658 345.547L91.1533 345.547Z" fill="white"/>
</mask>
<g mask="url(#mask6_1922_450)">
<path d="M149.282 30.2123C149.282 30.2123 155.236 41.5399 160.624 50.8853C270.783 -46.6743 308.354 60.089 296.303 109.506L339.261 137.117L293.609 156.941H293.467C293.467 156.941 298.713 248.978 143.185 278.572C143.894 289.474 144.603 298.82 144.603 298.82C208.969 291.74 279.432 302.926 353.722 194.747C390.3 200.411 459.629 211.455 475.508 216.269C495.215 164.304 495.215 88.4082 495.215 88.4082L357.834 79.2045C301.832 -115.065 149.282 30.2123 149.282 30.2123Z" fill="white"/>
<path d="M319.129 210.039C324.8 214.004 330.33 215.986 331.322 214.429C332.314 212.871 328.486 208.623 322.815 204.8C317.144 200.977 311.615 198.853 310.623 200.411C309.63 201.968 313.458 206.075 319.129 210.039Z" fill="#FF9E68"/>
<path d="M295.877 194.888C294.176 193.472 292.049 193.048 291.341 194.039C290.632 195.03 291.482 196.871 293.184 198.145C294.885 199.42 297.012 199.986 297.72 198.995C298.429 198.004 297.579 196.304 295.877 194.888Z" fill="#FF9E68"/>
<path d="M329.62 183.844C328.628 185.118 331.747 189.083 336.567 192.623C341.388 196.163 345.924 198.003 346.917 196.729C347.909 195.455 344.79 191.49 339.97 187.95C335.149 184.41 330.613 182.57 329.62 183.844Z" fill="#FF9E68"/>
<path d="M318.846 227.739C314.876 227.031 311.615 227.739 311.331 229.155C311.048 230.571 314.025 232.27 317.995 232.978C319.838 233.403 321.823 233.403 323.666 232.978L325.367 230.996C324.942 229.58 322.248 228.305 318.846 227.739Z" fill="#FF9E68"/>
<path d="M233.638 259.315C227.543 258.04 222.297 259.032 221.73 261.297C221.163 263.563 225.841 266.536 231.796 267.811C237.75 269.085 243.137 268.094 243.705 265.828C244.272 263.563 239.735 260.589 233.638 259.315Z" fill="#FF9E68"/>
<path d="M235.906 285.085C232.079 284.519 228.109 284.661 224.281 285.793C217.334 287.351 212.23 290.324 212.23 292.732C220.028 291.599 227.826 289.9 235.339 287.917L235.481 287.493C235.623 286.643 235.764 285.935 235.906 285.085Z" fill="#FF9E68"/>
<path d="M167.429 285.793C166.011 286.784 167.855 291.598 171.541 296.696C174.093 296.554 176.503 296.413 179.055 296.13C178.488 295.138 177.779 294.289 177.07 293.298C173.242 288.059 168.989 284.66 167.429 285.793Z" fill="#FF9E68"/>
<path d="M308.354 244.589C306.653 243.173 304.526 242.748 303.817 243.739C303.108 244.731 303.959 246.571 305.66 247.846C306.086 248.27 306.653 248.554 307.22 248.837C308.07 247.987 309.063 247.279 309.913 246.43C309.488 245.58 309.063 245.014 308.354 244.589Z" fill="#FF9E68"/>
<path d="M279.432 215.137C283.402 217.119 287.088 217.827 287.797 216.553C288.506 215.278 285.812 212.588 281.842 210.464C279.857 209.331 277.731 208.765 275.604 208.482C275.037 209.331 274.47 210.039 273.903 210.747C275.321 212.588 277.305 214.145 279.432 215.137Z" fill="#FF9E68"/>
<path d="M278.014 244.589C277.588 250.677 279.148 255.917 281.558 256.058C283.968 256.2 286.378 251.385 286.804 245.297C287.229 239.208 285.67 233.969 283.259 233.828C280.849 233.686 278.439 238.5 278.014 244.589Z" fill="#FF9E68"/>
<path d="M249.659 253.084C249.375 254.5 252.353 256.199 256.322 256.907C260.292 257.615 263.553 256.907 263.836 255.491C264.12 254.076 261.143 252.376 257.173 251.668C253.203 250.96 249.801 251.668 249.659 253.084Z" fill="#FF9E68"/>
<path d="M259.867 226.464L258.874 227.314C259.158 227.314 259.3 227.172 259.583 227.031C259.725 226.889 259.867 226.748 259.867 226.464Z" fill="#FF9E68"/>
<path d="M201.739 280.554C203.157 279.421 201.03 274.041 196.777 268.518C195.784 267.244 194.934 266.111 193.941 265.12C192.098 265.828 190.113 266.536 188.128 267.102C189.121 268.943 190.255 270.642 191.531 272.341C195.643 278.005 200.321 281.545 201.739 280.554Z" fill="#FF9E68"/>
<path d="M144.744 298.82C139.073 299.953 133.686 310.431 124.328 310.856C114.262 311.28 113.979 295.138 113.979 295.138C108.591 295.988 103.204 297.546 98.2416 299.953C91.5781 303.493 90.4439 297.404 96.2567 294.147C106.181 288.483 125.746 282.112 125.746 282.112L143.326 283.103L144.744 298.82Z" fill="#FF9E68"/>
<path d="M146.163 298.82C146.163 299.528 145.737 300.094 145.028 300.236C143.043 300.661 140.917 302.643 138.507 304.625C134.82 307.882 130.284 311.988 124.329 312.272C121.919 312.413 119.509 311.564 117.666 309.864C113.979 306.324 112.845 299.811 112.562 296.838C107.883 297.687 103.204 299.103 98.8094 301.227C94.6979 303.351 92.2877 302.36 91.4371 300.661C90.3028 298.537 91.5788 295.138 95.4068 292.873C105.331 287.209 124.329 280.979 125.18 280.696H125.747L143.185 281.687C143.894 281.687 144.461 282.253 144.461 282.961L146.163 298.82ZM93.989 298.961C93.989 299.103 93.989 299.245 94.1308 299.386C94.2726 299.669 95.4068 299.953 97.6752 298.82C102.779 296.271 108.167 294.572 113.838 293.722C114.263 293.722 114.688 293.864 114.972 294.006C115.255 294.289 115.397 294.714 115.539 294.997C115.539 295.138 115.681 303.917 119.792 307.74C121.068 308.873 122.628 309.581 124.329 309.44C129.433 309.298 133.261 305.758 136.805 302.643C138.648 300.661 140.917 299.103 143.327 297.829L142.051 284.236L126.03 283.386C123.762 284.094 106.04 290.041 96.9663 295.138C94.8397 296.554 93.989 298.112 93.989 298.961Z" fill="#1A1A1A"/>
<path d="M346.35 193.756C346.35 193.756 364.639 196.446 393.703 201.119C422.767 205.792 475.65 216.27 475.65 216.27L483.022 192.623C453.674 206.216 417.096 189.649 393.136 191.207C371.303 192.764 338.411 191.065 346.35 193.756Z" fill="#FF9E68"/>
<path d="M144.178 291.032C144.178 291.032 131.276 295.704 123.62 290.749C122.344 297.404 122.344 305.475 119.651 306.466C114.972 308.165 114.263 303.634 114.405 299.952C114.547 296.271 114.688 285.368 121.352 282.536C128.582 279.421 143.044 278.713 143.044 278.713L144.178 291.032Z" fill="#FF9E68"/>
<path d="M145.596 291.032C145.596 291.598 145.17 292.165 144.603 292.306C144.036 292.448 132.694 296.554 124.755 292.873C124.613 294.147 124.471 295.421 124.187 296.696C123.479 302.218 122.911 306.607 120.218 307.599C118.658 308.448 116.673 308.307 115.256 307.315C113.554 306.041 112.845 303.634 112.987 299.811V299.244C113.129 294.713 113.554 284.235 120.785 281.12C128.015 278.005 142.335 277.297 143.044 277.155C143.752 277.155 144.461 277.722 144.461 278.43L145.596 290.749V291.032ZM115.823 300.802C115.823 302.926 116.248 304.625 116.957 305.05C117.666 305.475 118.516 305.475 119.225 305.05C120.359 304.625 120.927 299.528 121.352 296.412L122.203 290.465C122.344 290.041 122.628 289.616 123.053 289.474C123.479 289.333 124.046 289.333 124.329 289.616C130 293.297 139.357 291.032 142.477 290.041L141.626 280.129C137.94 280.412 127.448 281.262 121.777 283.669C116.106 286.076 115.823 295.704 115.823 299.244V299.811V300.802Z" fill="#1A1A1A"/>
<path d="M135.246 300.944C135.388 304.2 134.254 307.316 131.986 309.581C131.418 310.006 130.426 310.006 130.001 309.298C129.575 308.731 129.575 307.882 130.142 307.457C130.426 307.316 134.821 302.926 130.71 293.722C130.426 293.014 130.71 292.165 131.418 291.881C132.127 291.598 132.978 291.881 133.262 292.589C134.538 295.28 135.246 298.112 135.246 300.944Z" fill="#1A1A1A"/>
<path d="M318.42 237.934C318.42 237.934 329.337 223.774 329.621 217.261C329.904 210.747 328.628 208.623 332.031 204.942C333.307 203.526 334.016 201.685 334.016 199.703C333.874 194.747 337.985 190.641 344.791 191.915L355.707 193.756C355.707 193.897 332.598 227.031 318.42 237.934Z" fill="#1A1A1A"/>
<path d="M196.917 294.289C196.917 294.289 271.067 288.483 304.384 250.111C294.602 256.624 276.88 262.713 268.515 262.713C260.15 262.713 262.418 272.058 248.666 275.74C234.914 279.421 223.997 290.041 196.917 294.289Z" fill="#1A1A1A"/>
<path d="M496.632 88.2667C496.632 88.9747 496.349 165.012 476.926 216.694C476.642 217.402 475.933 217.827 475.224 217.544C459.771 212.871 393.42 202.251 354.573 196.304C325.793 237.934 295.027 265.545 260.576 280.554C229.81 293.864 200.179 295.988 171.398 297.97C162.325 298.678 153.676 299.245 144.886 300.236C144.461 300.236 144.177 300.094 143.752 299.953C143.468 299.669 143.327 299.386 143.327 298.961C143.327 298.82 142.618 289.475 141.909 278.713C141.909 278.005 142.334 277.297 143.043 277.297C222.721 262.005 259.016 230.146 275.462 206.075C293.184 180.021 292.192 157.366 292.192 157.082C292.192 156.658 292.333 156.374 292.617 155.95C292.901 155.666 293.184 155.525 293.468 155.525L336.426 136.834L295.736 110.639C295.169 110.356 295.027 109.648 295.169 109.081C301.407 83.594 294.035 36.8674 264.545 19.1679C246.54 8.40659 214.215 5.29147 161.616 51.8766C161.049 52.4429 160.198 52.3013 159.631 51.735L159.489 51.5934C154.102 42.3896 148.431 31.3451 148.289 31.2036C148.005 30.6371 148.147 29.9292 148.572 29.5044C149.281 28.7964 219.46 -37.3289 281.842 -20.479C316.719 -11.1336 342.664 21.9998 358.826 77.7886L495.073 86.9923C496.065 86.8507 496.632 87.5587 496.632 88.2667ZM474.799 214.57C492.237 167.136 493.655 99.8776 493.797 89.6827L357.692 80.6205C357.125 80.6205 356.558 80.1957 356.416 79.6293C340.537 24.2654 315.159 -8.44333 281.133 -17.6471C223.714 -33.081 159.064 23.8405 151.266 31.0619C152.684 33.7523 156.795 41.6816 161.049 48.903C214.073 2.45956 247.39 5.85785 265.963 17.0439C296.161 35.1682 303.959 82.4613 298.004 109.081L340.112 135.985C340.537 136.268 340.821 136.834 340.679 137.259C340.679 137.825 340.254 138.25 339.828 138.392L294.885 157.932V158.215C294.885 163.596 293.751 183.986 277.73 207.49C261.143 231.845 224.564 264.27 144.603 279.704C145.17 287.492 145.595 294.289 145.879 297.262C154.243 296.413 162.75 295.846 170.973 295.138C228.818 291.032 288.647 286.926 352.446 193.897C352.73 193.472 353.297 193.189 353.864 193.331C391.86 199.278 456.935 209.614 474.799 214.57Z" fill="#1A1A1A"/>
<path d="M251.644 234.96C251.644 234.96 274.895 229.721 278.297 215.986C280.708 205.933 282.692 200.835 293.467 196.446C300.84 193.472 306.227 176.622 305.66 173.932C302.683 173.083 291.766 172.091 291.766 172.091C291.766 172.091 280.424 211.455 251.644 234.96Z" fill="#1A1A1A"/>
</g>
</g>
<defs>
<clipPath id="clip0_1922_450">
<rect width="586.729" height="490.44" fill="white" transform="translate(569.439 676.217) rotate(-157.824)"/>
</clipPath>
<clipPath id="clip1_1922_450">
<rect width="442.824" height="295.745" fill="white" transform="translate(175.802 128.631)"/>
</clipPath>
<clipPath id="clip2_1922_450">
<rect width="442.824" height="131.207" fill="white" transform="translate(175.802 301.105)"/>
</clipPath>
<clipPath id="clip3_1922_450">
<rect width="162.951" height="139.672" fill="white" transform="matrix(-1 0 0 1 163.105 266.716)"/>
</clipPath>
<clipPath id="clip4_1922_450">
<rect width="20.6334" height="82.5335" fill="white" transform="matrix(0 -1 1 0 39.834 336.023)"/>
</clipPath>
<clipPath id="clip5_1922_450">
<rect width="173.003" height="147.608" fill="white" transform="translate(550.252 387.494) rotate(-17.4029)"/>
</clipPath>
<clipPath id="clip6_1922_450">
<rect width="59.2548" height="78.301" fill="white" transform="translate(614.093 390.06) rotate(-17.4029)"/>
</clipPath>
<clipPath id="clip7_1922_450">
<rect width="258.182" height="114.806" fill="white" transform="matrix(-1 0 0 1 675.765 315.39)"/>
</clipPath>
<clipPath id="clip8_1922_450">
<rect width="129.091" height="74.0685" fill="white" transform="translate(243.358 484.373) rotate(-37.7744)"/>
</clipPath>
<clipPath id="clip9_1922_450">
<rect width="80.9463" height="80.9463" fill="white" transform="translate(360.974 337.611)"/>
</clipPath>
<clipPath id="clip10_1922_450">
<rect width="253.42" height="229.083" fill="white" transform="matrix(0 1 -1 0 521.809 197.938)"/>
</clipPath>
<clipPath id="clip11_1922_450">
<rect width="148.137" height="269.292" fill="white" transform="matrix(0 -1 1 0 91.1533 345.547)"/>
</clipPath>
</defs>
</svg>

