<svg width="32" height="33" viewBox="0 0 32 33" fill="none" xmlns="http://www.w3.org/2000/svg">
<path fill-rule="evenodd" clip-rule="evenodd" d="M9.30082 0.82356C10.9727 0.746595 11.5057 0.729492 15.7644 0.729492C20.0232 0.729492 20.5562 0.748021 22.2266 0.82356C23.8971 0.8991 25.0373 1.16563 26.035 1.55188C27.0797 1.94668 28.0275 2.56382 28.8114 3.36197C29.6096 4.14445 30.2253 5.09083 30.6187 6.13698C31.0063 7.13467 31.2714 8.27489 31.3484 9.94247C31.4254 11.6172 31.4425 12.1502 31.4425 16.4075C31.4425 20.6662 31.4239 21.1993 31.3484 22.8711C31.2729 24.5387 31.0063 25.6789 30.6187 26.6766C30.2253 27.7229 29.6085 28.6709 28.8114 29.4545C28.0275 30.2526 27.0797 30.8683 26.035 31.2617C25.0373 31.6494 23.8971 31.9145 22.2295 31.9915C20.5562 32.0684 20.0232 32.0855 15.7644 32.0855C11.5057 32.0855 10.9727 32.067 9.30082 31.9915C7.63325 31.9159 6.49303 31.6494 5.49534 31.2617C4.44908 30.8683 3.50113 30.2516 2.71748 29.4545C1.91987 28.6715 1.30263 27.724 0.908809 26.678C0.52256 25.6803 0.257459 24.5401 0.180494 22.8726C0.103529 21.1979 0.0864258 20.6648 0.0864258 16.4075C0.0864258 12.1488 0.104954 11.6157 0.180494 9.94532C0.256033 8.27489 0.52256 7.13467 0.908809 6.13698C1.30321 5.09095 1.92092 4.14347 2.71891 3.36055C3.50144 2.56311 4.44844 1.94588 5.49392 1.55188C6.49161 1.16563 7.63183 0.900525 9.2994 0.82356H9.30082ZM22.0998 3.6456C20.4465 3.57006 19.9505 3.55439 15.7644 3.55439C11.5784 3.55439 11.0824 3.57006 9.4291 3.6456C7.89978 3.71544 7.07027 3.97057 6.51726 4.18578C5.7861 4.47084 5.26302 4.80863 4.71429 5.35736C4.19413 5.8634 3.79382 6.47945 3.54272 7.16033C3.3275 7.71334 3.07238 8.54285 3.00254 10.0722C2.927 11.7255 2.91132 12.2215 2.91132 16.4075C2.91132 20.5935 2.927 21.0895 3.00254 22.7429C3.07238 24.2722 3.3275 25.1017 3.54272 25.6547C3.79356 26.3345 4.19407 26.9517 4.71429 27.4577C5.22026 27.9779 5.83741 28.3784 6.51726 28.6292C7.07027 28.8445 7.89978 29.0996 9.4291 29.1694C11.0824 29.245 11.577 29.2606 15.7644 29.2606C19.9519 29.2606 20.4465 29.245 22.0998 29.1694C23.6291 29.0996 24.4586 28.8445 25.0116 28.6292C25.7428 28.3442 26.2659 28.0064 26.8146 27.4577C27.3348 26.9517 27.7353 26.3345 27.9862 25.6547C28.2014 25.1017 28.4565 24.2722 28.5263 22.7429C28.6019 21.0895 28.6176 20.5935 28.6176 16.4075C28.6176 12.2215 28.6019 11.7255 28.5263 10.0722C28.4565 8.54285 28.2014 7.71334 27.9862 7.16033C27.7011 6.42916 27.3633 5.90609 26.8146 5.35736C26.3085 4.83723 25.6925 4.43693 25.0116 4.18578C24.4586 3.97057 23.6291 3.71544 22.0998 3.6456V3.6456ZM13.7619 21.2406C14.8803 21.7062 16.1256 21.769 17.2851 21.4184C18.4446 21.0678 19.4465 20.3255 20.1195 19.3183C20.7926 18.3111 21.095 17.1014 20.9753 15.896C20.8556 14.6905 20.3211 13.564 19.463 12.7089C18.9161 12.1623 18.2547 11.7437 17.5266 11.4834C16.7984 11.223 16.0216 11.1274 15.252 11.2033C14.4825 11.2792 13.7393 11.5248 13.0761 11.9224C12.4128 12.3199 11.846 12.8596 11.4164 13.5026C10.9867 14.1455 10.705 14.8758 10.5914 15.6407C10.4779 16.4056 10.5353 17.1861 10.7596 17.9262C10.984 18.6662 11.3696 19.3473 11.8887 19.9204C12.4079 20.4935 13.0476 20.9444 13.7619 21.2406ZM10.0662 10.7093C10.8145 9.96096 11.7029 9.36737 12.6806 8.96239C13.6583 8.55741 14.7062 8.34897 15.7644 8.34897C16.8227 8.34897 17.8706 8.55741 18.8483 8.96239C19.826 9.36737 20.7144 9.96096 21.4627 10.7093C22.211 11.4576 22.8046 12.3459 23.2096 13.3236C23.6145 14.3013 23.823 15.3492 23.823 16.4075C23.823 17.4658 23.6145 18.5137 23.2096 19.4914C22.8046 20.4691 22.211 21.3575 21.4627 22.1058C19.9514 23.617 17.9017 24.466 15.7644 24.466C13.6272 24.466 11.5775 23.617 10.0662 22.1058C8.55493 20.5945 7.70591 18.5448 7.70591 16.4075C7.70591 14.2703 8.55493 12.2205 10.0662 10.7093V10.7093ZM25.6102 9.54909C25.7957 9.37416 25.9441 9.16381 26.0468 8.93048C26.1495 8.69716 26.2043 8.4456 26.208 8.1907C26.2117 7.93581 26.1643 7.68276 26.0684 7.44654C25.9726 7.21032 25.8303 6.99573 25.6501 6.81547C25.4698 6.63521 25.2552 6.49296 25.019 6.39712C24.7828 6.30129 24.5297 6.25382 24.2749 6.25754C24.02 6.26125 23.7684 6.31607 23.5351 6.41875C23.3017 6.52143 23.0914 6.66989 22.9165 6.85532C22.5763 7.21596 22.39 7.69498 22.3972 8.1907C22.4045 8.68643 22.6046 9.15982 22.9552 9.51038C23.3057 9.86095 23.7791 10.0611 24.2749 10.0683C24.7706 10.0755 25.2496 9.88929 25.6102 9.54909V9.54909Z" fill="white"/>
</svg>
