<svg width="40" height="44" viewBox="0 0 40 44" fill="none" xmlns="http://www.w3.org/2000/svg">
<path d="M20.0189 13.5671C23.6174 13.5671 26.5346 10.6499 26.5346 7.05136C26.5346 3.45283 23.6174 0.535645 20.0189 0.535645C16.4204 0.535645 13.5032 3.45283 13.5032 7.05136C13.5032 10.6499 16.4204 13.5671 20.0189 13.5671Z" fill="white"/>
<path d="M6.98788 22.2551C10.5864 22.2551 13.5036 19.3379 13.5036 15.7393C13.5036 12.1408 10.5864 9.22363 6.98788 9.22363C3.38935 9.22363 0.472168 12.1408 0.472168 15.7393C0.472168 19.3379 3.38935 22.2551 6.98788 22.2551Z" fill="white"/>
<path d="M33.0506 26.5988C36.6492 26.5988 39.5663 23.6816 39.5663 20.0831C39.5663 16.4846 36.6492 13.5674 33.0506 13.5674C29.4521 13.5674 26.5349 16.4846 26.5349 20.0831C26.5349 23.6816 29.4521 26.5988 33.0506 26.5988Z" fill="white"/>
<path d="M33.0504 26.5987C32.3088 26.5917 31.574 26.4565 30.8785 26.1991V29.3766L22.1909 32.2739V13.1611C20.792 13.6941 19.246 13.6941 17.8471 13.1611V29.0508L9.15948 23.2648V21.8553C7.76058 22.3882 6.21457 22.3882 4.81567 21.8553V24.4268C4.81562 24.7843 4.90381 25.1362 5.0724 25.4515C5.241 25.7667 5.4848 26.0354 5.78217 26.2338L17.8471 34.2764V41.802C17.8471 42.3781 18.0759 42.9305 18.4832 43.3378C18.8905 43.7451 19.443 43.9739 20.019 43.9739C20.595 43.9739 21.1475 43.7451 21.5548 43.3378C21.9621 42.9305 22.1909 42.3781 22.1909 41.802V36.8501L33.7367 33.0015C34.169 32.8575 34.5451 32.5812 34.8117 32.2117C35.0783 31.8422 35.222 31.3982 35.2223 30.9425V26.1991C34.5268 26.4565 33.792 26.5917 33.0504 26.5987Z" fill="white"/>
</svg>

