<svg width="50" height="55" viewBox="0 0 50 55" fill="none" xmlns="http://www.w3.org/2000/svg">
<path d="M24.5915 16.6008C29.1187 16.6008 32.7887 12.9308 32.7887 8.40361C32.7887 3.87643 29.1187 0.206421 24.5915 0.206421C20.0643 0.206421 16.3943 3.87643 16.3943 8.40361C16.3943 12.9308 20.0643 16.6008 24.5915 16.6008Z" fill="white"/>
<path d="M8.19718 27.5308C12.7244 27.5308 16.3944 23.8608 16.3944 19.3337C16.3944 14.8065 12.7244 11.1365 8.19718 11.1365C3.67 11.1365 0 14.8065 0 19.3337C0 23.8608 3.67 27.5308 8.19718 27.5308Z" fill="white"/>
<path d="M40.986 32.9956C45.5132 32.9956 49.1832 29.3256 49.1832 24.7984C49.1832 20.2712 45.5132 16.6012 40.986 16.6012C36.4588 16.6012 32.7888 20.2712 32.7888 24.7984C32.7888 29.3256 36.4588 32.9956 40.986 32.9956Z" fill="white"/>
<path d="M40.986 32.9953C40.053 32.9865 39.1286 32.8164 38.2536 32.4925V36.49L27.324 40.135V16.09C25.5641 16.7604 23.6191 16.7604 21.8592 16.09V36.0802L10.9296 28.8011V27.0277C9.16973 27.6982 7.22475 27.6982 5.46484 27.0277V30.2629C5.46478 30.7126 5.57572 31.1554 5.78783 31.552C5.99993 31.9486 6.30665 32.2866 6.68076 32.5362L21.8592 42.6543V52.1221C21.8592 52.8467 22.1471 53.5417 22.6595 54.0542C23.1719 54.5666 23.8669 54.8545 24.5916 54.8545C25.3163 54.8545 26.0113 54.5666 26.5237 54.0542C27.0361 53.5417 27.324 52.8467 27.324 52.1221V45.8922L41.8494 41.0504C42.3933 40.8693 42.8664 40.5216 43.2018 40.0568C43.5372 39.5919 43.7179 39.0333 43.7184 38.4601V32.4925C42.8434 32.8164 41.9189 32.9865 40.986 32.9953Z" fill="white"/>
</svg>
