<svg width="27" height="45" viewBox="0 0 27 45" fill="none" xmlns="http://www.w3.org/2000/svg">
<path fill-rule="evenodd" clip-rule="evenodd" d="M24.6451 44.382C25.2212 44.382 25.7736 44.1532 26.1809 43.7459C26.5882 43.3386 26.817 42.7861 26.817 42.2101V3.11576C26.817 2.53973 26.5882 1.9873 26.1809 1.57998C25.7736 1.17267 25.2212 0.943848 24.6451 0.943848H2.92606C2.35003 0.943848 1.7976 1.17267 1.39029 1.57998C0.982976 1.9873 0.75415 2.53973 0.75415 3.11576V42.2101C0.75415 42.7861 0.982976 43.3386 1.39029 43.7459C1.7976 44.1532 2.35003 44.382 2.92606 44.382H24.6451ZM13.7859 40.0382C14.9854 40.0382 15.9578 39.0659 15.9578 37.8663C15.9578 36.6668 14.9854 35.6944 13.7859 35.6944C12.5864 35.6944 11.614 36.6668 11.614 37.8663C11.614 39.0659 12.5864 40.0382 13.7859 40.0382ZM18.1295 5.28759L20.3014 3.11568H7.26995L9.44186 5.28759H18.1295Z" fill="white"/>
</svg>

