<svg width="33" height="56" viewBox="0 0 33 56" fill="none" xmlns="http://www.w3.org/2000/svg">
<path fill-rule="evenodd" clip-rule="evenodd" d="M30.0564 55.1744C30.7811 55.1744 31.4761 54.8865 31.9885 54.3741C32.5009 53.8617 32.7888 53.1667 32.7888 52.442V3.25877C32.7888 2.53409 32.5009 1.83909 31.9885 1.32667C31.4761 0.814244 30.7811 0.526367 30.0564 0.526367H2.7324C2.00772 0.526367 1.31273 0.814244 0.800302 1.32667C0.287878 1.83909 0 2.53409 0 3.25877V52.442C0 53.1667 0.287878 53.8617 0.800302 54.3741C1.31273 54.8865 2.00772 55.1744 2.7324 55.1744H30.0564ZM16.3945 49.7096C17.9035 49.7096 19.1269 48.4863 19.1269 46.9772C19.1269 45.4682 17.9035 44.2448 16.3945 44.2448C14.8854 44.2448 13.6621 45.4682 13.6621 46.9772C13.6621 48.4863 14.8854 49.7096 16.3945 49.7096ZM21.8591 5.99121L24.5915 3.25881H8.19707L10.9295 5.99121H21.8591Z" fill="white"/>
</svg>
