<svg width="32" height="33" viewBox="0 0 32 33" fill="none" xmlns="http://www.w3.org/2000/svg">
<path fill-rule="evenodd" clip-rule="evenodd" d="M11.7607 11.6555H17.5835V14.5559C18.4223 12.8878 20.5733 11.389 23.8046 11.389C29.999 11.389 31.4696 14.7096 31.4696 20.8021V32.0855H25.1984V22.1896C25.1984 18.72 24.3596 16.7634 22.2242 16.7634C19.2627 16.7634 18.0319 18.8721 18.0319 22.188V32.0855H11.7607V11.6555V11.6555ZM1.00717 31.819H7.27838V11.389H1.00717V31.819V31.819ZM8.17673 4.72739C8.17696 5.25303 8.07272 5.77348 7.87005 6.25848C7.66738 6.74348 7.37033 7.18337 6.99617 7.55257C6.23799 8.30609 5.21172 8.72787 4.14278 8.72528C3.07571 8.72456 2.05182 8.30385 1.29251 7.55413C0.919707 7.18368 0.623666 6.7433 0.421353 6.25824C0.219041 5.77317 0.114433 5.25295 0.113525 4.72739C0.113525 3.66599 0.536832 2.65005 1.29408 1.90064C2.05272 1.14991 3.07705 0.729023 4.14434 0.729493C5.21358 0.729493 6.23893 1.15123 6.99617 1.90064C7.75186 2.65005 8.17673 3.66599 8.17673 4.72739Z" fill="white"/>
</svg>
