<svg width="141" height="42" viewBox="0 0 141 42" fill="none" xmlns="http://www.w3.org/2000/svg">
<g clip-path="url(#clip0_1547_320)">
<path d="M36.6065 20.7003L5.38155 36.3426H39.6038V41.7241H5.33046C2.38423 41.7241 0 39.2888 0 36.3426C0 34.2989 1.24321 32.4852 3.00584 31.5826L34.1712 15.9403H0V10.6099H34.2819C37.1685 10.6099 39.6123 12.9856 39.6123 15.9403C39.6123 18.0947 38.3095 19.8488 36.6065 20.7003Z" fill="#7033F5"/>
<path d="M44.9343 10.644H50.2648V41.7498H44.9343V10.644Z" fill="#7033F5"/>
<path d="M95.1991 21.8411L95.1395 30.4499C95.0799 36.6233 90.1497 41.7239 83.9762 41.7239H66.8097C60.6363 41.7239 55.5868 36.6233 55.5868 30.4499V21.8411C55.5868 15.6676 60.6277 10.6182 66.8097 10.6182H83.9762C90.1497 10.6182 95.1395 15.6591 95.1991 21.8411ZM89.8176 21.8411C89.8176 18.6139 87.2119 15.9486 83.9847 15.9486H66.8182C63.591 15.9486 60.9854 18.6139 60.9854 21.8411V30.4499C60.9854 33.6771 63.591 36.3423 66.8182 36.3423H83.9847C87.2119 36.3423 89.8176 33.6771 89.8176 30.4499V21.8411Z" fill="#7033F5"/>
<path d="M140.133 21.867V41.7583H134.803V21.867C134.803 18.6397 132.138 15.9745 128.97 15.9745H105.911V41.7583H100.581V10.644H128.97C135.092 10.644 140.133 15.685 140.133 21.867Z" fill="#7033F5"/>
<path d="M86.9394 0H63.8464V5.32195H86.9394V0Z" fill="#7033F5"/>
</g>
<defs>
<clipPath id="clip0_1547_320">
<rect width="140.133" height="41.7581" fill="white"/>
</clipPath>
</defs>
</svg>
