<svg width="65" height="20" viewBox="0 0 65 20" fill="none" xmlns="http://www.w3.org/2000/svg">
<g clip-path="url(#clip0_1833_793)">
<path d="M17.3352 9.79781L3.10782 16.9251H18.7009V19.3771H3.08454C1.74212 19.3771 0.655762 18.2675 0.655762 16.9251C0.655762 15.9939 1.22222 15.1675 2.02535 14.7563L16.2256 7.62898H0.655762V5.2002H16.276C17.5913 5.2002 18.7048 6.28267 18.7048 7.62898C18.7048 8.61058 18.1112 9.40983 17.3352 9.79781Z" fill="#7033F5"/>
<path d="M21.1299 5.21533H23.5587V19.3884H21.1299V5.21533Z" fill="#7033F5"/>
<path d="M44.0324 10.3172L44.0053 14.2398C43.9781 17.0527 41.7317 19.3767 38.9188 19.3767H31.097C28.2841 19.3767 25.9834 17.0527 25.9834 14.2398V10.3172C25.9834 7.50436 28.2803 5.20361 31.097 5.20361H38.9188C41.7317 5.20361 44.0053 7.50048 44.0324 10.3172ZM41.5804 10.3172C41.5804 8.84679 40.3931 7.6324 38.9227 7.6324H31.1009C29.6305 7.6324 28.4432 8.84679 28.4432 10.3172V14.2398C28.4432 15.7102 29.6305 16.9246 31.1009 16.9246H38.9227C40.3931 16.9246 41.5804 15.7102 41.5804 14.2398V10.3172Z" fill="#7033F5"/>
<path d="M64.5067 10.329V19.3923H62.078V10.329C62.078 8.85851 60.8636 7.64411 59.4203 7.64411H48.9136V19.3923H46.4849V5.21533H59.4203C62.2099 5.21533 64.5067 7.5122 64.5067 10.329Z" fill="#7033F5"/>
<path d="M40.2687 0.365723H29.7466V2.79062H40.2687V0.365723Z" fill="#7033F5"/>
</g>
<defs>
<clipPath id="clip0_1833_793">
<rect width="63.8506" height="19.0268" fill="white" transform="translate(0.655762 0.365723)"/>
</clipPath>
</defs>
</svg>
