<svg width="112" height="34" viewBox="0 0 112 34" fill="none" xmlns="http://www.w3.org/2000/svg">
<g clip-path="url(#clip0_1919_493)">
<path d="M29.4413 16.9542L4.62152 29.3878H31.8238V33.6654H4.58091C2.23903 33.6654 0.343872 31.7297 0.343872 29.3878C0.343872 27.7634 1.33206 26.3217 2.73313 25.6042L27.5056 13.1706H0.343872V8.93359H27.5936C29.8881 8.93359 31.8306 10.822 31.8306 13.1706C31.8306 14.883 30.795 16.2773 29.4413 16.9542Z" fill="#7033F5"/>
<path d="M36.0607 8.96094H40.2977V33.686H36.0607V8.96094Z" fill="#7033F5"/>
<path d="M76.015 17.8612L75.9677 24.7041C75.9203 29.6112 72.0014 33.6655 67.0943 33.6655H53.4491C48.542 33.6655 44.5283 29.6112 44.5283 24.7041V17.8612C44.5283 12.9541 48.5352 8.94043 53.4491 8.94043H67.0943C72.0014 8.94043 75.9677 12.9473 76.015 17.8612ZM71.7374 17.8612C71.7374 15.296 69.6663 13.1775 67.101 13.1775H53.4559C50.8906 13.1775 48.8195 15.296 48.8195 17.8612V24.7041C48.8195 27.2693 50.8906 29.3878 53.4559 29.3878H67.101C69.6663 29.3878 71.7374 27.2693 71.7374 24.7041V17.8612Z" fill="#7033F5"/>
<path d="M111.732 17.8817V33.6928H107.495V17.8817C107.495 15.3165 105.376 13.198 102.858 13.198H84.5295V33.6928H80.2925V8.96094H102.858C107.725 8.96094 111.732 12.9678 111.732 17.8817Z" fill="#7033F5"/>
<path d="M69.4494 0.5H51.0934V4.73027H69.4494V0.5Z" fill="#7033F5"/>
</g>
<defs>
<clipPath id="clip0_1919_493">
<rect width="111.388" height="33.1924" fill="white" transform="translate(0.343872 0.5)"/>
</clipPath>
</defs>
</svg>

