<svg width="50" height="50" viewBox="0 0 50 50" fill="none" xmlns="http://www.w3.org/2000/svg">
<path d="M44.2647 34.6344L49.183 49.3893H0L4.9183 34.6344H44.2647ZM25.4497 5.12463C24.512 7.74943 24.3387 10.5865 24.95 13.3059C25.5613 16.0254 26.9322 18.5153 28.9031 20.4862C30.874 22.4571 33.364 23.828 36.0834 24.4393C38.8028 25.0506 41.6399 24.8774 44.2647 23.9396V29.7161H4.9183V7.58378C4.9183 6.93158 5.17739 6.30608 5.63857 5.8449C6.09975 5.38372 6.72524 5.12463 7.37745 5.12463H25.4497Z" fill="white"/>
<path d="M48.1993 8.07558H46.655C46.4506 8.0712 46.2523 8.00558 46.0857 7.88719C45.9191 7.76881 45.7918 7.60313 45.7205 7.41161C45.6371 7.22568 45.6113 7.01905 45.6463 6.81832C45.6814 6.61759 45.7757 6.43196 45.9172 6.28532L47.0091 5.19345C47.1024 5.10188 47.1765 4.99263 47.2271 4.87208C47.2777 4.75153 47.3038 4.62211 47.3038 4.49137C47.3038 4.36063 47.2777 4.2312 47.2271 4.11065C47.1765 3.9901 47.1024 3.88085 47.0091 3.78928L45.6295 2.4097C45.5379 2.31638 45.4287 2.24226 45.3081 2.19166C45.1876 2.14105 45.0581 2.11499 44.9274 2.11499C44.7967 2.11499 44.6672 2.14105 44.5467 2.19166C44.4261 2.24226 44.3169 2.31638 44.2253 2.4097L43.1335 3.50156C42.9869 3.64322 42.8011 3.73751 42.6002 3.77216C42.3994 3.80681 42.1927 3.78021 42.0072 3.69583H41.9924C41.8015 3.62379 41.6366 3.49632 41.5187 3.3298C41.4008 3.16328 41.3354 2.96532 41.3309 2.76136V1.18996C41.3309 0.929076 41.2273 0.678878 41.0428 0.494406C40.8583 0.309934 40.6081 0.206299 40.3472 0.206299H38.3627C38.1018 0.206299 37.8516 0.309934 37.6672 0.494406C37.4827 0.678878 37.379 0.929076 37.379 1.18996V2.7343C37.3745 2.93827 37.3091 3.13623 37.1913 3.30275C37.0734 3.46927 36.9084 3.59674 36.7175 3.66878H36.7028C36.5172 3.75316 36.3106 3.77976 36.1097 3.74511C35.9088 3.71046 35.723 3.61617 35.5765 3.47451L34.4846 2.38265C34.3931 2.28933 34.2838 2.21521 34.1633 2.16461C34.0427 2.114 33.9133 2.08794 33.7825 2.08794C33.6518 2.08794 33.5224 2.114 33.4018 2.16461C33.2813 2.21521 33.172 2.28933 33.0804 2.38265L31.7009 3.76223C31.6076 3.8538 31.5334 3.96305 31.4828 4.0836C31.4322 4.20415 31.4062 4.33358 31.4062 4.46432C31.4062 4.59505 31.4322 4.72448 31.4828 4.84503C31.5334 4.96558 31.6076 5.07483 31.7009 5.1664L32.7927 6.25827C32.9342 6.40491 33.0286 6.59054 33.0636 6.79127C33.0987 6.992 33.0729 7.19863 32.9895 7.38456C32.9181 7.57608 32.7909 7.74176 32.6243 7.86014C32.4576 7.97852 32.2593 8.04415 32.055 8.04853H30.4934C30.2325 8.04853 29.9823 8.15216 29.7979 8.33663C29.6134 8.5211 29.5098 8.7713 29.5098 9.03219V11.0266C29.5098 11.2874 29.6134 11.5376 29.7979 11.7221C29.9823 11.9066 30.2325 12.0102 30.4934 12.0102H32.0378C32.2417 12.0147 32.4397 12.0801 32.6062 12.198C32.7727 12.3159 32.9002 12.4809 32.9722 12.6717V12.6865C33.0556 12.8724 33.0815 13.079 33.0464 13.2798C33.0114 13.4805 32.917 13.6661 32.7755 13.8128L31.6837 14.9046C31.5903 14.9962 31.5162 15.1055 31.4656 15.226C31.415 15.3466 31.3889 15.476 31.3889 15.6067C31.3889 15.7375 31.415 15.8669 31.4656 15.9874C31.5162 16.108 31.5903 16.2172 31.6837 16.3088L33.0632 17.6884C33.1548 17.7817 33.2641 17.8558 33.3846 17.9064C33.5052 17.957 33.6346 17.9831 33.7653 17.9831C33.8961 17.9831 34.0255 17.957 34.146 17.9064C34.2666 17.8558 34.3758 17.7817 34.4674 17.6884L35.5593 16.5965C35.7059 16.455 35.8916 16.3607 36.0923 16.3256C36.293 16.2906 36.4996 16.3164 36.6856 16.3998H36.7003C36.8916 16.4713 37.0569 16.5986 37.1749 16.7652C37.2928 16.9319 37.358 17.1301 37.3618 17.3343V18.8958C37.3618 19.1567 37.4655 19.4069 37.6499 19.5914C37.8344 19.7759 38.0846 19.8795 38.3455 19.8795H40.33C40.5909 19.8795 40.8411 19.7759 41.0256 19.5914C41.21 19.4069 41.3137 19.1567 41.3137 18.8958V17.3417C41.3175 17.1375 41.3827 16.9393 41.5006 16.7726C41.6186 16.606 41.7839 16.4786 41.9752 16.4072H41.99C42.1759 16.3238 42.3825 16.2979 42.5832 16.333C42.784 16.3681 42.9696 16.4624 43.1162 16.6039L44.2081 17.6958C44.2997 17.7891 44.4089 17.8632 44.5295 17.9138C44.65 17.9644 44.7795 17.9905 44.9102 17.9905C45.0409 17.9905 45.1704 17.9644 45.2909 17.9138C45.4115 17.8632 45.5207 17.7891 45.6123 17.6958L46.9919 16.3162C47.0852 16.2246 47.1593 16.1154 47.2099 15.9948C47.2605 15.8743 47.2866 15.7448 47.2866 15.6141C47.2866 15.4834 47.2605 15.3539 47.2099 15.2334C47.1593 15.1128 47.0852 15.0036 46.9919 14.912L45.9 13.8201C45.7585 13.6735 45.6642 13.4879 45.6291 13.2871C45.594 13.0864 45.6199 12.8798 45.7033 12.6939V12.6791C45.7753 12.4882 45.9028 12.3233 46.0693 12.2054C46.2358 12.0875 46.4338 12.0221 46.6377 12.0176H48.1993C48.4602 12.0176 48.7104 11.914 48.8949 11.7295C49.0793 11.545 49.183 11.2948 49.183 11.0339V9.05924C49.183 8.79835 49.0793 8.54816 48.8949 8.36368C48.7104 8.17921 48.4602 8.07558 48.1993 8.07558ZM39.3464 12.9939C38.7627 12.9939 38.1922 12.8208 37.7069 12.4965C37.2216 12.1723 36.8434 11.7114 36.62 11.1722C36.3967 10.633 36.3382 10.0396 36.4521 9.46719C36.5659 8.89475 36.847 8.36894 37.2597 7.95624C37.6724 7.54354 38.1982 7.26248 38.7707 7.14862C39.3431 7.03476 39.9364 7.09319 40.4757 7.31655C41.0149 7.5399 41.4758 7.91813 41.8 8.40342C42.1243 8.88871 42.2973 9.45925 42.2973 10.0429C42.2973 10.8255 41.9864 11.5761 41.433 12.1296C40.8796 12.683 40.129 12.9939 39.3464 12.9939Z" fill="white"/>
</svg>
