<svg width="40" height="40" viewBox="0 0 40 40" fill="none" xmlns="http://www.w3.org/2000/svg">
<path d="M35.9391 27.9014L39.8486 39.6297H0.754395L4.66381 27.9014H35.9391ZM20.9837 4.44495C20.2383 6.53132 20.1005 8.78645 20.5865 10.948C21.0724 13.1096 22.162 15.0888 23.7287 16.6554C25.2953 18.2221 27.2745 19.3117 29.4361 19.7976C31.5976 20.2836 33.8528 20.1458 35.9391 19.4004V23.992H4.66381V6.39965C4.66381 5.88123 4.86975 5.38405 5.23633 5.01747C5.60291 4.65089 6.1001 4.44495 6.61852 4.44495H20.9837Z" fill="white"/>
<path d="M39.0667 6.79059H37.8392C37.6767 6.78711 37.5191 6.73495 37.3867 6.64085C37.2542 6.54675 37.1531 6.41505 37.0964 6.26282C37.0301 6.11503 37.0096 5.95079 37.0374 5.79124C37.0653 5.63168 37.1403 5.48412 37.2528 5.36756L38.1206 4.49967C38.1948 4.42688 38.2537 4.34004 38.294 4.24422C38.3342 4.1484 38.3549 4.04552 38.3549 3.9416C38.3549 3.83768 38.3342 3.7348 38.294 3.63898C38.2537 3.54316 38.1948 3.45632 38.1206 3.38353L37.0241 2.28694C36.9513 2.21277 36.8644 2.15385 36.7686 2.11363C36.6728 2.07341 36.5699 2.05269 36.466 2.05269C36.3621 2.05269 36.2592 2.07341 36.1634 2.11363C36.0675 2.15385 35.9807 2.21277 35.9079 2.28694L35.04 3.15483C34.9235 3.26744 34.7758 3.34238 34.6162 3.36992C34.4565 3.39746 34.2923 3.37632 34.1448 3.30925H34.133C33.9813 3.25199 33.8502 3.15067 33.7565 3.01831C33.6628 2.88595 33.6108 2.72859 33.6072 2.56646V1.31741C33.6072 1.11004 33.5248 0.911162 33.3782 0.764531C33.2316 0.617899 33.0327 0.535522 32.8253 0.535522H31.2479C31.0405 0.535522 30.8416 0.617899 30.695 0.764531C30.5484 0.911162 30.466 1.11004 30.466 1.31741V2.54496C30.4624 2.70709 30.4104 2.86444 30.3167 2.9968C30.223 3.12917 30.0919 3.23049 29.9402 3.28775H29.9285C29.781 3.35482 29.6167 3.37596 29.457 3.34842C29.2974 3.32088 29.1497 3.24594 29.0332 3.13333L28.1653 2.26544C28.0925 2.19127 28.0057 2.13235 27.9099 2.09213C27.814 2.0519 27.7112 2.03119 27.6072 2.03119C27.5033 2.03119 27.4004 2.0519 27.3046 2.09213C27.2088 2.13235 27.122 2.19127 27.0492 2.26544L25.9526 3.36203C25.8784 3.43482 25.8195 3.52166 25.7793 3.61748C25.739 3.7133 25.7183 3.81618 25.7183 3.9201C25.7183 4.02402 25.739 4.1269 25.7793 4.22272C25.8195 4.31854 25.8784 4.40538 25.9526 4.47817L26.8205 5.34606C26.9329 5.46262 27.0079 5.61018 27.0358 5.76973C27.0637 5.92929 27.0431 6.09353 26.9768 6.24132C26.9201 6.39355 26.819 6.52525 26.6866 6.61935C26.5541 6.71345 26.3965 6.76561 26.2341 6.76909H24.9928C24.7855 6.76909 24.5866 6.85146 24.4399 6.9981C24.2933 7.14473 24.2109 7.3436 24.2109 7.55097V9.13624C24.2109 9.34361 24.2933 9.54248 24.4399 9.68911C24.5866 9.83575 24.7855 9.91812 24.9928 9.91812H26.2204C26.3825 9.92171 26.5399 9.97369 26.6722 10.0674C26.8046 10.1611 26.9059 10.2922 26.9632 10.4439V10.4557C27.0295 10.6035 27.05 10.7677 27.0221 10.9273C26.9942 11.0868 26.9193 11.2344 26.8068 11.3509L25.9389 12.2188C25.8647 12.2916 25.8058 12.3784 25.7656 12.4743C25.7254 12.5701 25.7046 12.673 25.7046 12.7769C25.7046 12.8808 25.7254 12.9837 25.7656 13.0795C25.8058 13.1753 25.8647 13.2622 25.9389 13.335L27.0355 14.4315C27.1083 14.5057 27.1951 14.5646 27.2909 14.6049C27.3868 14.6451 27.4896 14.6658 27.5936 14.6658C27.6975 14.6658 27.8004 14.6451 27.8962 14.6049C27.992 14.5646 28.0788 14.5057 28.1516 14.4315L29.0195 13.5637C29.1361 13.4512 29.2836 13.3762 29.4432 13.3483C29.6027 13.3205 29.767 13.341 29.9148 13.4073H29.9265C30.0785 13.4641 30.21 13.5653 30.3037 13.6978C30.3975 13.8302 30.4493 13.9878 30.4523 14.1501V15.3913C30.4523 15.5987 30.5347 15.7976 30.6813 15.9442C30.828 16.0908 31.0268 16.1732 31.2342 16.1732H32.8117C33.019 16.1732 33.2179 16.0908 33.3645 15.9442C33.5112 15.7976 33.5935 15.5987 33.5935 15.3913V14.1559C33.5966 13.9937 33.6484 13.8361 33.7421 13.7036C33.8359 13.5712 33.9673 13.47 34.1194 13.4131H34.1311C34.2789 13.3469 34.4431 13.3263 34.6027 13.3542C34.7622 13.3821 34.9098 13.4571 35.0263 13.5695L35.8942 14.4374C35.967 14.5116 36.0539 14.5705 36.1497 14.6107C36.2455 14.6509 36.3484 14.6717 36.4523 14.6717C36.5562 14.6717 36.6591 14.6509 36.7549 14.6107C36.8507 14.5705 36.9376 14.5116 37.0104 14.4374L38.107 13.3408C38.1811 13.268 38.2401 13.1812 38.2803 13.0854C38.3205 12.9895 38.3412 12.8867 38.3412 12.7827C38.3412 12.6788 38.3205 12.576 38.2803 12.4801C38.2401 12.3843 38.1811 12.2975 38.107 12.2247L37.2391 11.3568C37.1266 11.2402 37.0516 11.0927 37.0237 10.9331C36.9959 10.7736 37.0164 10.6093 37.0827 10.4615V10.4498C37.14 10.2981 37.2413 10.1669 37.3736 10.0733C37.506 9.97955 37.6634 9.92757 37.8255 9.92399H39.0667C39.2741 9.92399 39.473 9.84161 39.6196 9.69498C39.7662 9.54835 39.8486 9.34947 39.8486 9.1421V7.57247C39.8486 7.3651 39.7662 7.16623 39.6196 7.0196C39.473 6.87297 39.2741 6.79059 39.0667 6.79059ZM32.0298 10.7C31.5658 10.7 31.1123 10.5624 30.7266 10.3047C30.3409 10.0469 30.0402 9.68061 29.8627 9.252C29.6851 8.82339 29.6387 8.35175 29.7292 7.89674C29.8197 7.44173 30.0431 7.02378 30.3711 6.69573C30.6992 6.36769 31.1171 6.14428 31.5722 6.05378C32.0272 5.96327 32.4988 6.00972 32.9274 6.18726C33.356 6.36479 33.7224 6.66544 33.9801 7.05118C34.2378 7.43692 34.3754 7.89043 34.3754 8.35436C34.3754 8.97646 34.1283 9.57309 33.6884 10.013C33.2485 10.4529 32.6519 10.7 32.0298 10.7Z" fill="white"/>
</svg>

