<svg width="284" height="75" viewBox="0 0 284 75" fill="none" xmlns="http://www.w3.org/2000/svg">
<path d="M104.112 34.6847C104.112 16.0326 80.9697 0.903715 52.439 0.903715C23.9082 0.903715 0.765869 16.1017 0.765869 34.6847V36.688C0.765869 56.4454 21.0068 72.4724 52.439 72.4724C84.0784 72.4724 104.112 56.4454 104.112 36.688V34.6847Z" fill="white"/>
<path d="M102.173 34.6821C102.173 52.2289 79.9284 66.4597 52.503 66.4597C25.0085 66.4597 2.76416 52.2289 2.76416 34.6821C2.76416 17.1353 25.0085 2.90451 52.4339 2.90451C79.9284 2.83543 102.173 17.1353 102.173 34.6821Z" fill="black"/>
<path d="M35.9722 24.62C35.9722 24.6891 35.4195 25.1726 35.7649 25.5871C36.5248 26.6234 38.9427 27.176 41.4296 26.6234C42.8804 26.2779 44.7456 24.8272 46.5417 23.3765C48.476 21.7876 50.4793 20.2678 52.4136 19.6461C54.4861 18.9553 55.7986 19.3007 56.6967 19.5079C57.6638 19.7843 58.7691 20.406 60.5653 21.7876C63.9503 24.3437 77.6285 36.2948 79.9772 38.3672C81.9115 37.5383 90.3395 33.8769 101.807 31.3209C100.84 25.1726 97.1095 19.577 91.4448 15.0176C83.6386 18.3335 73.9671 20.0606 64.572 15.4321C64.5029 15.4321 59.46 13.0143 54.417 13.1524C46.9562 13.2906 43.7093 16.5374 40.2552 19.9915L35.9722 24.62Z" fill="white"/>
<path d="M79.4449 39.6402C79.3068 39.502 63.418 25.6166 59.7566 22.8533C57.6842 21.2645 56.5098 20.9191 55.2663 20.7118C54.6446 20.6427 53.7465 20.7809 53.1248 20.9191C51.4668 21.4026 49.2562 22.8533 47.3219 24.3731C45.3185 25.962 43.3843 27.4818 41.6572 27.8963C39.3775 28.3799 36.6833 27.8272 35.3708 26.9292C34.8872 26.5838 34.4727 26.1693 34.3346 25.8239C33.851 24.7186 34.749 23.8896 34.8872 23.7514L39.3084 18.9848L40.8282 17.465C39.4466 17.6722 38.134 18.0176 36.8215 18.363C35.2326 18.8466 33.7128 19.2611 32.1239 19.2611C31.5022 19.2611 28.0481 18.7084 27.3573 18.5012C23.4196 17.465 19.9656 16.3597 14.7153 13.9418C8.49799 18.5703 4.28401 24.3731 3.10962 30.7977C4.00768 31.005 5.4584 31.4886 6.08013 31.6267C20.2419 34.8045 24.594 37.9822 25.423 38.6731C26.3211 37.7059 27.5645 37.0842 28.9462 37.0842C30.5351 37.0842 31.9167 37.8441 32.7457 39.0876C33.5747 38.4658 34.68 37.9132 36.1307 37.9132C36.7524 37.9132 37.4432 38.0513 38.1341 38.2586C39.7229 38.8112 40.5519 39.8475 40.9664 40.8146C41.5191 40.5383 42.1408 40.4001 42.9007 40.4001C43.6606 40.4001 44.4896 40.5383 45.2495 40.8837C47.8746 41.989 48.2891 44.545 48.0127 46.4793H48.5654C51.6741 46.4793 54.161 48.9662 54.161 52.0749C54.161 53.0421 53.8847 53.9401 53.4702 54.7C54.2992 55.1836 56.4407 56.2198 58.3059 56.0126C59.8257 55.8053 60.3784 55.3218 60.5856 55.0454C60.7238 54.8382 60.8619 54.6309 60.7238 54.4237L56.717 50.0025C56.717 50.0025 56.0262 49.3807 56.3025 49.1735C56.5098 48.8972 56.9243 49.3116 57.2006 49.5189C59.204 51.2459 61.6909 53.802 61.6909 53.802C61.76 53.802 61.8982 54.1474 62.7962 54.2855C63.5561 54.4237 65.0068 54.3546 65.974 53.5256C66.2503 53.3184 66.4576 53.0421 66.6648 52.8348L66.5957 52.9039C67.6319 51.5913 66.4576 50.2788 66.4576 50.2788L61.9672 45.0286C61.9672 45.0286 61.2764 44.4068 61.5528 44.1305C61.76 43.9233 62.1745 44.2687 62.4508 44.4759C63.9015 45.7194 66.0431 47.7918 67.9773 49.7261C68.3918 50.0025 70.1189 51.1078 72.4677 49.588C73.8493 48.6899 74.1256 47.5155 74.1256 46.6865C74.0565 45.5812 73.1585 44.7523 73.1585 44.7523L66.803 38.3967C66.803 38.3967 66.1121 37.8441 66.3885 37.4987C66.5957 37.2223 67.0102 37.6368 67.2865 37.8441C69.2899 39.5711 74.8164 44.545 74.8164 44.545C74.8855 44.6141 76.8198 45.9266 79.0995 44.4759C79.9285 43.9233 80.4811 43.1634 80.5502 42.1962C80.6193 40.6074 79.4449 39.6402 79.4449 39.6402Z" fill="white"/>
<path d="M48.6434 47.7727C47.6762 47.7727 46.5709 48.3253 46.4327 48.2563C46.3637 48.1872 46.5018 47.8418 46.5709 47.5654C46.64 47.3582 47.9525 43.4205 44.7748 42.108C42.3569 41.0718 40.9062 42.2462 40.3535 42.7988C40.2154 42.937 40.1463 42.937 40.1463 42.7297C40.0772 42.0389 39.8009 40.1046 37.7284 39.4829C34.7579 38.5848 32.8236 40.6573 32.3401 41.4172C32.1328 39.6901 30.6821 38.3776 28.9551 38.3776C27.0208 38.3776 25.501 39.8974 25.501 41.8317C25.501 43.766 27.0208 45.2858 28.9551 45.2858C29.8531 45.2858 30.7512 44.9403 31.3729 44.3186V44.4568C31.2348 45.2858 30.9584 48.4635 34.2053 49.707C35.5178 50.1906 36.6231 49.8451 37.5212 49.1543C37.7975 48.9471 37.8666 49.0162 37.7975 49.2925C37.6594 50.1215 37.7975 51.7794 40.2154 52.8157C42.0115 53.5756 43.1168 52.8157 43.8076 52.1248C44.084 51.8485 44.2221 51.9176 44.2221 52.3321C44.2912 54.6809 46.2255 56.477 48.5743 56.477C50.9921 56.477 52.9264 54.5427 52.9264 52.1248C52.9955 49.707 51.0612 47.7727 48.6434 47.7727Z" fill="white"/>
<path d="M48.6432 56.1671C46.4326 56.1671 44.7056 54.4401 44.6365 52.2986C44.6365 52.0913 44.6365 51.6077 44.222 51.6077C44.0838 51.6077 43.8766 51.6768 43.7384 51.8841C43.1858 52.3676 42.564 52.7821 41.666 52.7821C41.2515 52.7821 40.837 52.713 40.3534 52.5058C38.0737 51.5387 38.0046 49.9498 38.1428 49.328C38.1428 49.1899 38.1428 48.9826 38.0737 48.8445L37.9356 48.7063H37.7974C37.6592 48.7063 37.5211 48.7754 37.3829 48.8445C36.6921 49.328 36.0703 49.5353 35.4486 49.5353C35.1032 49.5353 34.7578 49.4662 34.3433 49.328C31.3037 48.1537 31.58 45.2522 31.7182 44.4232C31.7182 44.216 31.7182 44.1469 31.58 44.0088L31.3037 43.8706L31.0965 44.0778C30.4747 44.6305 29.7148 44.9759 28.8858 44.9759C27.1588 44.9759 25.7081 43.5943 25.7081 41.7981C25.7081 40.002 27.1588 38.6204 28.8858 38.6204C30.4747 38.6204 31.7873 39.7948 31.9945 41.3836L32.1327 42.2126L32.6163 41.5218C32.6853 41.4527 33.9288 39.5184 36.2776 39.5184C36.6921 39.5184 37.1757 39.5875 37.6592 39.7257C39.5244 40.2783 39.8698 42.0054 39.8698 42.6962C39.9389 43.1107 40.2153 43.1107 40.2843 43.1107C40.4225 43.1107 40.5607 43.0416 40.6297 42.9034C40.9751 42.558 41.735 41.9363 42.9785 41.9363C43.5312 41.9363 44.0838 42.0745 44.7056 42.3508C47.6761 43.5943 46.2944 47.3938 46.2944 47.4628C46.0181 48.0846 46.0181 48.3609 46.2944 48.4991L46.4326 48.5681H46.5017C46.6399 48.5681 46.778 48.4991 47.0543 48.43C47.4688 48.2918 48.0906 48.0846 48.6432 48.0846C50.8538 48.0846 52.719 49.9498 52.719 52.1604C52.65 54.371 50.8538 56.1671 48.6432 56.1671ZM80.0754 37.9986C75.1706 33.7156 63.8412 23.8369 60.8016 21.5572C59.0746 20.2446 57.8311 19.5538 56.7949 19.2084C56.3113 19.0703 55.6205 18.9321 54.7915 18.9321C54.0316 18.9321 53.2026 19.0703 52.3045 19.3466C50.3012 19.9683 48.3669 21.5572 46.4326 23.077L46.3635 23.1461C44.5674 24.5277 42.7713 26.0475 41.3206 26.3238C40.6988 26.462 40.0771 26.5311 39.4554 26.5311C37.8665 26.5311 36.4848 26.0475 36.0013 25.4258C35.9322 25.2876 36.0013 25.1494 36.1394 24.8731V24.804L40.4225 20.1756C43.8075 16.7906 46.9853 13.6128 54.3079 13.4056H54.6533C59.2127 13.4056 63.7721 15.478 64.3248 15.6852C68.6078 17.7577 73.0291 18.863 77.5194 18.863C82.1479 18.863 86.9145 17.6886 91.9575 15.4089C91.4048 14.9254 90.7831 14.5109 90.2304 14.0273C85.8783 15.9616 81.6643 16.9287 77.5885 16.9287C73.4436 16.9287 69.2986 15.8925 65.2919 13.9582C65.0847 13.8891 60.0417 11.4713 54.7915 11.4713H54.377C48.2287 11.6094 44.7056 13.82 42.4259 15.7543C40.1462 15.8234 38.2119 16.3761 36.4158 16.8596C34.8269 17.2741 33.5143 17.6886 32.2018 17.6886C31.6491 17.6886 30.682 17.6195 30.6129 17.6195C29.0931 17.5505 21.4941 15.6852 15.4149 13.4056C14.7932 13.82 14.1714 14.3036 13.6188 14.7872C19.9052 17.3432 27.6424 19.3466 30.0602 19.5538C30.7511 19.6229 31.4419 19.692 32.2018 19.692C33.7907 19.692 35.3795 19.2084 36.9684 18.7939C37.8665 18.5176 38.9027 18.2413 39.9389 18.034L39.1099 18.863L34.7578 23.6296C34.4124 23.9751 33.6525 24.9422 34.1361 26.0475C34.3433 26.5311 34.7578 26.9456 35.3104 27.3601C36.3467 28.0509 38.2119 28.5344 39.9389 28.5344C40.6297 28.5344 41.2515 28.4654 41.8041 28.3272C43.6693 27.9127 45.5345 26.3929 47.607 24.735C49.265 23.4224 51.5447 21.8335 53.3408 21.3499C53.8243 21.2118 54.4461 21.1427 54.9297 21.1427H55.3441C56.5185 21.2809 57.6238 21.6954 59.6963 23.2152C63.2885 25.9093 79.2464 39.8638 79.3846 40.002C79.3846 40.002 80.4208 40.9001 80.3517 42.3508C80.2826 43.1798 79.8682 43.8706 79.1083 44.3542C78.4174 44.7686 77.7266 44.9759 77.0358 44.9759C75.9996 44.9759 75.2397 44.4923 75.1706 44.4232C75.1015 44.3542 69.6441 39.3803 67.6407 37.7223C67.2953 37.446 67.019 37.2387 66.6735 37.2387C66.5354 37.2387 66.3281 37.3078 66.2591 37.446C65.9136 37.8605 66.3281 38.3441 66.7426 38.7585L73.0981 45.1831C73.0981 45.1831 73.858 45.943 73.9962 46.9102C74.0653 47.9464 73.5126 48.8445 72.4764 49.5353C71.7165 50.0189 70.9566 50.2952 70.1967 50.2952C69.2296 50.2952 68.5388 49.8807 68.4006 49.7425L67.5025 48.8445C65.8446 47.1865 64.1175 45.5285 62.874 44.4232C62.3905 44.0778 62.0451 43.8015 61.6997 43.8015C61.5615 43.8015 61.4233 43.8706 61.2852 43.9397C61.147 44.0778 61.0088 44.3542 61.4233 44.8377C61.5615 45.045 61.7687 45.1831 61.7687 45.1831L66.3972 50.4333C66.4663 50.5024 67.3644 51.6077 66.4663 52.644L66.3281 52.8512L65.9136 53.2657C65.1537 53.8874 64.0484 53.9565 63.634 53.9565C63.4267 53.9565 63.2195 53.9565 63.0122 53.8874C62.5286 53.8184 62.2523 53.6802 62.1142 53.4729L62.0451 53.4039C61.7687 53.1275 59.42 50.7788 57.4857 49.1208C57.2094 48.9136 56.933 48.6372 56.5876 48.6372C56.4495 48.6372 56.3113 48.7063 56.1731 48.8445C55.7586 49.259 56.3804 49.8807 56.5876 50.157L60.5253 54.5092C60.5253 54.5783 60.4562 54.6473 60.3871 54.7855C60.2489 54.9927 59.7654 55.4763 58.3147 55.6145H57.762C56.2422 55.6145 54.7224 54.9237 53.8934 54.4401C54.2388 53.6802 54.4461 52.7821 54.4461 51.9531C54.4461 48.7063 51.821 46.0121 48.5051 46.0121H48.2978C48.436 44.4923 48.2287 41.7291 45.3273 40.4856C44.4983 40.1402 43.6693 39.9329 42.8404 39.9329C42.2186 39.9329 41.5969 40.0711 41.0442 40.2783C40.4225 39.104 39.4554 38.275 38.1428 37.7914C37.5211 37.7223 36.8302 37.5842 36.0703 37.5842C34.896 37.5842 33.7216 37.9296 32.7544 38.6204C31.7873 37.446 30.3366 36.7552 28.8858 36.7552C27.5733 36.7552 26.3298 37.3078 25.3627 38.2059C24.1192 37.2387 19.2144 34.1301 6.15796 31.1596C5.53623 31.0214 4.08551 30.6069 3.18745 30.3306C3.04929 31.0214 2.91112 31.7813 2.84204 32.4721C2.84204 32.4721 5.2599 33.0248 5.74347 33.1629C19.1453 36.1334 23.5666 39.2421 24.3265 39.7948C24.0501 40.4165 23.912 41.0382 23.912 41.7291C23.912 44.4923 26.1917 46.772 28.9549 46.772C29.2313 46.772 29.5767 46.772 29.853 46.7029C30.2675 48.7063 31.58 50.2952 33.6525 51.0551C34.2742 51.2623 34.8269 51.4005 35.4486 51.4005C35.8631 51.4005 36.2085 51.3314 36.623 51.2623C36.9684 52.2295 37.8665 53.4039 39.7317 54.1638C40.4225 54.4401 41.0442 54.5783 41.735 54.5783C42.2877 54.5783 42.7713 54.5092 43.2548 54.3019C44.1529 56.5125 46.2944 57.9633 48.7123 57.9633C50.3012 57.9633 51.821 57.3415 52.9263 56.1671C53.8934 56.7198 55.8968 57.6869 57.9002 57.6869C58.1765 57.6869 58.3837 57.6869 58.6601 57.6178C60.6634 57.3415 61.6306 56.5816 62.0451 55.9599C62.1142 55.8217 62.1832 55.7526 62.2523 55.6145C62.7359 55.7526 63.2195 55.8908 63.8412 55.8908C64.9465 55.8908 65.9827 55.5454 67.088 54.7164C68.1243 53.9565 68.8842 52.8512 69.0223 51.9531V51.8841C69.3677 51.9531 69.7131 52.0222 70.1276 52.0222C71.302 52.0222 72.4073 51.6768 73.4436 50.986C75.516 49.6044 75.8614 47.8773 75.8614 46.7029C76.2068 46.772 76.6213 46.8411 76.9667 46.8411C78.0029 46.8411 79.1083 46.4957 80.0754 45.874C81.388 45.045 82.1478 43.8015 82.2169 42.3508C82.286 41.3836 82.0788 40.3474 81.5261 39.5184C84.9802 37.9986 92.8555 35.1663 102.182 33.0248C102.112 32.3339 102.043 31.574 101.905 30.8832C90.5758 33.4392 82.1478 37.0315 80.0754 37.9986Z" fill="black"/>
<path d="M275.614 26.5475C274.715 27.7219 273.403 28.3437 271.745 28.3437C270.087 28.3437 268.774 27.7219 267.876 26.5475C266.978 25.3731 266.495 23.6461 266.495 21.4355C266.495 19.2249 266.978 17.4978 267.876 16.3234C268.774 15.1491 270.087 14.5273 271.745 14.5273C273.472 14.5273 274.715 15.1491 275.614 16.3234C276.512 17.4978 276.995 19.2249 276.995 21.4355C276.995 23.6461 276.512 25.3731 275.614 26.5475ZM280.242 13.1457C278.377 10.7969 275.544 9.62252 271.745 9.62252C267.945 9.62252 265.113 10.7969 263.248 13.1457C261.383 15.4945 260.416 18.2577 260.416 21.4355C260.416 24.6823 261.314 27.4456 263.248 29.7253C265.113 32.005 267.945 33.1794 271.745 33.1794C275.544 33.1794 278.377 32.005 280.242 29.7253C282.107 27.4456 283.005 24.6823 283.005 21.4355C283.074 18.2577 282.107 15.4945 280.242 13.1457Z" fill="white"/>
<path d="M229.63 23.8545C229.561 25.7887 229.009 27.1013 227.972 27.8612C226.936 28.6211 225.762 28.9665 224.449 28.9665C223.62 28.9665 222.998 28.7593 222.446 28.2757C221.893 27.8612 221.617 27.1013 221.617 26.1342C221.617 25.0288 222.1 24.1999 222.998 23.6472C223.551 23.3709 224.449 23.0946 225.693 22.8873L227.005 22.611C227.627 22.4728 228.18 22.3347 228.525 22.1965C228.939 22.0583 229.285 21.8511 229.63 21.6438V23.8545ZM232.601 11.2125C230.736 10.2454 228.525 9.76179 226.107 9.76179C222.377 9.76179 219.683 10.7289 218.163 12.6632C217.196 13.9067 216.643 15.4956 216.505 17.4299H222.1C222.239 16.6009 222.515 15.9101 222.929 15.4265C223.482 14.7357 224.518 14.3903 225.9 14.3903C227.143 14.3903 228.111 14.5284 228.732 14.9429C229.354 15.2883 229.699 15.9101 229.699 16.8081C229.699 17.568 229.285 18.1207 228.456 18.4661C227.972 18.6733 227.212 18.8115 226.107 18.9497L224.104 19.1569C221.824 19.4332 220.166 19.9168 218.992 20.6076C216.85 21.8511 215.814 23.7854 215.814 26.5486C215.814 28.6211 216.436 30.2791 217.817 31.4534C219.13 32.6278 220.788 33.1114 222.791 33.1805C235.433 33.7331 235.295 26.4796 235.433 25.0288V16.67C235.433 13.9758 234.466 12.1796 232.601 11.2125Z" fill="white"/>
<path d="M203.706 14.7138C205.156 14.7138 206.193 15.1283 206.883 16.0263C207.367 16.7171 207.643 17.408 207.781 18.2369H213.999C213.653 15.0592 212.548 12.9176 210.683 11.6742C208.818 10.4307 206.4 9.80896 203.498 9.80896C200.044 9.80896 197.35 10.8452 195.416 12.9867C193.482 15.1283 192.514 18.0297 192.514 21.8292C192.514 25.2142 193.412 27.9084 195.14 30.0499C196.936 32.1914 199.699 33.2277 203.429 33.2277C207.16 33.2277 209.992 31.9842 211.926 29.4282C213.101 27.8393 213.792 26.1813 213.93 24.4543H207.712C207.574 25.6287 207.229 26.5958 206.607 27.2866C205.985 27.9775 205.018 28.3919 203.567 28.3919C201.564 28.3919 200.182 27.4939 199.423 25.6287C199.008 24.6615 198.801 23.349 198.801 21.7601C198.801 20.0331 199.008 18.7205 199.423 17.6843C200.252 15.6809 201.633 14.7138 203.706 14.7138Z" fill="white"/>
<path d="M190.863 9.84339C178.014 9.84339 178.774 21.1728 178.774 21.1728V32.7094H184.577V21.8636C184.577 20.0675 184.784 18.7549 185.268 17.926C186.097 16.4062 187.616 15.6463 189.965 15.6463H190.656C190.932 15.6463 191.278 15.7153 191.623 15.7153V9.77431C191.347 9.77431 191.209 9.77431 191.14 9.70523C191.07 9.84339 190.932 9.84339 190.863 9.84339Z" fill="white"/>
<path d="M161.664 15.8129C162.493 14.9839 163.599 14.5694 165.119 14.5694C166.5 14.5694 167.605 14.9839 168.573 15.7438C169.471 16.5728 170.023 17.6781 170.092 19.267H160.145C160.283 17.8162 160.835 16.7109 161.664 15.8129ZM169.471 26.6587C169.194 27.0041 168.987 27.2804 168.711 27.5568C167.882 28.2476 166.776 28.4548 165.464 28.4548C164.22 28.4548 163.253 28.2476 162.355 27.6949C160.905 26.7969 160.076 25.2771 160.006 23.0665H176.103C176.103 21.1322 176.033 19.6815 175.895 18.6452C175.619 16.9182 175.066 15.3984 174.168 14.0858C173.132 12.566 171.889 11.5298 170.369 10.839C168.849 10.1482 167.122 9.80277 165.188 9.80277C161.941 9.80277 159.316 10.839 157.243 12.8424C155.24 14.9148 154.204 17.8162 154.204 21.6848C154.204 25.7606 155.309 28.7312 157.589 30.5273C159.868 32.3234 162.424 33.2215 165.395 33.2215C168.987 33.2215 171.75 32.1162 173.685 29.9746C174.79 28.8693 175.412 27.6949 175.688 26.5896H169.471V26.6587Z" fill="white"/>
<path d="M151.843 32.6765H146.524V19.2746C146.524 18.0312 146.11 15.1297 142.587 15.1297C140.238 15.1297 138.58 16.7877 138.58 19.2746V32.6765H133.261V19.2746C133.261 18.0312 132.915 15.1297 129.392 15.1297C127.043 15.1297 125.385 16.7877 125.385 19.2746V32.6765H119.997V19.4128C119.997 13.8863 123.658 9.74135 129.323 9.74135C132.155 9.74135 134.435 10.9157 135.955 12.85C137.544 10.9848 139.892 9.74135 142.587 9.74135C148.389 9.74135 151.843 13.7481 151.843 19.4128V32.6765Z" fill="white"/>
<path d="M251.775 26.6248C250.946 27.8683 249.703 28.4209 248.045 28.4209C246.387 28.4209 245.212 27.7992 244.383 26.5557C243.554 25.3122 243.209 23.5161 243.209 21.5127C243.209 19.6475 243.624 18.0587 244.383 16.7461C245.143 15.5026 246.387 14.8118 248.114 14.8118C249.219 14.8118 250.186 15.1572 251.015 15.848C252.397 17.0224 253.088 19.0949 253.088 21.7891C253.019 23.7924 252.604 25.3813 251.775 26.6248ZM258.752 2.7916C258.752 2.7916 252.881 2.16987 252.881 6.86742V13.0848C252.259 12.0486 251.361 11.2196 250.324 10.6669C249.288 10.0452 248.114 9.76886 246.732 9.76886C243.831 9.76886 241.482 10.8742 239.755 13.0157C238.028 15.1572 237.13 18.335 237.13 22.0654C237.13 25.3122 238.028 28.0064 239.755 30.0789C241.551 32.1513 245.005 33.0494 248.045 33.0494C258.752 33.0494 258.614 23.8615 258.614 23.8615L258.752 2.7916Z" fill="white"/>
<path d="M135.574 53.8979C135.574 51.6873 135.16 50.0293 134.262 48.8549C133.433 47.6805 132.189 47.0588 130.6 47.0588C129.081 47.0588 127.837 47.6805 127.008 48.8549C126.179 49.9602 125.834 51.6182 125.834 53.8979C125.834 56.0394 126.248 57.6283 127.146 58.7336C127.975 59.908 129.219 60.5297 130.808 60.5297C132.258 60.5297 133.433 59.908 134.331 58.7336C135.16 57.4901 135.574 55.9013 135.574 53.8979ZM125.834 69.6485C125.834 70.4775 125.488 71.1683 124.867 71.721C124.314 72.2046 123.554 72.4809 122.794 72.4809H119.962V52.2399C119.962 48.3023 121.274 45.8153 123.485 44.1574C125.074 42.983 127.492 41.8086 132.258 42.0158C134.745 42.154 137.094 43.1902 138.683 45.1245C140.617 47.4733 141.446 50.0984 141.446 53.5525C141.446 57.0757 140.617 59.9771 138.89 62.1877C137.163 64.3292 134.953 65.3655 132.328 65.3655C130.877 65.3655 129.633 65.0891 128.597 64.6056C127.423 64.0529 126.525 63.1549 125.834 61.9805V69.6485Z" fill="white"/>
<path d="M170.474 53.8988C170.474 57.7673 171.579 59.9089 173.859 60.3234C176.07 60.7379 177.728 60.2543 178.833 58.7345C179.316 58.1127 179.731 57.1456 179.938 55.8331C180.145 54.5205 180.145 53.208 180.007 51.8954C179.8 50.5828 179.316 49.4775 178.626 48.4413C177.866 47.4051 176.83 46.9215 175.448 46.9215C173.514 46.9215 172.27 47.6123 171.579 49.063C170.819 50.5138 170.474 52.1026 170.474 53.8988ZM180.007 63.5702V62.1195C178.971 63.7084 177.659 64.6755 175.931 65.09C174.204 65.5045 172.546 65.3663 170.819 64.6755C169.161 63.9847 167.711 62.7412 166.467 60.9451C165.293 59.0799 164.671 56.7311 164.671 53.7606C164.671 50.3065 165.5 47.4742 167.089 45.2636C168.678 43.122 171.234 42.0858 174.757 42.0167C178.211 41.9476 180.284 42.7075 182.218 44.2273C184.359 45.8853 185.672 48.3722 185.672 52.3099V64.1919C185.672 67.9914 183.047 74.9687 174.757 74.416C169.645 74.0706 166.744 71.9291 165.155 67.1625H171.303C171.787 67.9224 172.408 68.5441 173.375 68.9586C174.274 69.3731 175.241 69.5112 176.139 69.304C177.037 69.0967 177.935 68.5441 178.695 67.646C179.524 66.748 179.938 65.3663 180.007 63.5702Z" fill="white"/>
<path d="M156.805 56.247C156.736 58.1813 156.184 59.4939 155.147 60.2538C154.111 61.0137 152.937 61.3591 151.624 61.3591C150.795 61.3591 150.174 61.1518 149.552 60.6682C148.999 60.2538 148.723 59.4939 148.723 58.5267C148.723 57.4214 149.206 56.5924 150.104 56.0398C150.657 55.7634 151.555 55.4871 152.799 55.2799L154.111 55.0035C154.802 54.8654 155.286 54.7272 155.631 54.5891C156.045 54.4509 156.391 54.2436 156.736 54.0364V56.247H156.805ZM159.776 43.6051C157.911 42.6379 155.7 42.1543 153.282 42.1543C149.552 42.1543 146.927 43.1215 145.338 45.0558C144.371 46.2992 143.818 47.8881 143.68 49.8224H149.275C149.414 48.9934 149.69 48.3026 150.104 47.819C150.657 47.1282 151.693 46.7828 153.075 46.7828C154.318 46.7828 155.286 46.921 155.907 47.3355C156.529 47.6809 156.874 48.3026 156.874 49.2007C156.874 49.9606 156.46 50.5132 155.631 50.8586C155.147 51.0659 154.387 51.2041 153.282 51.3422L151.279 51.5495C148.999 51.8258 147.341 52.3094 146.167 53.0002C144.025 54.2436 142.989 56.1779 142.989 58.9412C142.989 61.0137 143.68 62.6716 144.992 63.7769C146.305 64.9513 147.963 65.4349 149.966 65.504C162.608 66.0566 162.47 58.803 162.608 57.3523V48.9934C162.608 46.3683 161.641 44.5722 159.776 43.6051Z" fill="white"/>
<path d="M203.12 58.8486C202.222 60.023 200.909 60.6447 199.251 60.6447C197.593 60.6447 196.281 60.023 195.383 58.8486C194.485 57.6742 194.001 55.9472 194.001 53.7366C194.001 51.526 194.485 49.7989 195.383 48.6245C196.281 47.4501 197.593 46.8284 199.251 46.8284C200.978 46.8284 202.222 47.4501 203.12 48.6245C204.018 49.7989 204.501 51.526 204.501 53.7366C204.501 55.9472 204.018 57.6742 203.12 58.8486ZM207.748 45.4468C205.883 43.098 203.051 41.9236 199.251 41.9236C195.452 41.9236 192.619 43.098 190.754 45.4468C188.889 47.7956 187.922 50.5588 187.922 53.7366C187.922 56.9834 188.82 59.7467 190.754 62.0264C192.619 64.3061 195.452 65.4805 199.251 65.4805C203.051 65.4805 205.883 64.3061 207.748 62.0264C209.614 59.7467 210.512 56.9834 210.512 53.7366C210.581 50.5588 209.614 47.7956 207.748 45.4468Z" fill="white"/>
</svg>
