<svg width="236" height="63" viewBox="0 0 236 63" fill="none" xmlns="http://www.w3.org/2000/svg">
<path d="M86.4647 29.1245C86.4647 13.5476 67.1378 0.913072 43.311 0.913072C19.4841 0.913072 0.157227 13.6053 0.157227 29.1245V30.7976C0.157227 47.2976 17.061 60.6821 43.311 60.6821C69.734 60.6821 86.4647 47.2976 86.4647 30.7976V29.1245Z" fill="white"/>
<path d="M84.8447 29.1224C84.8447 43.7762 66.2678 55.6608 43.364 55.6608C20.4026 55.6608 1.82568 43.7762 1.82568 29.1224C1.82568 14.4686 20.4026 2.58405 43.3063 2.58405C66.2678 2.52636 84.8447 14.4686 84.8447 29.1224Z" fill="black"/>
<path d="M29.5597 20.7191C29.5597 20.7768 29.0981 21.1806 29.3866 21.5268C30.0212 22.3922 32.0404 22.8537 34.1173 22.3922C35.3289 22.1037 36.8866 20.8922 38.3866 19.6806C40.0019 18.3537 41.675 17.0845 43.2904 16.5653C45.0212 15.9883 46.1173 16.2768 46.8673 16.4499C47.675 16.6806 48.5981 17.1999 50.0981 18.3537C52.925 20.4883 64.348 30.4691 66.3096 32.1998C67.9249 31.5075 74.9634 28.4498 84.5403 26.3152C83.7326 21.1806 80.6172 16.5076 75.8865 12.6999C69.3673 15.4691 61.2904 16.9114 53.4442 13.046C53.3865 13.046 49.175 11.0268 44.9635 11.1422C38.7327 11.2576 36.0212 13.9691 33.1366 16.8537L29.5597 20.7191Z" fill="white"/>
<path d="M65.8643 33.263C65.7489 33.1476 52.4797 21.5515 49.4221 19.2438C47.6913 17.9169 46.7105 17.6284 45.6721 17.4553C45.1528 17.3976 44.4028 17.513 43.8836 17.6284C42.499 18.0323 40.6529 19.2438 39.0375 20.513C37.3644 21.8399 35.749 23.1092 34.3067 23.4553C32.4029 23.8592 30.1529 23.3976 29.0567 22.6476C28.6529 22.3592 28.3067 22.013 28.1914 21.7246C27.7875 20.8015 28.5375 20.1092 28.6529 19.9938L32.3452 16.013L33.6144 14.7438C32.4606 14.9169 31.3644 15.2053 30.2683 15.4938C28.9413 15.8977 27.6721 16.2438 26.3452 16.2438C25.826 16.2438 22.9414 15.7823 22.3644 15.6092C19.076 14.7438 16.1914 13.8207 11.8068 11.8015C6.61449 15.6669 3.09527 20.513 2.1145 25.8784C2.8645 26.0515 4.07604 26.4553 4.59526 26.5707C16.4222 29.2245 20.0568 31.8784 20.7491 32.4553C21.4991 31.6476 22.5375 31.1284 23.6914 31.1284C25.0183 31.1284 26.1721 31.763 26.8644 32.8015C27.5567 32.2822 28.4798 31.8207 29.6913 31.8207C30.2106 31.8207 30.7875 31.9361 31.3644 32.1091C32.6913 32.5707 33.3836 33.4361 33.7298 34.2438C34.1913 34.013 34.7106 33.8976 35.3452 33.8976C35.9798 33.8976 36.6721 34.013 37.3067 34.3014C39.499 35.2245 39.8452 37.3591 39.6144 38.9745H40.0759C42.6721 38.9745 44.749 41.0514 44.749 43.6476C44.749 44.4553 44.5182 45.2053 44.1721 45.8399C44.8644 46.2437 46.6528 47.1091 48.2105 46.936C49.4798 46.7629 49.9413 46.3591 50.1144 46.1283C50.2298 45.9553 50.3451 45.7822 50.2297 45.6091L46.8836 41.9168C46.8836 41.9168 46.3067 41.3976 46.5375 41.2245C46.7105 40.9937 47.0567 41.3399 47.2875 41.513C48.9605 42.9553 51.0374 45.0899 51.0374 45.0899C51.0951 45.0899 51.2105 45.3783 51.9605 45.4937C52.5951 45.6091 53.8067 45.5514 54.6144 44.8591C54.8451 44.686 55.0182 44.4553 55.1913 44.2822L55.1336 44.3399C55.999 43.2437 55.0182 42.1476 55.0182 42.1476L51.2682 37.763C51.2682 37.763 50.6913 37.2437 50.9221 37.013C51.0951 36.8399 51.4413 37.1284 51.6721 37.3014C52.8836 38.3399 54.672 40.0707 56.2874 41.686C56.6336 41.9168 58.0759 42.8399 60.0374 41.5707C61.1913 40.8207 61.422 39.8399 61.422 39.1476C61.3643 38.2245 60.6143 37.5322 60.6143 37.5322L55.3067 32.2245C55.3067 32.2245 54.7297 31.763 54.9605 31.4745C55.1336 31.2438 55.4797 31.5899 55.7105 31.763C57.3836 33.2053 61.999 37.3591 61.999 37.3591C62.0566 37.4168 63.672 38.513 65.5759 37.3014C66.2682 36.8399 66.7297 36.2053 66.7874 35.3976C66.8451 34.0707 65.8643 33.263 65.8643 33.263Z" fill="white"/>
<path d="M40.1408 40.0547C39.3331 40.0547 38.4101 40.5162 38.2947 40.4585C38.237 40.4009 38.3524 40.1124 38.4101 39.8816C38.4678 39.7086 39.5639 36.4201 36.9101 35.3239C34.8908 34.4586 33.6793 35.4393 33.2178 35.9009C33.1024 36.0163 33.0447 36.0163 33.0447 35.8432C32.987 35.2663 32.7562 33.6509 31.0255 33.1316C28.5447 32.3817 26.9293 34.1124 26.5255 34.747C26.3524 33.3047 25.1409 32.2086 23.6986 32.2086C22.0832 32.2086 20.814 33.4778 20.814 35.0932C20.814 36.7086 22.0832 37.9778 23.6986 37.9778C24.4486 37.9778 25.1986 37.6893 25.7178 37.1701V37.2855C25.6024 37.9778 25.3716 40.6316 28.0832 41.6701C29.1793 42.0739 30.1024 41.7855 30.8524 41.2085C31.0832 41.0355 31.1409 41.0932 31.0832 41.3239C30.9678 42.0162 31.0832 43.4008 33.1024 44.2662C34.6024 44.9008 35.5255 44.2662 36.1024 43.6893C36.3331 43.4585 36.4485 43.5162 36.4485 43.8624C36.5062 45.8239 38.1216 47.3239 40.0831 47.3239C42.1024 47.3239 43.7177 45.7085 43.7177 43.6893C43.7754 41.6701 42.1601 40.0547 40.1408 40.0547Z" fill="white"/>
<path d="M40.1405 47.0651C38.2944 47.0651 36.8521 45.6228 36.7944 43.8344C36.7944 43.6613 36.7944 43.2574 36.4482 43.2574C36.3328 43.2574 36.1598 43.3151 36.0444 43.4882C35.5828 43.8921 35.0636 44.2382 34.3136 44.2382C33.9675 44.2382 33.6213 44.1805 33.2175 44.0074C31.3136 43.1998 31.2559 41.8728 31.3713 41.3536C31.3713 41.2382 31.3713 41.0651 31.3136 40.9498L31.1982 40.8344H31.0828C30.9675 40.8344 30.8521 40.8921 30.7367 40.9498C30.1598 41.3536 29.6405 41.5267 29.1213 41.5267C28.8329 41.5267 28.5444 41.469 28.1982 41.3536C25.6598 40.3728 25.8906 37.9498 26.0059 37.2575C26.0059 37.0844 26.0059 37.0267 25.8906 36.9113L25.6598 36.7959L25.4867 36.969C24.9675 37.4305 24.3329 37.719 23.6406 37.719C22.1983 37.719 20.9867 36.5652 20.9867 35.0652C20.9867 33.5652 22.1983 32.4113 23.6406 32.4113C24.9675 32.4113 26.0636 33.3921 26.2367 34.719L26.3521 35.4113L26.7559 34.8344C26.8136 34.7767 27.8521 33.1613 29.8136 33.1613C30.1598 33.1613 30.5636 33.219 30.9675 33.3344C32.5252 33.7959 32.8136 35.2382 32.8136 35.8152C32.8713 36.1613 33.1021 36.1613 33.1598 36.1613C33.2751 36.1613 33.3905 36.1036 33.4482 35.9882C33.7367 35.6998 34.3713 35.1805 35.4098 35.1805C35.8713 35.1805 36.3328 35.2959 36.8521 35.5267C39.3328 36.5652 38.179 39.7382 38.179 39.7959C37.9482 40.3151 37.9482 40.5459 38.179 40.6613L38.2944 40.719H38.3521C38.4674 40.719 38.5828 40.6613 38.8136 40.6036C39.1597 40.4882 39.679 40.3151 40.1405 40.3151C41.9867 40.3151 43.5443 41.8728 43.5443 43.719C43.4867 45.5651 41.9867 47.0651 40.1405 47.0651ZM66.3904 31.8921C62.2943 28.3152 52.8328 20.0652 50.2943 18.1614C48.852 17.0652 47.8136 16.4883 46.9482 16.1998C46.5443 16.0845 45.9674 15.9691 45.2751 15.9691C44.6405 15.9691 43.9482 16.0844 43.1982 16.3152C41.5251 16.8344 39.9097 18.1614 38.2944 19.4306L38.2367 19.4883C36.7367 20.6421 35.2367 21.9114 34.0251 22.1421C33.5059 22.2575 32.9867 22.3152 32.4675 22.3152C31.1405 22.3152 29.9867 21.9114 29.5829 21.3921C29.5252 21.2767 29.5829 21.1614 29.6982 20.9306V20.8729L33.2752 17.0075C36.1021 14.1806 38.7559 11.5268 44.8713 11.3537H45.1597C48.9674 11.3537 52.7751 13.0845 53.2366 13.2575C56.8135 14.9883 60.5058 15.9114 64.2558 15.9114C68.1212 15.9114 72.102 14.9306 76.3135 13.0268C75.8519 12.6229 75.3327 12.2768 74.8712 11.8729C71.2366 13.4883 67.7174 14.296 64.3135 14.296C60.852 14.296 57.3905 13.4306 54.0443 11.8152C53.8712 11.7575 49.6597 9.73831 45.2751 9.73831H44.929C39.7944 9.8537 36.8521 11.6998 34.9482 13.3152C33.0444 13.3729 31.429 13.8345 29.929 14.2383C28.6021 14.5845 27.5059 14.9306 26.4098 14.9306C25.9482 14.9306 25.1406 14.8729 25.0829 14.8729C23.8136 14.8152 17.4675 13.2575 12.3906 11.3537C11.8714 11.6998 11.3521 12.1037 10.8906 12.5075C16.1406 14.6421 22.6021 16.3152 24.6213 16.4883C25.1983 16.546 25.7752 16.6037 26.4098 16.6037C27.7367 16.6037 29.0636 16.1998 30.3905 15.8537C31.1405 15.6229 32.0059 15.3921 32.8713 15.2191L32.179 15.9114L28.5444 19.8921C28.2559 20.1806 27.6213 20.9883 28.0252 21.9114C28.1982 22.3152 28.5444 22.6614 29.0059 23.0075C29.8713 23.5844 31.429 23.9883 32.8713 23.9883C33.4482 23.9883 33.9675 23.9306 34.429 23.8152C35.9867 23.469 37.5444 22.1998 39.2751 20.8152C40.6597 19.7191 42.5636 18.3921 44.0636 17.9883C44.4674 17.8729 44.9867 17.8152 45.3905 17.8152H45.7367C46.7174 17.9306 47.6405 18.2768 49.3713 19.546C52.3712 21.796 65.6981 33.4498 65.8135 33.5652C65.8135 33.5652 66.6789 34.3152 66.6212 35.5267C66.5635 36.219 66.2174 36.7959 65.5827 37.1998C65.0058 37.5459 64.4289 37.719 63.852 37.719C62.9866 37.719 62.352 37.3152 62.2943 37.2575C62.2366 37.1998 57.6789 33.0459 56.0058 31.6613C55.7174 31.4306 55.4866 31.2575 55.1982 31.2575C55.0828 31.2575 54.9097 31.3152 54.852 31.4306C54.5635 31.7767 54.9097 32.1806 55.2559 32.5267L60.5635 37.8921C60.5635 37.8921 61.1981 38.5267 61.3135 39.3344C61.3712 40.1998 60.9097 40.9498 60.0443 41.5267C59.4097 41.9305 58.7751 42.1613 58.1405 42.1613C57.3328 42.1613 56.7558 41.8151 56.6405 41.6998L55.8905 40.9498C54.5059 39.5652 53.0635 38.1805 52.0251 37.2575C51.6212 36.969 51.3328 36.7382 51.0443 36.7382C50.9289 36.7382 50.8136 36.7959 50.6982 36.8536C50.5828 36.969 50.4674 37.1998 50.8136 37.6036C50.9289 37.7767 51.102 37.8921 51.102 37.8921L54.9674 42.2767C55.0251 42.3344 55.7751 43.2574 55.0251 44.1228L54.9097 44.2959L54.5635 44.6421C53.9289 45.1613 53.0059 45.219 52.6597 45.219C52.4866 45.219 52.3136 45.219 52.1405 45.1613C51.7366 45.1036 51.5059 44.9882 51.3905 44.8151L51.3328 44.7574C51.102 44.5267 49.1405 42.5651 47.5251 41.1805C47.2943 41.0075 47.0636 40.7767 46.7751 40.7767C46.6597 40.7767 46.5443 40.8344 46.429 40.9498C46.0828 41.2959 46.602 41.8151 46.7751 42.0459L50.0636 45.6805C50.0636 45.7382 50.0059 45.7959 49.9482 45.9113C49.8328 46.0844 49.4289 46.4882 48.2174 46.6036H47.7559C46.4866 46.6036 45.2174 46.0267 44.5251 45.6228C44.8136 44.9882 44.9867 44.2382 44.9867 43.5459C44.9867 40.8344 42.7944 38.5844 40.0251 38.5844H39.8521C39.9674 37.3152 39.7944 35.0075 37.3713 33.969C36.679 33.6806 35.9867 33.5075 35.2944 33.5075C34.7751 33.5075 34.2559 33.6229 33.7944 33.7959C33.2751 32.8152 32.4675 32.1229 31.3713 31.719C30.8521 31.6613 30.2752 31.5459 29.6405 31.5459C28.6598 31.5459 27.679 31.8344 26.8713 32.4113C26.0636 31.4306 24.8521 30.8536 23.6406 30.8536C22.5444 30.8536 21.506 31.3152 20.6983 32.0652C19.6598 31.2575 15.5637 28.6613 4.65985 26.1806C4.14062 26.0652 2.92908 25.719 2.17909 25.4883C2.0637 26.0652 1.94832 26.6998 1.89062 27.2767C1.89062 27.2767 3.90985 27.7383 4.31369 27.8536C15.506 30.3344 19.1983 32.9306 19.8329 33.3921C19.6021 33.9113 19.4867 34.4306 19.4867 35.0075C19.4867 37.3152 21.3906 39.219 23.6983 39.219C23.929 39.219 24.2175 39.219 24.4483 39.1613C24.7944 40.8344 25.8906 42.1613 27.6213 42.7959C28.1406 42.969 28.6021 43.0844 29.1213 43.0844C29.4675 43.0844 29.7559 43.0267 30.1021 42.969C30.3905 43.7767 31.1405 44.7574 32.6982 45.3921C33.2752 45.6228 33.7944 45.7382 34.3713 45.7382C34.8328 45.7382 35.2367 45.6805 35.6405 45.5074C36.3905 47.3536 38.179 48.5651 40.1982 48.5651C41.5251 48.5651 42.7944 48.0459 43.7174 47.0651C44.5251 47.5267 46.1982 48.3344 47.8713 48.3344C48.102 48.3344 48.2751 48.3344 48.5059 48.2767C50.1789 48.0459 50.9866 47.4113 51.3328 46.8921C51.3905 46.7767 51.4482 46.719 51.5059 46.6036C51.9097 46.719 52.3136 46.8344 52.8328 46.8344C53.7559 46.8344 54.6212 46.5459 55.5443 45.8536C56.4097 45.219 57.0443 44.2959 57.1597 43.5459V43.4882C57.4482 43.5459 57.7366 43.6036 58.0828 43.6036C59.0635 43.6036 59.9866 43.3151 60.852 42.7382C62.5828 41.5844 62.8712 40.1421 62.8712 39.1613C63.1597 39.219 63.5058 39.2767 63.7943 39.2767C64.6597 39.2767 65.5827 38.9882 66.3904 38.469C67.4866 37.7767 68.1212 36.7382 68.1789 35.5267C68.2366 34.719 68.0635 33.8536 67.602 33.1613C70.4866 31.8921 77.0635 29.5267 84.8519 27.7383C84.7942 27.1613 84.7365 26.5267 84.6212 25.9498C75.1596 28.0844 68.1212 31.0844 66.3904 31.8921Z" fill="black"/>
<path d="M229.691 22.3291C228.941 23.3099 227.844 23.8291 226.46 23.8291C225.075 23.8291 223.979 23.3099 223.229 22.3291C222.479 21.3483 222.075 19.906 222.075 18.0599C222.075 16.2137 222.479 14.7714 223.229 13.7907C223.979 12.8099 225.075 12.2907 226.46 12.2907C227.902 12.2907 228.941 12.8099 229.691 13.7907C230.441 14.7714 230.844 16.2137 230.844 18.0599C230.844 19.906 230.441 21.3483 229.691 22.3291ZM233.556 11.1368C231.998 9.1753 229.633 8.19453 226.46 8.19453C223.287 8.19453 220.921 9.1753 219.364 11.1368C217.806 13.0984 216.998 15.4061 216.998 18.0599C216.998 20.7714 217.748 23.0791 219.364 24.9829C220.921 26.8868 223.287 27.8676 226.46 27.8676C229.633 27.8676 231.998 26.8868 233.556 24.9829C235.114 23.0791 235.864 20.7714 235.864 18.0599C235.921 15.4061 235.114 13.0984 233.556 11.1368Z" fill="white"/>
<path d="M191.288 20.08C191.23 21.6953 190.769 22.7915 189.904 23.4261C189.038 24.0607 188.057 24.3492 186.961 24.3492C186.269 24.3492 185.75 24.1761 185.288 23.7723C184.827 23.4261 184.596 22.7915 184.596 21.9838C184.596 21.0607 185 20.3684 185.75 19.9069C186.211 19.6761 186.961 19.4453 188 19.2723L189.096 19.0415C189.615 18.9261 190.077 18.8107 190.365 18.6953C190.711 18.58 191 18.4069 191.288 18.2338V20.08ZM193.769 9.5223C192.211 8.71461 190.365 8.31076 188.346 8.31076C185.231 8.31076 182.981 9.11845 181.711 10.7338C180.904 11.7723 180.442 13.0992 180.327 14.7146H185C185.115 14.0223 185.346 13.4454 185.692 13.0415C186.154 12.4646 187.019 12.1761 188.173 12.1761C189.211 12.1761 190.019 12.2915 190.538 12.6377C191.057 12.9261 191.346 13.4454 191.346 14.1954C191.346 14.83 191 15.2915 190.307 15.58C189.904 15.753 189.269 15.8684 188.346 15.9838L186.673 16.1569C184.769 16.3877 183.384 16.7915 182.404 17.3684C180.615 18.4069 179.75 20.0223 179.75 22.33C179.75 24.0607 180.269 25.4453 181.423 26.4261C182.519 27.4069 183.904 27.8107 185.577 27.8684C196.134 28.3299 196.019 22.2723 196.134 21.0607V14.08C196.134 11.83 195.327 10.33 193.769 9.5223Z" fill="white"/>
<path d="M169.638 12.4462C170.849 12.4462 171.715 12.7924 172.291 13.5424C172.695 14.1193 172.926 14.6962 173.041 15.3885H178.234C177.945 12.7347 177.022 10.9462 175.465 9.90777C173.907 8.86931 171.888 8.35008 169.465 8.35008C166.58 8.35008 164.33 9.21546 162.715 11.0039C161.099 12.7924 160.292 15.2154 160.292 18.3885C160.292 21.2154 161.042 23.4654 162.484 25.2539C163.984 27.0423 166.291 27.9077 169.407 27.9077C172.522 27.9077 174.888 26.8693 176.503 24.7346C177.484 23.4077 178.061 22.0231 178.176 20.5808H172.984C172.868 21.5616 172.58 22.3693 172.061 22.9462C171.541 23.5231 170.734 23.8693 169.522 23.8693C167.849 23.8693 166.695 23.1193 166.061 21.5616C165.715 20.7539 165.541 19.6577 165.541 18.3308C165.541 16.8885 165.715 15.7924 166.061 14.927C166.753 13.2539 167.907 12.4462 169.638 12.4462Z" fill="white"/>
<path d="M158.913 8.37888C148.182 8.37888 148.817 17.8404 148.817 17.8404V27.475H153.663V18.4173C153.663 16.9173 153.836 15.8212 154.24 15.1289C154.932 13.8596 156.202 13.225 158.163 13.225H158.74C158.971 13.225 159.259 13.2827 159.548 13.2827V8.32119C159.317 8.32119 159.201 8.32119 159.144 8.2635C159.086 8.37888 158.971 8.37888 158.913 8.37888Z" fill="white"/>
<path d="M134.528 13.3642C135.22 12.6719 136.143 12.3257 137.412 12.3257C138.566 12.3257 139.489 12.6719 140.297 13.3065C141.047 13.9988 141.509 14.9219 141.566 16.2488H133.259C133.374 15.0372 133.836 14.1142 134.528 13.3642ZM141.047 22.4218C140.816 22.7103 140.643 22.9411 140.412 23.1718C139.72 23.7488 138.797 23.9218 137.701 23.9218C136.662 23.9218 135.855 23.7488 135.105 23.2872C133.893 22.5372 133.201 21.268 133.143 19.4218H146.586C146.586 17.8065 146.528 16.5949 146.412 15.7295C146.182 14.2872 145.72 13.018 144.97 11.9219C144.105 10.6526 143.066 9.78726 141.797 9.21034C140.528 8.63341 139.086 8.34495 137.47 8.34495C134.759 8.34495 132.566 9.21034 130.836 10.8834C129.162 12.6142 128.297 15.0372 128.297 18.268C128.297 21.6718 129.22 24.1526 131.124 25.6526C133.028 27.1526 135.162 27.9026 137.643 27.9026C140.643 27.9026 142.951 26.9795 144.566 25.1911C145.489 24.268 146.009 23.2872 146.239 22.3641H141.047V22.4218Z" fill="white"/>
<path d="M126.327 27.4474H121.884V16.2551C121.884 15.2167 121.538 12.7936 118.596 12.7936C116.634 12.7936 115.25 14.1782 115.25 16.2551V27.4474H110.807V16.2551C110.807 15.2167 110.519 12.7936 107.577 12.7936C105.615 12.7936 104.23 14.1782 104.23 16.2551V27.4474H99.7305V16.3705C99.7305 11.7551 102.788 8.2936 107.519 8.2936C109.884 8.2936 111.788 9.27436 113.057 10.8897C114.384 9.33206 116.346 8.2936 118.596 8.2936C123.442 8.2936 126.327 11.6397 126.327 16.3705V27.4474Z" fill="white"/>
<path d="M209.782 22.3935C209.09 23.432 208.051 23.8935 206.667 23.8935C205.282 23.8935 204.301 23.3743 203.609 22.3359C202.917 21.2974 202.628 19.7974 202.628 18.1243C202.628 16.5666 202.975 15.2397 203.609 14.1436C204.244 13.1051 205.282 12.5282 206.725 12.5282C207.648 12.5282 208.455 12.8166 209.148 13.3936C210.301 14.3743 210.878 16.1051 210.878 18.3551C210.821 20.0282 210.475 21.3551 209.782 22.3935ZM215.609 2.48976C215.609 2.48976 210.705 1.97053 210.705 5.89359V11.0859C210.186 10.2205 209.436 9.5282 208.571 9.06666C207.705 8.54743 206.725 8.31666 205.571 8.31666C203.148 8.31666 201.186 9.23974 199.744 11.0282C198.302 12.8166 197.552 15.4705 197.552 18.5859C197.552 21.2974 198.302 23.5474 199.744 25.2781C201.244 27.0089 204.128 27.7589 206.667 27.7589C215.609 27.7589 215.494 20.0859 215.494 20.0859L215.609 2.48976Z" fill="white"/>
<path d="M112.739 45.17C112.739 43.3239 112.393 41.9393 111.643 40.9585C110.951 39.9777 109.912 39.4585 108.585 39.4585C107.316 39.4585 106.278 39.9777 105.585 40.9585C104.893 41.8816 104.605 43.2662 104.605 45.17C104.605 46.9585 104.951 48.2854 105.701 49.2085C106.393 50.1892 107.431 50.7085 108.758 50.7085C109.97 50.7085 110.951 50.1892 111.701 49.2085C112.393 48.17 112.739 46.8431 112.739 45.17ZM104.605 58.3238C104.605 59.0161 104.316 59.5931 103.797 60.0546C103.335 60.4584 102.701 60.6892 102.066 60.6892H99.7007V43.7854C99.7007 40.497 100.797 38.42 102.643 37.0354C103.97 36.0547 105.989 35.0739 109.97 35.247C112.047 35.3624 114.008 36.2277 115.335 37.8431C116.951 39.8047 117.643 41.997 117.643 44.8816C117.643 47.8239 116.951 50.2469 115.508 52.0931C114.066 53.8815 112.22 54.7469 110.028 54.7469C108.816 54.7469 107.778 54.5161 106.912 54.1123C105.931 53.6508 105.181 52.9008 104.605 51.92V58.3238Z" fill="white"/>
<path d="M141.885 45.1708C141.885 48.4016 142.808 50.19 144.712 50.5362C146.558 50.8823 147.943 50.4785 148.866 49.2093C149.27 48.69 149.616 47.8823 149.789 46.7862C149.962 45.69 149.962 44.5939 149.847 43.4977C149.674 42.4016 149.27 41.4785 148.693 40.6131C148.058 39.7477 147.193 39.3439 146.039 39.3439C144.424 39.3439 143.385 39.9208 142.808 41.1324C142.174 42.3439 141.885 43.6708 141.885 45.1708ZM149.847 53.2477V52.0362C148.981 53.3631 147.885 54.1708 146.443 54.5169C145.001 54.8631 143.616 54.7477 142.174 54.1708C140.789 53.5939 139.578 52.5554 138.539 51.0554C137.558 49.4977 137.039 47.5362 137.039 45.0554C137.039 42.1708 137.731 39.8054 139.058 37.9593C140.385 36.1708 142.52 35.3055 145.462 35.2478C148.347 35.1901 150.077 35.8247 151.693 37.0939C153.481 38.4785 154.577 40.5554 154.577 43.8439V53.7669C154.577 56.94 152.385 62.7669 145.462 62.3054C141.193 62.0169 138.77 60.2285 137.443 56.2477H142.578C142.981 56.8823 143.501 57.4015 144.308 57.7477C145.058 58.0938 145.866 58.2092 146.616 58.0362C147.366 57.8631 148.116 57.4015 148.751 56.6515C149.443 55.9015 149.789 54.7477 149.847 53.2477Z" fill="white"/>
<path d="M130.47 47.132C130.412 48.7474 129.951 49.8435 129.085 50.4781C128.22 51.1127 127.239 51.4012 126.143 51.4012C125.451 51.4012 124.932 51.2281 124.412 50.8243C123.951 50.4781 123.72 49.8435 123.72 49.0358C123.72 48.1127 124.124 47.4204 124.874 46.9589C125.335 46.7281 126.085 46.4974 127.124 46.3243L128.22 46.0935C128.797 45.9781 129.201 45.8627 129.489 45.7474C129.835 45.632 130.124 45.4589 130.412 45.2858V47.132H130.47ZM132.951 36.5743C131.393 35.7666 129.547 35.3628 127.528 35.3628C124.412 35.3628 122.22 36.1705 120.893 37.7858C120.085 38.8243 119.624 40.1512 119.509 41.7666H124.182C124.297 41.0743 124.528 40.4974 124.874 40.0935C125.335 39.5166 126.201 39.2282 127.355 39.2282C128.393 39.2282 129.201 39.3435 129.72 39.6897C130.239 39.9781 130.528 40.4974 130.528 41.2474C130.528 41.882 130.182 42.3435 129.489 42.632C129.085 42.8051 128.451 42.9204 127.528 43.0358L125.855 43.2089C123.951 43.4397 122.566 43.8435 121.585 44.4204C119.797 45.4589 118.932 47.0743 118.932 49.382C118.932 51.1127 119.509 52.4973 120.605 53.4204C121.701 54.4012 123.085 54.805 124.759 54.8627C135.316 55.3243 135.201 49.2666 135.316 48.055V41.0743C135.316 38.882 134.509 37.382 132.951 36.5743Z" fill="white"/>
<path d="M169.149 49.3045C168.399 50.2853 167.303 50.8045 165.918 50.8045C164.533 50.8045 163.437 50.2853 162.687 49.3045C161.937 48.3237 161.533 46.8814 161.533 45.0353C161.533 43.1891 161.937 41.7468 162.687 40.7661C163.437 39.7853 164.533 39.2661 165.918 39.2661C167.36 39.2661 168.399 39.7853 169.149 40.7661C169.899 41.7468 170.303 43.1891 170.303 45.0353C170.303 46.8814 169.899 48.3237 169.149 49.3045ZM173.014 38.1122C171.457 36.1507 169.091 35.1699 165.918 35.1699C162.745 35.1699 160.38 36.1507 158.822 38.1122C157.264 40.0738 156.457 42.3815 156.457 45.0353C156.457 47.7468 157.207 50.0545 158.822 51.9583C160.38 53.8622 162.745 54.843 165.918 54.843C169.091 54.843 171.457 53.8622 173.014 51.9583C174.572 50.0545 175.322 47.7468 175.322 45.0353C175.38 42.3815 174.572 40.0738 173.014 38.1122Z" fill="white"/>
</svg>
