<svg width="216" height="63" viewBox="0 0 216 63" fill="none" xmlns="http://www.w3.org/2000/svg">
<path d="M24.4371 2.61406C24.8681 2.61406 25.0836 2.82955 25.5146 3.04504C22.9287 4.12247 20.3429 6.92381 19.0499 12.9575L14.3092 14.2504C15.8176 9.94064 18.8344 2.61406 24.4371 2.61406ZM26.8075 4.76894C27.2385 6.06186 27.6694 7.57027 27.6694 9.94064C27.6694 10.1561 27.6694 10.1561 27.6694 10.3716L21.4203 12.0955C22.7132 7.57027 24.8681 5.63089 26.8075 4.76894ZM32.4102 8.64771L29.6088 9.50966C29.6088 9.29417 29.6088 9.07868 29.6088 8.8632C29.6088 6.92381 29.3933 5.4154 28.9624 4.12247C30.4708 4.55345 31.7637 6.49284 32.4102 8.64771ZM46.4168 12.0955C46.4168 11.88 46.2013 11.6645 45.9859 11.6645C45.5549 11.6645 41.0296 11.2336 41.0296 11.2336C41.0296 11.2336 37.7973 8.00125 37.3664 7.78576C36.9354 7.35479 36.2889 7.57027 36.0734 7.57027C36.0734 7.57027 35.427 7.78576 34.3495 8.21673C33.2721 5.19991 31.3327 2.39857 28.1004 2.39857H27.8849C27.023 1.10565 25.73 0.674675 24.6526 0.674675C16.8951 0.459188 13.2318 10.1561 11.9388 15.1123C10.2149 15.5433 8.49105 16.1898 6.55166 16.8362C4.82776 17.2672 4.82776 17.4827 4.61227 18.9911C4.39678 20.0685 0.0870361 54.1156 0.0870361 54.1156L34.3495 60.5802L52.8815 56.4859C52.8815 56.4859 46.4168 12.5265 46.4168 12.0955Z" fill="white"/>
<path d="M45.7704 11.6647C45.555 11.6647 41.0297 11.2337 41.0297 11.2337C41.0297 11.2337 37.7974 8.00141 37.3664 7.78592C37.1509 7.57043 37.1509 7.57043 36.9355 7.57043L34.3496 60.5803L52.8815 56.4861C52.8815 56.4861 46.4169 12.5266 46.4169 12.0957C46.4169 11.8802 45.9859 11.6647 45.7704 11.6647Z" fill="white"/>
<path d="M28.1004 22.0078L25.73 28.9033C25.73 28.9033 23.7906 27.8259 21.2048 27.8259C17.5415 27.8259 17.326 29.9808 17.326 30.6272C17.326 33.6441 25.5145 34.937 25.5145 42.2636C25.5145 48.0817 21.8513 51.745 16.895 51.745C11.0769 51.745 8.06006 48.0817 8.06006 48.0817L9.56847 42.91C9.56847 42.91 12.5853 45.4959 15.1711 45.4959C16.895 45.4959 17.5415 44.203 17.5415 43.1255C17.5415 39.0313 10.8614 38.8158 10.8614 32.1357C10.8614 26.533 14.9557 21.1458 22.9287 21.1458C26.592 20.9303 28.1004 22.0078 28.1004 22.0078Z" fill="black"/>
<path d="M74.6453 34.7222C72.706 33.6448 71.844 32.7828 71.844 31.7054C71.844 30.197 73.1369 29.335 75.2918 29.335C77.6622 29.335 79.817 30.4125 79.817 30.4125L81.5409 25.2408C81.5409 25.2408 80.0325 23.9478 75.5073 23.9478C69.0427 23.9478 64.7329 27.6111 64.7329 32.7828C64.7329 35.7997 66.8878 37.9545 69.4736 39.4629C71.6285 40.7559 72.4905 41.6178 72.4905 42.9107C72.4905 44.2037 71.413 45.4966 69.2582 45.4966C66.2413 45.4966 63.2245 43.9882 63.2245 43.9882L61.5006 49.1599C61.5006 49.1599 64.0865 50.8838 68.6117 50.8838C75.0763 50.8838 79.817 47.6515 79.817 41.8333C79.817 38.601 77.4467 36.2306 74.6453 34.7222ZM100.719 23.7324C97.487 23.7324 94.9012 25.2408 92.9618 27.6111L95.7631 12.958H88.4365L81.3255 50.2373H88.652L91.0224 37.5236C91.8843 32.7828 94.4702 29.766 96.8405 29.766C98.5644 29.766 99.2109 30.8434 99.2109 32.5673C99.2109 33.6448 99.2109 34.7222 98.9954 35.7997L96.1941 50.4528H103.521L106.322 35.3687C106.537 33.8603 106.753 31.9209 106.753 30.628C106.753 26.3182 104.598 23.7324 100.719 23.7324ZM119.467 45.0656C116.881 45.0656 116.019 42.9107 116.019 40.3249C116.019 36.2306 118.174 29.335 122.053 29.335C124.638 29.335 125.5 31.4899 125.5 33.6448C125.5 38.3855 123.345 45.0656 119.467 45.0656ZM123.13 23.7324C114.295 23.7324 108.477 31.7054 108.477 40.5404C108.477 46.1431 111.925 50.6683 118.605 50.6683C127.224 50.6683 133.042 42.9107 133.042 33.8603C133.042 28.6886 130.026 23.7324 123.13 23.7324ZM144.679 45.2811C142.739 45.2811 141.662 44.2037 141.662 44.2037L142.955 37.3081C143.817 32.7828 146.187 29.766 148.773 29.766C150.928 29.766 151.79 31.9209 151.79 33.8603C151.574 38.601 148.773 45.2811 144.679 45.2811ZM151.79 23.7324C146.834 23.7324 144.032 28.0421 144.032 28.0421L144.463 24.1633H137.999C137.783 26.7492 137.137 30.8434 136.49 33.8603L131.319 60.5807H138.645L140.584 49.8063H140.8C140.8 49.8063 142.308 50.6683 145.11 50.6683C153.729 50.6683 159.332 41.8333 159.332 32.9983C159.332 28.2576 157.177 23.7324 151.79 23.7324ZM169.675 13.389C167.305 13.389 165.581 15.3283 165.581 17.6987C165.581 19.8536 166.874 21.362 169.029 21.362C171.399 21.362 173.339 19.8536 173.339 17.0522C173.339 14.8974 171.83 13.389 169.675 13.389ZM159.547 50.2373H166.874L171.83 24.3788H164.504L159.547 50.2373ZM190.362 24.3788H185.19L185.406 23.0859C185.837 20.5 187.345 18.3452 189.716 18.3452C191.009 18.3452 192.086 18.7761 192.086 18.7761L193.594 12.958C193.594 12.958 192.301 12.3115 189.716 12.3115C187.13 12.3115 184.544 12.958 182.605 14.6819C180.019 16.8368 178.941 19.8536 178.295 22.8704L178.079 24.1633H174.631L173.554 29.766H177.002L173.123 50.2373H180.45L184.328 29.766H189.285L190.362 24.3788ZM207.817 24.3788C207.817 24.3788 203.291 35.7997 201.136 42.0488C200.921 40.1094 199.413 24.3788 199.413 24.3788H191.655L195.965 48.0824C195.965 48.5134 195.965 48.9444 195.749 49.3754C194.887 51.0993 193.379 52.6077 191.87 53.6851C190.578 54.7625 188.854 55.409 187.776 55.84L189.716 62.0891C191.224 61.8736 194.241 60.5807 196.827 58.2103C200.059 55.1935 203.291 50.2373 206.308 43.7727L215.143 24.5943L207.817 24.3788Z" fill="white"/>
</svg>


