<svg width="258" height="74" viewBox="0 0 258 74" fill="none" xmlns="http://www.w3.org/2000/svg">
<path d="M29.1646 2.5455C29.6807 2.5455 29.9387 2.80353 30.4547 3.06156C27.3584 4.3517 24.262 7.70608 22.7139 14.9309L17.0372 16.4791C18.8434 11.3185 22.4558 2.5455 29.1646 2.5455ZM32.0029 5.12579C32.519 6.67396 33.035 8.48017 33.035 11.3185C33.035 11.5765 33.035 11.5765 33.035 11.8345L25.5522 13.8988C27.1004 8.48017 29.6807 6.1579 32.0029 5.12579ZM38.7117 9.77031L35.3573 10.8024C35.3573 10.5444 35.3573 10.2864 35.3573 10.0283C35.3573 7.70608 35.0993 5.89988 34.5832 4.3517C36.3894 4.86776 37.9376 7.19002 38.7117 9.77031ZM55.4835 13.8988C55.4835 13.6407 55.2255 13.3827 54.9675 13.3827C54.4514 13.3827 49.0328 12.8667 49.0328 12.8667C49.0328 12.8667 45.1624 8.99622 44.6463 8.73819C44.1303 8.22214 43.3562 8.48016 43.0982 8.48016C43.0982 8.48016 42.3241 8.73819 41.0339 9.25425C39.7438 5.64185 37.4215 2.28747 33.5511 2.28747H33.2931C32.2609 0.739297 30.7128 0.223239 29.4226 0.223239C20.1336 -0.0347897 15.7471 11.5765 14.1989 17.5112C12.1347 18.0272 10.0705 18.8013 7.74819 19.5754C5.68396 20.0915 5.68396 20.3495 5.42593 22.1557C5.1679 23.4458 0.00732422 64.2144 0.00732422 64.2144L41.0339 71.9553L63.2244 67.0527C63.2244 67.0527 55.4835 14.4148 55.4835 13.8988Z" fill="white"/>
<path d="M54.7095 13.383C54.4514 13.383 49.0328 12.8669 49.0328 12.8669C49.0328 12.8669 45.1624 8.99651 44.6463 8.73848C44.3883 8.48045 44.3883 8.48045 44.1303 8.48045L41.0339 71.9556L63.2244 67.053C63.2244 67.053 55.4836 14.4151 55.4836 13.8991C55.4836 13.641 54.9675 13.383 54.7095 13.383Z" fill="white"/>
<path d="M33.5509 25.768L30.7126 34.025C30.7126 34.025 28.3903 32.7348 25.294 32.7348C20.9075 32.7348 20.6494 35.3151 20.6494 36.0892C20.6494 39.7016 30.4545 41.2498 30.4545 50.0228C30.4545 56.9895 26.068 61.376 20.1334 61.376C13.1666 61.376 9.5542 56.9895 9.5542 56.9895L11.3604 50.7969C11.3604 50.7969 14.9728 53.8932 18.0692 53.8932C20.1334 53.8932 20.9075 52.345 20.9075 51.0549C20.9075 46.1523 12.9086 45.8943 12.9086 37.8954C12.9086 31.1867 17.8111 24.7359 27.3582 24.7359C31.7447 24.4779 33.5509 25.768 33.5509 25.768Z" fill="black"/>
<path d="M89.2854 40.9926C86.9632 39.7024 85.931 38.6703 85.931 37.3802C85.931 35.574 87.4792 34.5418 90.0595 34.5418C92.8978 34.5418 95.4781 35.832 95.4781 35.832L97.5423 29.6393C97.5423 29.6393 95.7361 28.0911 90.3175 28.0911C82.5767 28.0911 77.4161 32.4776 77.4161 38.6703C77.4161 42.2827 79.9964 44.863 83.0927 46.6692C85.673 48.2174 86.7051 49.2495 86.7051 50.7977C86.7051 52.3458 85.415 53.894 82.8347 53.894C79.2223 53.894 75.6099 52.0878 75.6099 52.0878L73.5457 58.2805C73.5457 58.2805 76.642 60.3447 82.0606 60.3447C89.8015 60.3447 95.4781 56.4743 95.4781 49.5075C95.4781 45.6371 92.6398 42.7988 89.2854 40.9926ZM120.507 27.8331C116.636 27.8331 113.54 29.6393 111.218 32.4776L114.572 14.9316H105.799L97.2843 59.5707H106.057L108.896 44.3469C109.928 38.6703 113.024 35.0579 115.862 35.0579C117.927 35.0579 118.701 36.348 118.701 38.4123C118.701 39.7024 118.701 40.9926 118.443 42.2827L115.088 59.8287H123.861L127.216 41.7667C127.474 39.9605 127.732 37.6382 127.732 36.09C127.732 30.9294 125.151 27.8331 120.507 27.8331ZM142.955 53.378C139.859 53.378 138.827 50.7977 138.827 47.7013C138.827 42.7988 141.407 34.5418 146.052 34.5418C149.148 34.5418 150.18 37.1221 150.18 39.7024C150.18 45.3791 147.6 53.378 142.955 53.378ZM147.342 27.8331C136.763 27.8331 129.796 37.3802 129.796 47.9594C129.796 54.6681 133.924 60.0867 141.923 60.0867C152.244 60.0867 159.211 50.7977 159.211 39.9605C159.211 33.7678 155.599 27.8331 147.342 27.8331ZM173.145 53.636C170.823 53.636 169.532 52.3458 169.532 52.3458L171.081 44.0889C172.113 38.6703 174.951 35.0579 178.047 35.0579C180.628 35.0579 181.66 37.6382 181.66 39.9605C181.402 45.6371 178.047 53.636 173.145 53.636ZM181.66 27.8331C175.725 27.8331 172.371 32.9937 172.371 32.9937L172.887 28.3492H165.146C164.888 31.4455 164.114 36.3481 163.34 39.9605L157.147 71.956H165.92L168.242 59.0546H168.5C168.5 59.0546 170.306 60.0867 173.661 60.0867C183.982 60.0867 190.691 49.5075 190.691 38.9283C190.691 33.2517 188.11 27.8331 181.66 27.8331ZM203.076 15.4477C200.238 15.4477 198.174 17.77 198.174 20.6083C198.174 23.1886 199.722 24.9948 202.302 24.9948C205.14 24.9948 207.463 23.1886 207.463 19.8342C207.463 17.2539 205.656 15.4477 203.076 15.4477ZM190.949 59.5707H199.722L205.656 28.6072H196.883L190.949 59.5707ZM227.847 28.6072H221.654L221.912 27.059C222.428 23.9627 224.235 21.3824 227.073 21.3824C228.621 21.3824 229.911 21.8984 229.911 21.8984L231.717 14.9316C231.717 14.9316 230.169 14.1576 227.073 14.1576C223.976 14.1576 220.88 14.9316 218.558 16.9959C215.462 19.5762 214.171 23.1886 213.397 26.801L213.139 28.3492H209.011L207.721 35.0579H211.849L207.205 59.5707H215.978L220.622 35.0579H226.557L227.847 28.6072ZM248.747 28.6072C248.747 28.6072 243.329 42.2827 240.748 49.7656C240.49 47.4433 238.684 28.6072 238.684 28.6072H229.395L234.556 56.9904C234.556 57.5064 234.556 58.0225 234.298 58.5385C233.266 60.6028 231.459 62.409 229.653 63.6991C228.105 64.9893 226.041 65.7634 224.751 66.2794L227.073 73.7622C228.879 73.5042 232.491 71.956 235.588 69.1177C239.458 65.5053 243.329 59.5707 246.941 51.8298L257.52 28.8652L248.747 28.6072Z" fill="white"/>
</svg>

