<svg width="193" height="28" viewBox="0 0 193 28" fill="none" xmlns="http://www.w3.org/2000/svg">
<path d="M14.5346 0.19104L17.6359 9.73592H27.672L19.5526 15.635L22.6539 25.1799L14.5346 19.2808L6.41519 25.1799L9.51651 15.635L1.39715 9.73592H11.4332L14.5346 0.19104Z" fill="#7033F5"/>
<path d="M55.6246 0.19104L58.726 9.73592H68.7621L60.6427 15.635L63.744 25.1799L55.6246 19.2808L47.5053 25.1799L50.6066 15.635L42.4872 9.73592H52.5233L55.6246 0.19104Z" fill="#7033F5"/>
<path d="M96.7149 0.19104L99.8162 9.73592H109.852L101.733 15.635L104.834 25.1799L96.7149 19.2808L88.5955 25.1799L91.6968 15.635L83.5774 9.73592H93.6135L96.7149 0.19104Z" fill="#7033F5"/>
<path d="M137.805 0.19104L140.906 9.73592H150.942L142.823 15.635L145.924 25.1799L137.805 19.2808L129.686 25.1799L132.787 15.635L124.668 9.73592H134.704L137.805 0.19104Z" fill="#7033F5"/>
<path d="M178.896 0.19104L181.997 9.73592H192.033L183.914 15.635L187.015 25.1799L178.896 19.2808L170.776 25.1799L173.878 15.635L165.758 9.73592H175.794L178.896 0.19104Z" fill="#7033F5"/>
</svg>
