<svg width="154" height="23" viewBox="0 0 154 23" fill="none" xmlns="http://www.w3.org/2000/svg">
<path d="M11.9158 0.26532L14.38 7.84937L22.3544 7.84938L15.903 12.5366L18.3672 20.1206L11.9158 15.4334L5.46443 20.1206L7.92864 12.5366L1.47725 7.84938L9.4516 7.84937L11.9158 0.26532Z" fill="#7033F5"/>
<path d="M44.5649 0.265381L47.0291 7.84944L55.0034 7.84944L48.552 12.5366L51.0162 20.1207L44.5649 15.4335L38.1135 20.1207L40.5777 12.5366L34.1263 7.84944L42.1007 7.84944L44.5649 0.265381Z" fill="#7033F5"/>
<path d="M77.2134 0.265381L79.6776 7.84944L87.652 7.84944L81.2006 12.5366L83.6648 20.1207L77.2134 15.4335L70.762 20.1207L73.2262 12.5366L66.7749 7.84944L74.7492 7.84944L77.2134 0.265381Z" fill="#7033F5"/>
<path d="M109.862 0.265381L112.327 7.84944L120.301 7.84944L113.85 12.5366L116.314 20.1207L109.862 15.4335L103.411 20.1207L105.875 12.5366L99.4239 7.84944L107.398 7.84944L109.862 0.265381Z" fill="#7033F5"/>
<path d="M142.512 0.265381L144.976 7.84944L152.95 7.84944L146.499 12.5366L148.963 20.1207L142.512 15.4335L136.06 20.1207L138.524 12.5366L132.073 7.84944L140.047 7.84944L142.512 0.265381Z" fill="#7033F5"/>
</svg>

