<svg width="25" height="26" viewBox="0 0 25 26" fill="none" xmlns="http://www.w3.org/2000/svg">
<path d="M22.6965 25.1127C19.8286 25.1127 17.0331 24.4628 14.3101 23.163C11.5871 21.8632 9.17494 20.1458 7.07355 18.0108C4.97217 15.8758 3.28252 13.424 2.00462 10.6554C0.726713 7.88672 0.0873151 5.04532 0.0864258 2.13116C0.0864258 1.7244 0.219819 1.38544 0.486605 1.11427C0.753391 0.843104 1.08687 0.70752 1.48705 0.70752H6.88947C7.20072 0.70752 7.47862 0.809208 7.72318 1.01258C7.96773 1.21596 8.11224 1.47583 8.1567 1.7922L9.02376 6.53766C9.06822 6.85402 9.06244 7.14236 9.00642 7.40269C8.95039 7.66301 8.82278 7.89441 8.62358 8.09688L5.42215 11.4187C6.3559 13.0457 7.52309 14.571 8.92371 15.9947C10.3243 17.4183 11.8695 18.6499 13.5591 19.6894L16.6939 16.5031C16.8939 16.2997 17.1554 16.1474 17.4782 16.0462C17.801 15.945 18.1176 15.9165 18.428 15.9608L23.03 16.9099C23.3413 16.9777 23.5969 17.1304 23.797 17.3682C23.9971 17.6059 24.0972 17.8825 24.0972 18.1979V23.6891C24.0972 24.0959 23.9638 24.4348 23.697 24.706C23.4302 24.9772 23.0967 25.1127 22.6965 25.1127Z" fill="white"/>
</svg>
