<svg width="198" height="73" viewBox="0 0 198 73" fill="none" xmlns="http://www.w3.org/2000/svg">
<path d="M78.431 0.891052H15.9233C11.0764 0.891052 7.97275 6.04376 10.2407 10.3274L16.4932 22.1671H5.15823C4.44041 22.1673 3.7348 22.3529 3.10976 22.7059C2.48472 23.0589 1.96143 23.5673 1.59058 24.1819C1.21972 24.7965 1.01388 25.4965 0.992978 26.214C0.972079 26.9315 1.13683 27.6423 1.47128 28.2775L21.5824 66.342C21.9369 67.0114 22.4672 67.5716 23.1162 67.9623C23.7652 68.353 24.5085 68.5594 25.266 68.5594C26.0235 68.5594 26.7668 68.353 27.4158 67.9623C28.0648 67.5716 28.5951 67.0114 28.9496 66.342L34.4115 56.06L41.264 69.0328C43.6757 73.5955 50.2089 73.6039 52.629 69.0462L83.9598 10.0884C86.1743 5.91841 83.1525 0.891052 78.431 0.891052ZM50.3527 26.0813L36.8433 51.5089C36.6072 51.9541 36.2543 52.3266 35.8225 52.5864C35.3906 52.8461 34.8962 52.9834 34.3923 52.9834C33.8884 52.9834 33.394 52.8461 32.9621 52.5864C32.5303 52.3266 32.1774 51.9541 31.9413 51.5089L18.5623 26.1883C18.3387 25.7661 18.2279 25.2934 18.2406 24.8158C18.2533 24.3382 18.3891 23.872 18.6349 23.4624C18.8807 23.0527 19.228 22.7134 19.6434 22.4774C20.0588 22.2414 20.5281 22.1167 21.0058 22.1153H47.9693C48.4351 22.1153 48.893 22.2358 49.2984 22.4652C49.7038 22.6946 50.0429 23.0249 50.2828 23.4242C50.5228 23.8234 50.6553 24.2779 50.6675 24.7436C50.6797 25.2092 50.5713 25.67 50.3527 26.0813ZM144.916 28.2424H138.079V51.6761C138.079 51.8896 137.994 52.0942 137.843 52.2452C137.692 52.3962 137.487 52.4812 137.273 52.4816H132C131.787 52.4812 131.582 52.3962 131.431 52.2452C131.28 52.0942 131.195 51.8896 131.195 51.6761V28.2424H124.317C124.214 28.2466 124.11 28.23 124.013 28.1936C123.916 28.1571 123.828 28.1015 123.753 28.0301C123.677 27.9587 123.617 27.873 123.576 27.778C123.535 27.6829 123.513 27.5805 123.512 27.4769V23.332C123.513 23.2283 123.535 23.126 123.576 23.0309C123.617 22.9359 123.677 22.8501 123.753 22.7787C123.828 22.7073 123.916 22.6518 124.013 22.6153C124.11 22.5789 124.214 22.5623 124.317 22.5665H144.915C145.128 22.5565 145.337 22.6314 145.496 22.7748C145.654 22.9182 145.749 23.1186 145.76 23.332V27.4786C145.749 27.6914 145.654 27.891 145.496 28.034C145.338 28.1771 145.129 28.2519 144.916 28.2424ZM166.866 52.3128C165.457 52.5134 163.087 52.836 158.74 52.836C153.547 52.836 148.959 51.5073 148.959 44.1818V30.8112C148.959 23.4858 153.589 22.1972 158.78 22.1972C163.126 22.1972 165.457 22.5197 166.866 22.7203C167.429 22.8005 167.672 23.0027 167.672 23.5259V27.2747C167.671 27.4882 167.586 27.6928 167.435 27.8438C167.284 27.9948 167.08 28.0798 166.866 28.0802H158.379C156.487 28.0802 155.804 28.7237 155.804 30.8179V34.4814H166.545C166.759 34.4819 166.963 34.5669 167.114 34.7179C167.265 34.8688 167.35 35.0735 167.351 35.287V39.111C167.35 39.3245 167.265 39.5292 167.114 39.6802C166.963 39.8311 166.759 39.9161 166.545 39.9166H155.804V44.1835C155.804 46.276 156.487 46.9211 158.379 46.9211H166.866C167.08 46.9216 167.284 47.0066 167.435 47.1576C167.586 47.3085 167.671 47.5132 167.672 47.7267V51.4705C167.672 51.9903 167.429 52.2326 166.866 52.3128ZM197.236 52.4733H190.836C190.313 52.4733 190.071 52.3062 189.79 51.8699L184.241 43.0604L179.214 51.6761C178.931 52.1591 178.651 52.4816 178.211 52.4816H172.254C171.852 52.4816 171.651 52.2393 171.651 51.9585C171.659 51.86 171.686 51.764 171.731 51.6761L180.451 37.1355L171.641 23.3286C171.596 23.2549 171.569 23.1721 171.561 23.0863C171.575 22.9384 171.646 22.8017 171.758 22.7044C171.87 22.607 172.016 22.5565 172.164 22.5632H178.644C179.087 22.5632 179.409 22.966 179.647 23.3286L184.796 31.4597L189.78 23.3286C189.981 22.966 190.343 22.5632 190.783 22.5632H196.739C196.888 22.5565 197.033 22.607 197.145 22.7044C197.258 22.8017 197.328 22.9384 197.343 23.0863C197.335 23.1721 197.307 23.2549 197.263 23.3286L188.496 37.2207L197.639 51.6761C197.71 51.7989 197.751 51.937 197.759 52.0789C197.761 52.3128 197.558 52.4733 197.236 52.4733ZM113.865 22.6467C113.721 22.6471 113.582 22.6973 113.471 22.7887C113.36 22.8801 113.284 23.0071 113.256 23.1481L107.414 44.7735C107.333 45.2164 107.213 45.3768 106.85 45.3768C106.488 45.3768 106.367 45.2097 106.287 44.7735L100.437 23.1431C100.41 23.0021 100.334 22.8751 100.223 22.7837C100.112 22.6923 99.9728 22.6421 99.829 22.6417H94.078C93.9845 22.6418 93.8922 22.663 93.808 22.7037C93.7238 22.7445 93.6498 22.8036 93.5917 22.8769C93.5335 22.9501 93.4927 23.0356 93.4721 23.1268C93.4516 23.218 93.4518 23.3127 93.473 23.4039C93.473 23.4039 100.61 48.2047 100.688 48.4487C101.641 51.4036 103.952 52.8159 106.894 52.8159C109.695 52.8159 112.14 51.3368 113.096 48.4571C113.21 48.1228 120.187 23.4022 120.187 23.4022C120.208 23.3112 120.208 23.2167 120.188 23.1256C120.167 23.0346 120.126 22.9494 120.068 22.8764C120.01 22.8033 119.936 22.7443 119.852 22.7037C119.768 22.6631 119.676 22.6419 119.582 22.6417L113.865 22.6467Z" fill="white"/>
</svg>
