<svg width="166" height="61" viewBox="0 0 166 61" fill="none" xmlns="http://www.w3.org/2000/svg">
<path d="M65.4936 0.737671H13.2916C9.24385 0.737671 6.6519 5.04085 8.54597 8.61822L13.7676 18.5059H4.30141C3.70193 18.5061 3.11266 18.6611 2.59067 18.9559C2.06868 19.2507 1.63167 19.6753 1.32196 20.1885C1.01225 20.7018 0.840341 21.2864 0.822887 21.8856C0.805433 22.4848 0.943024 23.0784 1.22233 23.6088L18.0177 55.3976C18.3138 55.9567 18.7566 56.4245 19.2986 56.7508C19.8407 57.0771 20.4613 57.2495 21.094 57.2495C21.7266 57.2495 22.3473 57.0771 22.8893 56.7508C23.4313 56.4245 23.8742 55.9567 24.1703 55.3976L28.7317 46.8108L34.4544 57.6448C36.4685 61.4553 41.9245 61.4623 43.9456 57.656L70.1108 8.41862C71.9602 4.93616 69.4367 0.737671 65.4936 0.737671ZM42.0446 21.7748L30.7625 43.0101C30.5653 43.3819 30.2706 43.693 29.91 43.9099C29.5494 44.1269 29.1365 44.2415 28.7156 44.2415C28.2948 44.2415 27.8819 44.1269 27.5213 43.9099C27.1606 43.693 26.8659 43.3819 26.6687 43.0101L15.4955 21.8641C15.3088 21.5116 15.2162 21.1167 15.2269 20.7179C15.2375 20.3191 15.3509 19.9298 15.5562 19.5876C15.7614 19.2455 16.0515 18.9622 16.3984 18.7651C16.7453 18.568 17.1372 18.4638 17.5362 18.4626H40.0542C40.4432 18.4626 40.8256 18.5633 41.1641 18.7549C41.5027 18.9464 41.7859 19.2223 41.9863 19.5557C42.1866 19.8891 42.2973 20.2687 42.3075 20.6576C42.3177 21.0464 42.2272 21.4313 42.0446 21.7748ZM121.018 23.5795H115.307V43.1497C115.307 43.328 115.236 43.4989 115.11 43.625C114.984 43.7511 114.813 43.8221 114.635 43.8225H110.231C110.053 43.8221 109.882 43.7511 109.756 43.625C109.63 43.4989 109.559 43.328 109.558 43.1497V23.5795H103.815C103.728 23.5831 103.642 23.5692 103.561 23.5388C103.48 23.5084 103.406 23.4619 103.343 23.4023C103.28 23.3427 103.23 23.2711 103.195 23.1917C103.161 23.1123 103.143 23.0268 103.142 22.9403V19.4787C103.143 19.3922 103.161 19.3067 103.195 19.2273C103.23 19.148 103.28 19.0763 103.343 19.0167C103.406 18.9571 103.48 18.9107 103.561 18.8802C103.642 18.8498 103.728 18.8359 103.815 18.8395H121.016C121.194 18.8311 121.369 18.8937 121.501 19.0134C121.633 19.1332 121.713 19.3005 121.722 19.4787V22.9417C121.713 23.1194 121.633 23.2861 121.501 23.4056C121.369 23.525 121.195 23.5875 121.018 23.5795ZM139.348 43.6815C138.172 43.849 136.192 44.1184 132.562 44.1184C128.225 44.1184 124.394 43.0087 124.394 36.891V25.7248C124.394 19.6072 128.26 18.531 132.596 18.531C136.225 18.531 138.172 18.8004 139.348 18.9679C139.819 19.0349 140.021 19.2038 140.021 19.6407V22.7714C140.021 22.9497 139.95 23.1206 139.824 23.2467C139.698 23.3728 139.527 23.4438 139.348 23.4441H132.261C130.681 23.4441 130.11 23.9815 130.11 25.7304V28.79H139.08C139.259 28.7903 139.43 28.8613 139.556 28.9874C139.682 29.1135 139.753 29.2844 139.753 29.4627V32.6563C139.753 32.8346 139.682 33.0055 139.556 33.1316C139.43 33.2577 139.259 33.3287 139.08 33.329H130.11V36.8924C130.11 38.64 130.681 39.1787 132.261 39.1787H139.348C139.527 39.1791 139.698 39.2501 139.824 39.3762C139.95 39.5023 140.021 39.6732 140.021 39.8515V42.978C140.021 43.4121 139.819 43.6145 139.348 43.6815ZM164.711 43.8155H159.367C158.93 43.8155 158.727 43.6759 158.493 43.3116L153.859 35.9545L149.66 43.1497C149.424 43.5531 149.19 43.8225 148.823 43.8225H143.848C143.512 43.8225 143.344 43.6201 143.344 43.3856C143.351 43.3033 143.374 43.2231 143.411 43.1497L150.693 31.0065L143.336 19.476C143.299 19.4144 143.276 19.3452 143.269 19.2736C143.281 19.1501 143.34 19.0359 143.434 18.9546C143.528 18.8733 143.649 18.8311 143.773 18.8367H149.184C149.554 18.8367 149.824 19.1731 150.022 19.476L154.322 26.2664L158.484 19.476C158.652 19.1731 158.955 18.8367 159.322 18.8367H164.296C164.42 18.8311 164.542 18.8733 164.635 18.9546C164.729 19.0359 164.788 19.1501 164.8 19.2736C164.793 19.3452 164.771 19.4144 164.733 19.476L157.412 31.0776L165.047 43.1497C165.107 43.2523 165.141 43.3676 165.148 43.4861C165.149 43.6815 164.98 43.8155 164.711 43.8155ZM95.0854 18.9065C94.9654 18.9068 94.8492 18.9487 94.7566 19.025C94.6639 19.1014 94.6006 19.2074 94.5774 19.3252L89.6978 37.3851C89.6308 37.755 89.5303 37.889 89.2274 37.889C88.9245 37.889 88.824 37.7494 88.757 37.3851L83.8718 19.321C83.8486 19.2033 83.7852 19.0972 83.6926 19.0208C83.6 18.9445 83.4838 18.9026 83.3637 18.9023H78.5609C78.4828 18.9024 78.4057 18.9201 78.3354 18.9541C78.265 18.9881 78.2033 19.0375 78.1547 19.0987C78.1062 19.1599 78.072 19.2312 78.0549 19.3074C78.0377 19.3836 78.038 19.4627 78.0556 19.5388C78.0556 19.5388 84.0155 40.2507 84.0812 40.4545C84.8767 42.9222 86.8071 44.1016 89.2637 44.1016C91.603 44.1016 93.645 42.8664 94.4434 40.4614C94.5383 40.1823 100.366 19.5374 100.366 19.5374C100.383 19.4614 100.383 19.3824 100.366 19.3064C100.349 19.2304 100.314 19.1593 100.266 19.0982C100.217 19.0372 100.156 18.988 100.085 18.954C100.015 18.9201 99.9383 18.9024 99.8604 18.9023L95.0854 18.9065Z" fill="white"/>
</svg>

