<svg width="64" height="51" viewBox="0 0 64 51" fill="none" xmlns="http://www.w3.org/2000/svg">
<path d="M56.7227 32.039H6.30249V3.67763C6.30249 2.84186 6.6345 2.04033 7.22547 1.44935C7.81645 0.858375 8.61798 0.526367 9.45375 0.526367H53.5714C54.4072 0.526367 55.2087 0.858375 55.7997 1.44935C56.3907 2.04033 56.7227 2.84186 56.7227 3.67763V32.039Z" fill="white"/>
<path d="M12.605 50.9466H50.4202C53.7632 50.9466 56.9694 49.6186 59.3333 47.2547C61.6972 44.8908 63.0252 41.6846 63.0252 38.3416H0C0 41.6846 1.32803 44.8908 3.69193 47.2547C6.05584 49.6186 9.26198 50.9466 12.605 50.9466Z" fill="white"/>
</svg>
