<svg width="51" height="42" viewBox="0 0 51 42" fill="none" xmlns="http://www.w3.org/2000/svg">
<path d="M45.1237 25.9923H5.04614V3.4487C5.04614 2.78437 5.31005 2.14725 5.7798 1.6775C6.24955 1.20775 6.88666 0.943848 7.55099 0.943848H42.6189C43.2832 0.943848 43.9203 1.20775 44.3901 1.6775C44.8598 2.14725 45.1237 2.78437 45.1237 3.4487V25.9923Z" fill="currentColor"/>
<path d="M10.0556 41.0216H40.1138C42.7711 41.0216 45.3196 39.966 47.1986 38.087C49.0776 36.208 50.1332 33.6595 50.1332 31.0022H0.0362549C0.0362549 33.6595 1.09187 36.208 2.97087 38.087C4.84987 39.966 7.39834 41.0216 10.0556 41.0216Z" fill="currentColor"/>
</svg>
