<svg width="64" height="20" viewBox="0 0 64 20" fill="none" xmlns="http://www.w3.org/2000/svg">
<g clip-path="url(#clip0_1922_2895)">
<path d="M16.6794 9.79781L2.45206 16.9251H18.0452V19.3771H2.42878C1.08636 19.3771 0 18.2675 0 16.9251C0 15.9939 0.566457 15.1675 1.36958 14.7563L15.5698 7.62898H0V5.2002H15.6202C16.9355 5.2002 18.049 6.28267 18.049 7.62898C18.049 8.61058 17.4554 9.40983 16.6794 9.79781Z" fill="white"/>
<path d="M20.4741 5.21533H22.9029V19.3884H20.4741V5.21533Z" fill="white"/>
<path d="M43.3767 10.3172L43.3495 14.2398C43.3224 17.0527 41.0759 19.3767 38.263 19.3767H30.4413C27.6284 19.3767 25.3276 17.0527 25.3276 14.2398V10.3172C25.3276 7.50436 27.6245 5.20361 30.4413 5.20361H38.263C41.0759 5.20361 43.3495 7.50048 43.3767 10.3172ZM40.9246 10.3172C40.9246 8.84679 39.7374 7.6324 38.2669 7.6324H30.4452C28.9747 7.6324 27.7875 8.84679 27.7875 10.3172V14.2398C27.7875 15.7102 28.9747 16.9246 30.4452 16.9246H38.2669C39.7374 16.9246 40.9246 15.7102 40.9246 14.2398V10.3172Z" fill="white"/>
<path d="M63.851 10.329V19.3923H61.4222V10.329C61.4222 8.85851 60.2078 7.64411 58.7645 7.64411H48.2579V19.3923H45.8291V5.21533H58.7645C61.5541 5.21533 63.851 7.5122 63.851 10.329Z" fill="white"/>
<path d="M39.613 0.365723H29.0908V2.79062H39.613V0.365723Z" fill="white"/>
</g>
<defs>
<clipPath id="clip0_1922_2895">
<rect width="63.8506" height="19.0268" fill="white" transform="translate(0 0.365723)"/>
</clipPath>
</defs>
</svg>
